<?xml version="1.0" encoding="utf-8"?>
<!-- Generator: Adobe Illustrator 17.0.0, SVG Export Plug-In . SVG Version: 6.00 Build 0)  -->
<!DOCTYPE svg PUBLIC "-//W3C//DTD SVG 1.1//EN" "http://www.w3.org/Graphics/SVG/1.1/DTD/svg11.dtd">
<svg version="1.1" id="Layer_1" xmlns="http://www.w3.org/2000/svg" xmlns:xlink="http://www.w3.org/1999/xlink" x="0px" y="0px"
	 width="1266px" height="589px" viewBox="0 0 1266 589" enable-background="new 0 0 1266 589" xml:space="preserve">
<g>
	<path d="M260.42,330.69c8.794-3.003,17.565-6.074,26.385-8.997c28.105-9.315,56.159-18.794,84.363-27.8
		c33.431-10.675,67.407-19.275,102.119-24.655c26.857-4.163,53.938-5.292,81.034-3.706c29.591,1.732,58.229,8.738,86.32,17.887
		c36.571,11.911,73.005,24.241,109.555,36.218c26.984,8.843,53.999,17.628,81.998,22.851c24.255,4.524,48.632,6.157,73.32,4.437
		c37.132-2.587,72.383-12.363,106.621-26.414c1.061-0.435,2.02-1.119,3.027-1.687c-0.099-0.402-0.198-0.803-0.297-1.205
		c-2.133,0.302-4.33,0.375-6.391,0.942c-17.521,4.827-35.22,8.291-53.426,9.637c-27.726,2.049-55.102-0.494-81.743-7.477
		c-38.827-10.178-77.188-22.124-115.802-33.123c-37.744-10.751-75.478-21.551-113.367-31.775
		c-26.177-7.064-53.084-9.606-80.105-11.219c-29.158-1.741-58.263-0.829-87.337,1.19c-19.692,1.367-39.344,3.389-58.986,5.402
		c-16.504,1.691-32.988,3.62-49.44,5.757c-18.303,2.377-36.566,5.072-54.837,7.695c-18.28,2.624-36.534,5.44-54.837,7.885
		c-2.749,0.367-5.707-0.827-8.568-1.299c-0.055-0.398-0.111-0.796-0.166-1.194c1.417-0.639,2.836-1.274,4.251-1.918
		c19.027-8.653,39.594-11.598,59.76-15.936c39.22-8.437,78.426-16.976,117.796-24.663c26.693-5.211,53.525-10.322,80.54-13.078
		c21.251-2.168,42.91-1.503,64.328-0.636c57.478,2.329,112.435,17.282,166.679,35.167c30.794,10.154,61.7,20.089,91.996,31.597
		c22.242,8.449,44.285,17.069,67.723,21.616c26.897,5.219,53.981,6.053,81.291,4.594c33.261-1.777,65.295-10.305,97.732-16.669
		c1.13-0.222,2.28-0.343,3.965-0.591c-9.272,9.955-20.429,16.151-31.471,22.458c-34.019,19.43-69.505,35.348-107.834,44.267
		c-26.103,6.074-52.559,9.453-79.388,8.909c-36.813-0.747-72.222-8.856-107.303-19.7c-37.997-11.745-75.121-25.775-112.394-39.506
		c-23.854-8.787-48.593-14.783-73.963-17.204c-18.846-1.798-37.806-3.635-56.697-3.455c-34.047,0.324-67.57,5.526-100.748,13.434
		c-33.959,8.094-68.157,15.188-102.256,22.692c-13.452,2.96-26.898,5.956-40.394,8.699c-4.224,0.858-8.606,0.941-12.916,1.379
		C260.511,331.228,260.466,330.959,260.42,330.69z"/>
	<path d="M1092.597,280.576c-3.757-12.364-7.18-24.843-11.355-37.064c-5.34-15.63-17.32-22.227-33.224-23.158
		c-23.427-1.371-46.848-2.87-70.259-4.484c-21.716-1.498-43.413-3.268-65.125-4.826c-19.761-1.418-38.515-5.833-56.221-15.356
		c-6.855-3.687-15.326-5.233-23.224-5.951c-20.428-1.857-40.936-2.999-61.436-3.859c-13.191-0.554-26.424-0.104-39.906-0.104
		c-0.231-2.646-0.343-3.931-0.517-5.933c25.841-1.666,51.354-3.312,77.358-4.989c-0.17-2.327-0.288-3.945-0.435-5.96
		c-1.979,0-3.658,0.002-5.337,0c-33.979-0.042-67.959-0.097-101.938-0.106c-2.807-0.001-5.215-0.088-3.828-4.317
		c29.642-1.627,59.418-3.262,89.194-4.897c0.219-0.424,0.437-0.847,0.656-1.271c-4.532-2.955-8.733-6.725-13.653-8.727
		c-25.285-10.288-51.526-17.111-78.574-21.021c-20.102-2.906-40.268-4.039-60.532-3.546c-33.741,0.821-66.829,6.198-99.532,14.373
		c-37.46,9.364-73.493,22.763-108.61,38.6c-11.003,4.962-21.021,12.061-31.789,17.601c-18.721,9.632-38.522,16.012-59.735,16.494
		c-10.365,0.236-20.872-0.009-31.119-1.441c-24.179-3.38-42.931,6.206-53.924,28.323c-5.736,11.54-11.899,22.868-17.762,34.346
		c-1.178,2.306-2.476,3.477-5.313,3.474c-44.275-0.046-88.551,0.032-132.826,0.06c-0.213,0-0.426-0.309-1.259-0.952
		c4.159-0.445,7.769-0.904,11.393-1.206c22.307-1.859,44.638-3.46,66.915-5.612c10.781-1.042,21.63-2.398,32.144-4.894
		c10.116-2.402,20.03-6.208,26.623-15.147c1.934-2.623,3.253-5.699,5.338-9.434c-26.219-1.744-51.076-3.397-75.932-5.051
		c-0.027-0.533-0.055-1.065-0.082-1.598c3.827-0.421,7.643-1.042,11.481-1.228c15.084-0.73,30.218-0.843,45.241-2.201
		c6.131-0.554,12.366-3.021,17.953-5.817c8.871-4.439,15.568-11.71,22.604-20.317c-25.472-2.563-50.027-5.033-74.581-7.503
		c-0.127-0.375-0.254-0.749-0.381-1.124c0.824-0.495,1.616-1.352,2.478-1.43c11.152-1.009,22.312-1.922,33.473-2.829
		c17.065-1.387,34.133-2.74,51.199-4.125c17.692-1.436,35.364-3.196,53.078-4.239c12.353-0.728,24.294-3.077,36.058-6.669
		c1.027-0.314,2.012-0.782,2.982-1.249c0.201-0.097,0.25-0.51,0.769-1.677c-28.149-1.975-55.955-3.926-83.761-5.878
		c-0.029-0.21-0.059-0.42-0.088-0.631c6.833-0.586,13.661-1.612,20.499-1.679c22.757-0.223,45.535-0.649,68.27,0.098
		c12.897,0.424,22.459-5.723,32.214-12.349c0.656-0.446,0.971-1.395,1.793-2.637c-21.766-2.425-42.954-4.785-64.765-7.215
		c13.373-1.45,26.136-2.797,38.889-4.227c15.268-1.712,30.502-3.769,45.797-5.169c14.552-1.332,27.093-8.497,40.531-13.052
		c1.009-0.342,1.931-1.011,2.81-1.642c0.471-0.338,0.766-0.921,1.76-2.177c-60.581,0-120.42,0-180.561,0c0-2.431,0-4.188,0-6.289
		c2.135-0.197,4.123-0.488,6.119-0.549c33.17-1.009,66.341-1.953,99.51-2.991c17.57-0.55,35.135-1.244,52.702-1.889
		c16.477-0.604,32.955-1.215,49.431-1.848c15.702-0.603,31.428-0.874,47.099-1.949c20.303-1.393,40.531-4.059,60.846-5.026
		c19.578-0.932,39.232-0.725,58.842-0.419c20.233,0.316,40.114,3.71,59.86,8.085c39.741,8.806,75.79,25.555,108.749,49.333
		c28.943,20.881,61.375,33.974,96.249,40.677c17.94,3.449,36.165,5.625,54.349,7.539c19.949,2.1,40.041,2.835,59.993,4.906
		c19.029,1.976,35.387,9.494,46.121,26.289c5.544,8.674,7.803,18.558,8.804,28.605c0.664,6.668,0.126,13.456,0.126,20.191
		C1093.073,280.621,1092.835,280.598,1092.597,280.576z"/>
	<path d="M916.907,412.221c5.879,0,11.485-0.235,17.048,0.148c1.603,0.11,3.539,1.685,4.548,3.129
		c9.443,13.523,18.714,27.166,28.051,40.764c0.646,0.94,1.427,1.788,2.925,3.645c0-16.573,0-31.91,0-47.473
		c6.766,0,13.087,0,19.775,0c0,26.97,0,53.825,0,81.223c-6.043,0-12.077,0.148-18.092-0.13c-1.149-0.053-2.477-1.604-3.288-2.766
		c-9.876-14.157-19.669-28.371-29.493-42.564c-0.331-0.479-0.76-0.89-1.951-2.265c0,16.451,0,31.853,0,47.507
		c-6.815,0-12.987,0-19.523,0C916.907,466.584,916.907,439.71,916.907,412.221z"/>
	<path d="M795.862,464.225c6.625,9.638,13.117,19.083,20.185,29.365c-8.329,0-15.981,0.13-23.618-0.146
		c-1.089-0.039-2.263-1.936-3.133-3.161c-8.008-11.278-15.955-22.6-23.929-33.903c-0.7-0.992-1.464-1.937-3.029-3.998
		c0,14.43,0,27.642,0,41.079c-6.816,0-12.986,0-19.518,0c0-26.886,0-53.715,0-81.105c5.349,0,10.596-0.064,15.841,0.013
		c11.041,0.162,22.13-0.176,33.109,0.753c13.056,1.104,21.568,9.962,22.634,23.116c0.945,11.667-3.388,22.763-16.52,27.171
		C797.325,463.596,796.789,463.848,795.862,464.225z M762.427,447.75c2.227,0,4.066,0.002,5.904,0
		c6.058-0.007,12.121,0.145,18.171-0.079c4.258-0.157,6.759-3.492,6.834-8.405c0.078-5.105-2.388-9.002-6.627-9.169
		c-8.014-0.316-16.049-0.091-24.282-0.091C762.427,436.011,762.427,441.542,762.427,447.75z"/>
	<path d="M1071.398,412.203c-2.495,5.458-4.32,10.267-6.893,14.634c-0.912,1.548-3.63,2.805-5.557,2.853
		c-10.906,0.272-21.822,0.117-32.735,0.149c-5.648,0.017-7.675,1.848-7.765,6.856c-0.094,5.214,2.027,7.236,7.812,7.415
		c8.851,0.275,17.814-0.244,26.523,1.007c10.307,1.481,19.074,7.859,18.171,22.38c-0.277,4.451-0.362,9.118-1.793,13.25
		c-2.779,8.022-9.479,12.374-17.527,12.643c-17.431,0.582-34.894,0.179-53.089,0.179c2.463-5.429,4.606-10.539,7.157-15.437
		c0.486-0.933,2.578-1.429,3.936-1.444c10.756-0.119,21.513-0.06,32.27-0.082c6.45-0.013,9.278-2.364,9.379-7.719
		c0.1-5.334-2.755-7.835-9.18-7.888c-6.547-0.053-13.095,0.014-19.643-0.013c-14.218-0.059-23.774-8.623-24.218-21.67
		c-0.562-16.523,7.497-26.551,22.761-27.005C1037.508,411.823,1054.034,412.203,1071.398,412.203z"/>
	<path d="M531.519,493.67c2.586-5.666,4.746-10.786,7.319-15.69c0.472-0.9,2.616-1.279,3.995-1.292
		c10.912-0.105,21.825-0.073,32.738-0.063c3.476,0.003,6.471-0.824,8.118-4.286c2.804-5.889-0.629-11.113-7.72-11.3
		c-7.478-0.198-14.969,0.102-22.447-0.094c-9.669-0.253-18.425-6.351-21.113-14.373c-3.486-10.402-0.646-23.843,7.133-29.013
		c4.086-2.715,9.333-4.914,14.139-5.091c16.648-0.613,33.332-0.236,50.573-0.236c-2.432,5.415-4.455,10.565-7.099,15.374
		c-0.701,1.275-3.303,2.078-5.05,2.109c-11.065,0.198-22.136,0.084-33.205,0.144c-5.277,0.029-7.309,1.951-7.455,6.776
		c-0.15,4.974,2.057,7.296,7.343,7.472c8.857,0.295,17.864-0.44,26.542,0.938c14.674,2.331,20.377,11.765,18.768,28.53
		c-1.203,12.525-10.047,20.08-23.686,20.115c-14.654,0.038-29.309-0.009-43.964-0.019C535.082,493.67,533.715,493.67,531.519,493.67
		z"/>
	<path d="M913.088,493.885c-6.511,0-12.266,0.186-17.994-0.13c-1.441-0.079-2.806-1.749-4.173-2.732
		c-0.218-0.157-0.326-0.541-0.379-0.839c-1.757-9.714-7.91-12.556-16.969-10.884c-0.301,0.056-0.633-0.047-0.932,0.015
		c-6.951,1.434-11.451-1.707-14.646-7.61c-1.076-1.987-2.628-3.716-4.504-6.312c-3.888,8.547-7.618,16.157-10.796,23.992
		c-1.495,3.686-3.576,4.797-7.363,4.575c-5.384-0.316-10.8-0.08-16.889-0.08c4.682-10.596,9.046-20.507,13.44-30.404
		c7.101-15.993,14.253-31.962,21.298-47.979c1.005-2.286,2.236-3.303,4.901-3.17c6.055,0.304,13.271-1.759,17.862,0.882
		c4.224,2.43,5.858,9.651,8.243,14.938c9.306,20.627,18.462,41.323,27.655,62.001C912.268,491.109,912.515,492.149,913.088,493.885z
		 M866.132,436.609c-3.885,8.825-7.31,16.606-10.913,24.792c7.829,0,14.724,0,22.267,0
		C873.715,453.168,870.151,445.385,866.132,436.609z"/>
	<path d="M215.965,493.86c6.464-14.367,12.728-28.166,18.885-42.013c5.3-11.919,10.534-23.869,15.664-35.862
		c1.029-2.406,2.193-3.789,5.067-3.684c5.291,0.193,10.605-0.143,15.885,0.165c1.492,0.087,3.658,1.305,4.233,2.582
		c11.648,25.882,23.109,51.849,34.595,77.804c0.047,0.106-0.084,0.291-0.313,0.998c-5.964,0-12.125,0.137-18.268-0.129
		c-1.084-0.047-2.759-1.617-3.036-2.756c-2.446-10.074-8.7-13.737-18.66-11.665c-6.713,1.397-11.145-1.513-14.2-7.357
		c-1.055-2.018-2.695-3.732-4.502-6.172c-0.96,1.657-1.778,2.851-2.38,4.145c-3.207,6.888-6.464,13.757-9.473,20.731
		c-1,2.318-2.193,3.349-4.808,3.271C228.626,493.737,222.59,493.86,215.965,493.86z M275.144,461.44
		c-3.819-8.46-7.278-16.124-11.207-24.829c-3.949,8.88-7.414,16.669-11.043,24.829C260.56,461.44,267.361,461.44,275.144,461.44z"/>
	<path d="M451.679,412.424c6.432,0,13.084,0,20.306,0c0.076,1.662,0.212,3.3,0.214,4.938c0.019,11.993-0.526,24.021,0.241,35.965
		c0.373,5.81,2.252,11.982,5.09,17.075c5.034,9.035,17.674,8.525,22.321-0.8c2.342-4.7,3.793-10.276,4.002-15.521
		c0.546-13.668,0.184-27.373,0.184-41.468c7.064,0,13.829,0,20.775,0c0.117,0.209,0.533,0.605,0.528,0.996
		c-0.198,16.173,0.421,32.418-0.926,48.497c-1.13,13.49-8.255,24.378-21.666,29.04c-13.465,4.68-26.763,3.884-38.381-5.507
		c-7.495-6.058-11.926-14.523-12.437-23.764C451.032,445.623,451.679,429.287,451.679,412.424z"/>
	<path d="M285.544,412.369c6.628,0,12.521-0.287,18.349,0.198c1.487,0.124,3.283,2.458,4.068,4.174
		c7.548,16.501,14.908,33.088,22.334,49.645c0.309,0.689,0.737,1.325,1.587,2.832c1.761-3.531,3.326-6.424,4.675-9.415
		c6.516-14.443,13.05-28.88,19.391-43.399c1.296-2.968,2.824-4.331,6.23-4.126c5.272,0.317,10.578,0.084,16.621,0.084
		c-1.204,2.954-2.15,5.486-3.252,7.947c-9.703,21.656-19.866,43.122-28.908,65.05c-2.898,7.029-6.436,8.553-13.518,8.849
		c-8.712,0.363-12.974-2.155-16.365-10.492c-9.112-22.407-19.458-44.313-29.3-66.423
		C286.892,416.024,286.446,414.705,285.544,412.369z"/>
	<path d="M178.749,460.978c4.687,11.122,9.043,21.46,13.765,32.666c-6.868,0-13.138,0.068-19.402-0.087
		c-0.767-0.019-1.843-1.083-2.206-1.912c-11.486-26.252-22.9-52.535-34.593-79.428c6.782,0,13.091-0.161,19.378,0.145
		c1.157,0.056,2.689,1.799,3.259,3.107c6.126,14.062,12.094,28.193,18.501,43.234c1.777-3.603,3.259-6.526,4.672-9.483
		c5.277-11.043,10.638-22.048,15.719-33.181c1.269-2.781,2.619-4.091,5.845-3.915c5.433,0.297,10.894,0.081,16.993,0.081
		c-1.848,4.253-3.467,8.165-5.233,12.01c-5.238,11.408-10.455,22.828-15.918,34.128c-0.608,1.258-2.711,2.43-4.187,2.516
		C190.122,461.163,184.873,460.978,178.749,460.978z"/>
	<path d="M690.825,493.41c0-21.299,0-42.12,0-63.48c-8.117,0-15.94,0-24.284,0c0-6.152,0-11.762,0-17.561
		c24.389,0,48.331,0,72.868,0c-2.407,5.202-4.44,10.203-7.058,14.877c-0.755,1.347-3.154,2.376-4.861,2.475
		c-5.391,0.313-10.812,0.115-16.672,0.115c0,21.412,0,42.351,0,63.574C704.072,493.41,697.784,493.41,690.825,493.41z"/>
	<path d="M1125.258,429.837c-7.311,0-13.836-0.141-20.35,0.059c-3.294,0.101-4.419-1.055-4.243-4.316
		c0.232-4.301,0.057-8.623,0.057-13.151c24.491,0,48.42,0,72.908,0c-2.442,5.226-4.589,10.341-7.257,15.169
		c-0.671,1.215-2.982,2.052-4.584,2.128c-5.418,0.259-10.857,0.099-16.749,0.099c0,21.285,0,42.227,0,63.52
		c-6.736,0-13.016,0-19.781,0C1125.258,472.399,1125.258,451.459,1125.258,429.837z"/>
	<path d="M99.368,412.2c6.892,0,12.83-0.31,18.697,0.202c1.617,0.141,3.659,2.462,4.423,4.247
		c8.479,19.812,16.744,39.716,25.07,59.593c2.327,5.557,4.666,11.109,7.319,17.423c-6.764,0-12.911,0.239-19.011-0.188
		c-1.325-0.093-2.95-2.375-3.647-3.989c-8.353-19.343-16.561-38.748-24.795-58.142C104.83,425.239,102.276,419.116,99.368,412.2z"/>
	<path d="M1095.757,493.688c-5.892,0-11.617-0.056-17.34,0.024c-2.837,0.04-2.765-1.776-2.762-3.746
		c0.018-9.957,0.004-19.915,0.004-29.872c-0.001-14.469,0.092-28.94-0.067-43.407c-0.037-3.381,0.8-4.759,4.412-4.555
		c5.106,0.289,10.241,0.073,15.754,0.073C1095.757,439.269,1095.757,466.087,1095.757,493.688z"/>
	<path d="M381.703,429.088c0-5.356,0-10.616,0-16.305c21.722,0,43.276,0,65.618,0c-2.726,5.395-5.278,10.607-8.028,15.713
		c-0.396,0.736-1.74,1.36-2.647,1.362c-17.894,0.032-35.789-0.033-53.684-0.1C382.699,429.756,382.435,429.487,381.703,429.088z"/>
	<path d="M381.528,476.827c20.945,0,41.149,0,61.65,0c0,5.559,0,10.914,0,16.533c-1.301,0.116-2.504,0.317-3.707,0.318
		c-17.772,0.013-35.545-0.105-53.315,0.078c-3.782,0.039-4.967-1.14-4.692-4.81C381.751,485.1,381.528,481.215,381.528,476.827z"/>
	<path d="M438.205,460.834c-18.792,0-37.274,0-56.216,0c0-5.506,0-10.838,0-16.524c18.735,0,37.305,0,56.216,0
		C438.205,449.624,438.205,454.971,438.205,460.834z"/>
</g>
</svg>
