<?xml version="1.0" encoding="utf-8"?>
<!-- Generator: Adobe Illustrator 17.0.0, SVG Export Plug-In . SVG Version: 6.00 Build 0)  -->
<!DOCTYPE svg PUBLIC "-//W3C//DTD SVG 1.1//EN" "http://www.w3.org/Graphics/SVG/1.1/DTD/svg11.dtd">
<svg version="1.1" id="Layer_1" xmlns="http://www.w3.org/2000/svg" xmlns:xlink="http://www.w3.org/1999/xlink" x="0px" y="0px"
	 width="566.929px" height="566.929px" viewBox="0 0 566.929 566.929" enable-background="new 0 0 566.929 566.929"
	 xml:space="preserve">
<g>
	<path fill="#C0BFBF" d="M-278.684-1096.531c-0.002,141.803-114.702,256.5-256.506,256.5
		c-142.227,0-256.582-114.821-256.504-257.549c0.077-141.023,115.273-255.593,256.857-255.461
		C-393.238-1352.908-278.683-1238.193-278.684-1096.531z"/>
	<g>
		<path fill="#FCFCFC" d="M-601.98-1075.776c0.001-7.088-0.054-14.176,0.013-21.263c0.114-12.058,3.337-15.192,15.68-15.323
			c4.832-0.051,9.799-0.726,14.47,0.143c9.799,1.822,15.73-2.987,21.075-10.155c6.308-8.459,13.713-15.94,15.28-27.359
			c1.113-8.11,5.875-14.581,15.438-14.331c9.889,0.258,18.368,7.38,20.006,16.646c1.013,5.728,1.461,11.724-0.336,17.262
			c-2.105,6.486,0.318,8.203,6.219,7.803c1.923-0.13,3.869-0.068,5.797,0.041c13.017,0.733,21.789,10.431,19.636,23.371
			c-2.989,17.963-5.631,36.059-11.596,53.407c-3.453,10.042-10.94,15.078-20.988,15.918c-10.919,0.913-22.148,1.363-32.506-2.735
			c-16.529-6.539-33.455-7.993-51.004-7.188c-13.852,0.636-17.099-3.153-17.178-16.907
			C-602.011-1062.889-601.981-1069.333-601.98-1075.776z M-561.474-1079.565c0,11.593-0.03,19.335,0.015,27.078
			c0.017,2.894-0.202,6.102,3.391,7.22c18.761,5.839,37.331,12.907,57.596,10.037c6.824-0.967,13.041-3.928,14.432-11.023
			c1.66-8.462,4.893-16.456,6.703-24.903c1.782-8.319,1.159-16.946,4.352-25.182c4.238-10.931-2.721-19.952-14.481-20.443
			c-5.153-0.215-10.323-0.131-15.483-0.046c-4.993,0.082-6.535-1.67-3.918-6.34c3.954-7.056,4.627-14.717,3.422-22.546
			c-1.279-8.308-6.877-12.309-14.728-12.781c-7.758-0.466-9.747,5.79-10.343,11.586c-1.149,11.177-7.451,19.726-15.131,26.229
			C-560.128-1108.418-565.279-1093.901-561.474-1079.565z"/>
		<path fill="#C0BFBF" d="M-561.474-1079.565c-3.805-14.337,1.346-28.854,15.827-41.115c7.681-6.503,13.982-15.052,15.131-26.229
			c0.596-5.796,2.585-12.052,10.343-11.586c7.852,0.472,13.449,4.474,14.728,12.781c1.206,7.829,0.532,15.49-3.422,22.546
			c-2.617,4.67-1.075,6.422,3.918,6.34c5.16-0.084,10.33-0.169,15.483,0.046c11.76,0.491,18.719,9.512,14.481,20.443
			c-3.193,8.236-2.571,16.863-4.352,25.182c-1.809,8.447-5.043,16.441-6.703,24.903c-1.392,7.095-7.609,10.056-14.432,11.023
			c-20.265,2.871-38.835-4.197-57.596-10.037c-3.593-1.118-3.374-4.326-3.391-7.22
			C-561.504-1060.229-561.474-1067.972-561.474-1079.565z"/>
	</g>
</g>
<g>
	<path d="M-935.899-1096.531c-0.002,141.803-114.702,256.5-256.506,256.5c-142.227,0-256.582-114.821-256.504-257.549
		c0.077-141.023,115.273-255.593,256.857-255.461C-1050.453-1352.908-935.898-1238.193-935.899-1096.531z M-1120.123-1130.96
		c-0.34-0.043-0.68-0.086-1.02-0.13c0-3.131,0.146-6.273-0.072-9.39c-0.086-1.235-0.693-2.705-1.562-3.559
		c-2.051-2.016-4.316-3.845-6.646-5.542c-11.402-8.303-23.895-14.555-37.367-18.605c-11.293-3.395-22.402-7.778-34.808-4.757
		c-21.964,5.349-42.712,13.045-59.981,28.194c-1.265,1.11-2.208,3.236-2.284,4.936c-0.264,5.882-0.174,11.786-0.046,17.678
		c0.34,15.622,3.443,30.759,9.311,45.182c2.938,7.222,6.661,14.247,10.909,20.79c11.889,18.31,28.919,29.906,49.635,36.285
		c0.922,0.284,2.084,0.303,2.999,0.015c25.796-8.128,44.691-24.377,56.7-48.575c4.567-9.202,7.852-18.926,9.578-29.032
		C-1122.881-1108.574-1121.646-1119.792-1120.123-1130.96z"/>
	<path fill="#FFFFFF" d="M-1120.123-1130.96c-1.523,11.169-2.758,22.386-4.654,33.491c-1.726,10.105-5.011,19.829-9.578,29.032
		c-12.01,24.198-30.904,40.447-56.7,48.575c-0.915,0.288-2.077,0.269-2.999-0.015c-20.716-6.378-37.746-17.975-49.635-36.285
		c-4.248-6.543-7.971-13.568-10.909-20.79c-5.868-14.423-8.97-29.559-9.311-45.182c-0.128-5.892-0.218-11.796,0.046-17.678
		c0.076-1.7,1.019-3.826,2.284-4.936c17.269-15.15,38.017-22.845,59.981-28.194c12.406-3.021,23.516,1.362,34.808,4.757
		c13.472,4.05,25.964,10.302,37.367,18.605c2.33,1.697,4.595,3.526,6.646,5.542c0.869,0.855,1.476,2.324,1.562,3.559
		c0.218,3.116,0.072,6.258,0.072,9.39C-1120.803-1131.047-1120.463-1131.004-1120.123-1130.96z M-1132.342-1133.135
		c0.843-2.814-1.803-5.526-5.722-8.216c-12.284-8.435-25.831-13.896-40.009-18.034c-7.946-2.319-15.903-4.19-24.179-1.429
		c-3.06,1.021-6.26,1.616-9.339,2.587c-14.428,4.551-28.215,10.409-39.88,20.347c-0.966,0.823-1.804,2.527-1.709,3.745
		c0.704,9.052,1.385,18.122,2.591,27.116c2.845,21.208,10.504,40.298,25.81,55.76c8.514,8.601,18.592,14.817,29.993,18.837
		c1.208,0.426,2.817,0.482,4.013,0.063c16.345-5.714,29.601-15.712,39.52-29.828c9.877-14.055,14.453-30.281,17.296-46.944
		C-1132.739-1116.264-1132.929-1123.638-1132.342-1133.135z"/>
	<path d="M-1132.342-1133.135c-0.588,9.497-0.398,16.871-1.615,24.005c-2.843,16.664-7.419,32.889-17.296,46.944
		c-9.919,14.116-23.174,24.114-39.52,29.828c-1.197,0.418-2.805,0.363-4.013-0.063c-11.401-4.02-21.479-10.236-29.993-18.837
		c-15.306-15.463-22.965-34.552-25.81-55.76c-1.207-8.995-1.887-18.064-2.591-27.116c-0.095-1.218,0.744-2.923,1.709-3.745
		c11.665-9.938,25.452-15.797,39.88-20.347c3.079-0.971,6.279-1.566,9.339-2.587c8.276-2.761,16.233-0.89,24.179,1.429
		c14.178,4.138,27.725,9.599,40.009,18.034C-1134.145-1138.661-1131.498-1135.949-1132.342-1133.135z M-1192.354-1156.416
		c0,39.602,0,78.664,0,117.8c7.869-2.167,18.423-8.531,25.155-14.688c14.071-12.869,21.809-29.209,25.19-47.549
		c1.857-10.072,1.986-20.46,2.964-30.699c0.216-2.265-0.748-3.563-2.55-4.822c-12.128-8.473-25.61-13.851-39.804-17.61
		C-1184.942-1154.922-1188.558-1155.582-1192.354-1156.416z"/>
	<path fill="#FFFFFF" d="M-1192.354-1156.416c3.796,0.834,7.412,1.494,10.955,2.432c14.194,3.759,27.676,9.137,39.804,17.61
		c1.802,1.259,2.766,2.557,2.55,4.822c-0.978,10.239-1.107,20.627-2.964,30.699c-3.381,18.34-11.119,34.68-25.19,47.549
		c-6.732,6.157-17.286,12.521-25.155,14.688C-1192.354-1077.752-1192.354-1116.814-1192.354-1156.416z"/>
</g>
<g>
	<path fill="#FFFFFF" stroke="#000000" stroke-width="5" stroke-miterlimit="10" d="M-1586.682-1096.531
		c-0.002,141.803-114.702,256.5-256.506,256.5c-142.227,0-256.582-114.821-256.504-257.549
		c0.077-141.023,115.273-255.593,256.857-255.461C-1701.236-1352.908-1586.681-1238.193-1586.682-1096.531z"/>
	<g>
		<path d="M-1843.099-1016.693c-43.085,0.93-81.343-36.285-79.992-82.276c1.235-42.011,37.286-78.756,82.516-77.39
			c42.221,1.276,78.984,37.679,77.267,83.033C-1764.905-1051.125-1800.794-1015.994-1843.099-1016.693z M-1776.771-1096.217
			c0.083-36.11-30.137-66.552-66.173-66.66c-36.084-0.109-66.578,30.163-66.661,66.173c-0.083,36.11,30.137,66.552,66.173,66.66
			C-1807.348-1029.936-1776.853-1060.207-1776.771-1096.217z"/>
		<path fill="#FFFFFF" d="M-1776.771-1096.217c-0.083,36.01-30.577,66.281-66.661,66.173c-36.036-0.108-66.255-30.551-66.173-66.66
			c0.082-36.01,30.577-66.281,66.661-66.173C-1806.908-1162.769-1776.688-1132.327-1776.771-1096.217z M-1883.138-1056.824
			c0.895-0.203,1.284-0.211,1.594-0.372c16.542-8.57,33.091-17.128,49.587-25.787c1.109-0.582,2.052-1.805,2.667-2.948
			c3.463-6.431,6.82-12.92,10.179-19.406c5.235-10.109,10.443-20.232,15.875-30.761c-0.893,0.202-1.283,0.211-1.594,0.372
			c-16.542,8.57-33.091,17.128-49.586,25.787c-1.109,0.582-2.052,1.805-2.667,2.948c-3.463,6.431-6.82,12.92-10.179,19.406
			C-1872.498-1077.476-1877.706-1067.353-1883.138-1056.824z"/>
		<path d="M-1883.138-1056.824c5.432-10.529,10.64-20.652,15.875-30.761c3.359-6.487,6.716-12.975,10.179-19.406
			c0.615-1.143,1.558-2.366,2.667-2.948c16.496-8.659,33.044-17.217,49.586-25.787c0.311-0.161,0.7-0.17,1.594-0.372
			c-5.432,10.529-10.64,20.652-15.875,30.761c-3.359,6.487-6.716,12.975-10.179,19.406c-0.615,1.143-1.558,2.366-2.667,2.948
			c-16.496,8.659-33.044,17.218-49.587,25.787C-1881.854-1057.035-1882.243-1057.027-1883.138-1056.824z M-1835.946-1096.359
			c0.075-3.512-3.547-7.198-7.139-7.267c-3.564-0.068-7.267,3.494-7.343,7.063c-0.075,3.512,3.546,7.198,7.139,7.267
			C-1839.726-1089.228-1836.022-1092.79-1835.946-1096.359z"/>
		<path fill="#FFFFFF" d="M-1835.946-1096.359c-0.076,3.569-3.779,7.131-7.343,7.063c-3.593-0.069-7.214-3.755-7.139-7.267
			c0.076-3.569,3.78-7.131,7.343-7.063C-1839.493-1103.557-1835.872-1099.871-1835.946-1096.359z"/>
	</g>
</g>
<g>
	<path fill="#010202" d="M98.764-1274.071c15.863-6.816,31.64-12.52,47.95-16.524c0.555-1.076,1.082-2.098,1.498-2.906
		c-2.204-6.654-5.62-13.065-2.182-20.312c0.075-5.553,0.646-11.19-2.895-16.099c-0.426-0.588-0.689-1.294-1.39-2.644
		c7.568,0,14.497,0,21.428,0c3.331,2.161,7.113,0.633,10.593,1.301c5.48,1.053,11.207,1.788,16.23,4.013
		c6.708,2.97,13.393,6.267,18.56,11.979c4.054,4.483,6.429,9.729,7.752,15.329c1.113,4.711,3.313,9.318,2.613,14.384
		c1.584,2.086,1.372,4.465,1.116,6.912c-3.861,0.864-7.652,3.271-11.772,0.55c-6.444,3.76-7.37,10.269-8.16,16.894
		c-4.175,0.1-5.914,4.289-9.594,5.428c0,1.995,0,3.788,0,5.799c-1.596,0-2.978,0-4.232,0c-0.798,1.391-1.47,2.563-2.125,3.699
		c-7.183,1.37-11.767-4.541-18.221-6.147c1.789,4.479,4.268,8.01,7.703,11.034c-1.467,2.262-2.726,4.205-4.19,6.465
		c7.524,11.201,16.141,22.237,18.411,36.335c1.006,0.508,2.035,0.754,2.675,1.391c5.841,5.811,11.298,11.899,16.399,18.436
		c4.548,5.828,9.822,11.417,15.928,15.214c2.849,0.816,5.681-0.961,7.706,1.227c3.819-1.419,7.562-2.81,12.545-4.661
		c0.647,0,2.699,0,4.834,0c4.627,4.543,9.913,8.793,9.232,16.894c-3.985,3.445-8.229,7.115-12.648,10.933
		c1.302,2.543,2.517,4.919,4.042,7.898c0,2.176-0.298,5.077,0.063,7.896c0.734,5.718-2.594,10.719-2.543,16.274
		c-2.49,3.701-4.019,8.081-7.454,11.097c-2.309,2.03-4.25,4.449-4.621,7.328c-0.344,2.685-2.086,4.542-2.752,6.979
		c2.092,3.935,3.804,7.926,3.856,12.628c0.026,2.344,1.549,4.659,2.32,7.011c0.95,2.9,1.821,5.823,2.988,9.577
		c0.918-2.571,1.21-4.276,0.077-5.821c-1.489-2.029-0.455-3.358,1.148-4.813c1.638,0,3.433,0,5.287,0
		c0.544,2.04,1.315,4.049,1.57,6.122c0.273,2.224,0.062,4.506,0.062,7.348c1.364-0.402,2.523-0.744,3.991-1.175
		c0.518,0.3,1.338,0.777,2.346,1.364c1.066-0.917,2.105-1.811,3.345-2.876c0.617,0.351,1.28,0.729,2.346,1.337
		c0.481-0.746,1.115-1.732,1.895-2.946c2.99,2.157,5.733,2.549,8.435,0.406c0.727,0.512,1.358,0.955,1.987,1.402
		c1.932-0.367,3.634-2.582,5.948-0.24c0.584,0.593,2.822-0.445,4.867-0.845c0.148,0.115,0.755,0.587,1.596,1.242
		c0.877-0.436,1.897-0.942,3.435-1.704c0.555,0.944,1.179,2.005,1.317,2.241c3.46,0.635,5.943,1.091,8.644,1.587
		c0.214-0.196,0.66-0.604,1.107-1.014c3.942,3.515,8.848,4.514,12.85,5.018c1.95,1.575,3.069,2.847,4.477,3.518
		c1.531,0.73,3.353,0.823,5,1.347c0.895,0.284,2.171,0.692,2.446,1.378c1.479,3.672,5.795,3.383,8.023,5.962
		c0.263,0.305,1.185,0.041,1.805,0.041c0.584,0.995,0.988,2.173,1.787,2.941c1.101,1.056,3.467,1.698,3.578,2.705
		c0.283,2.561,2.057,1.263,3.037,1.847c0.906,0.54,1.933,1.72,1.992,2.673c0.157,2.529,1.486,3.567,3.685,3.55
		c0.106,1.374,0.18,2.349,0.26,3.357c1.171,0.138,2.144,0.253,3.342,0.395c0,1.363,0,2.734,0,4.233
		c1.237,0.812,2.365,1.552,3.788,2.485c0.061,0.56,0.168,1.533,0.258,2.361c1.231,0.745,2.386,1.442,3.593,2.171
		c0,1.371-0.5,3.232,0.086,3.687c2.528,1.96,1.825,5.757,4.777,7.588c0,1.656,0,3.451,0,5.024c0.948,0.948,1.674,1.674,2.474,2.474
		c-0.351,0.415-0.708,0.836-1.182,1.397c0.738,0.605,1.511,1.241,2.017,1.657c0.238,0.73,0.451,1.091,0.462,1.457
		c0.075,2.564,0.351,5.012,1.04,7.573c0.725,2.702,2.596,5.77,0.316,8.882c-0.385,0.525,0.634,2.081,1.108,3.467
		c-0.131,0.225-0.421,0.719-0.949,1.622c0.613,0.739,1.412,1.7,2.453,2.953c-0.906,1.153-1.853,2.362-2.967,3.782
		c0.456,1.201,0.929,2.448,1.533,4.038c-0.306,0.399-0.776,1.008-1.268,1.648c0.47,1.566,0.958,3.192,1.478,4.925
		c-1.04,0.377-1.755,0.635-2.951,1.066c0.452,1.572,0.913,3.18,1.478,5.144c-0.777,0.576-1.76,1.304-2.68,1.986
		c0.699,0.919,1.159,1.522,2.109,2.77c-1.244,0.618-2.36,1.17-3.129,1.552c0,2.531,0,4.322,0,6.255
		c-0.746,0.152-1.31,0.267-2.406,0.489c0.4,0.75,0.77,1.441,1.32,2.472c-1.237,1.367-2.563,2.833-3.948,4.364
		c0,1.158,0,2.377,0,3.741c-0.577,0.15-1.131,0.293-2.135,0.554c-0.138,1.266-0.305,2.79-0.473,4.311
		c-0.702,0.29-1.454,0.505-2.093,0.9c-0.512,0.315-1.339,0.977-1.257,1.265c0.919,3.213-4.001,4.304-2.302,7.845
		c-3.483,0.035-5.842,1.07-5.291,4.75c-0.891,0.369-1.92,0.46-2.243,0.985c-2.317,3.756-5.893,5.92-9.414,8.333
		c-1.546,1.06-1.631,3.665-4.643,3.736c-1.575,0.037-3.122,2.23-4.639,3.504c-1.113,0.935-2.155,1.957-3.95,3.604
		c-0.657,0-2.451,0-2.792,0c-3.166,1.525-5.057,2.437-6.884,3.318c-0.03,0.394-0.062,0.794-0.112,1.456c-1.752,0-3.539,0-5.115,0
		c-1.123,1.069-2.003,1.908-3.114,2.963c-0.725-0.419-1.515-0.874-2.385-1.377c-0.268,0.729-0.53,1.442-0.887,2.417
		c-4.253-0.252-8.445,0.365-12.451,2.269c-0.815,0.387-2.186-0.395-3.302-0.626c-0.959-0.199-1.925-0.382-2.802-0.554
		c-0.833,0.839-1.558,1.568-2.293,2.308c-1.951-1.326-3.84-1.36-5.746,0.372c-1.477-0.792-2.993-1.604-4.627-2.481
		c-1.37,3.503-4.495-1.161-6.302,1.149c-2.344-0.798-4.688-1.596-7.079-2.411c-0.374,0.342-0.817,0.749-1.26,1.157
		c-0.729-0.729-1.457-1.457-2.136-2.136c-1.244,0.389-2.461,0.771-3.93,1.231c-0.78-1.06-1.504-2.046-2.029-2.76
		c-1.721,0-2.951,0-4.158,0c-0.883-0.829-1.745-1.637-2.497-2.343c-0.736,0.478-1.378,0.895-1.848,1.201
		c-2.409-0.867-2.943-4.011-5.573-3.775c-2.482,0.224-2.977-3.519-5.81-2.629c-0.524,0.164-1.713-0.995-2.239-1.781
		c-1.166-1.745-2.977-1.784-4.667-2.07c-0.278-0.803-0.526-1.519-0.762-2.204c-0.96,0-1.782,0-2.81,0
		c-1.026-1.536-2.109-3.162-3.185-4.773c-1.075-0.119-2.049-0.225-3.235-0.353c0-0.997,0-1.967,0-3.137
		c-1.307-0.236-2.438-0.439-3.882-0.699c0.39-2.696-1.055-3.945-3.435-5.246c-1.766-0.965-2.878-3.346-5.049-4.469
		c0-1.456,0-2.837,0-4.153c-2.636-0.904-4.582-2.101-3.879-4.851c-1.426-0.881-2.576-1.59-3.741-2.308
		c0.552-0.787,0.976-1.393,1.721-2.453c-3.757-1.879-3.562-6.418-6.546-8.859c2.45-2.468-0.41-3.997-0.954-5.983
		c-0.582-2.117-0.74-4.326-3.395-5.295c0.753-1.118,1.18-1.755,1.858-2.759c-0.673-1.381-1.491-3.057-2.33-4.777
		c0.272-0.31,0.667-0.761,1.304-1.486c-0.928-1.203-1.868-2.421-2.784-3.609c1.414-3.209,1.414-3.209,0.042-7.057
		c0.419-0.451,0.833-0.897,1.296-1.395c-0.137-1.79-2.38-3.213-0.771-5.426c1.245-1.714,1.425-3.73-0.353-5.465
		c-0.04-0.038,0.953-0.834,0.938-1.258c-0.044-1.294-0.345-2.58-0.609-4.278c0.232-0.232,0.961-0.96,1.961-1.961
		c0-0.925-0.022-2.124,0.006-3.321c0.025-1.007-0.289-2.528,0.231-2.926c1.68-1.286-0.078-1.934-0.365-2.786
		c1.296-2.02,2.532-3.945,3.609-5.628c-0.446-1.003-0.814-1.829-1.292-2.901c0.986-0.205,1.548-0.321,2.584-0.535
		c-0.662-3.676,2.112-6.156,3.755-9.176c-0.311-0.355-0.683-0.782-1.145-1.311c0.823-0.3,1.537-0.561,2.47-0.901
		c0-1.299,0-2.68,0-4.059c1.779-1.189,3.408-2.277,4.962-3.314c0-1.003,0-1.823,0-2.815c0.672-0.229,1.384-0.47,2.313-0.785
		c0-1.307,0-2.687,0-4.191c0.731-0.179,1.307-0.488,1.831-0.416c1.777,0.24,2.585-0.951,3.245-2.185
		c0.478-0.895-0.136-1.847,1.153-2.956c2.254-1.936,3.884-4.553,7.451-5.029c0.044-0.946,0.091-1.92,0.159-3.314
		c0.913-0.057,1.874-0.119,2.801-0.177c0.276-0.257,0.725-0.473,0.798-0.778c0.403-1.708,1.17-2.897,3.157-2.904
		c2.239-0.007,2.969-1.596,3.239-3.487c1.133-0.13,2.107-0.242,3.072-0.353c0.3-0.733,0.591-1.436,0.969-2.358
		c1.701,0,3.494,0,4.946,0c2.443-1.605,2.671-4.049,1.685-5.6c-3.351-5.266-3.902-11.53-6.738-17.013
		c-3.572-6.903-5.098-9.507-10.955-13.106c-0.457,0.403-0.907,0.801-1.468,1.296c-4.477-1.249-2.909-6.596-5.92-8.791
		c-2.563-0.248-4.842,0.869-6.229,2.69c-2.727,3.581-6.945,5.654-9.216,9.633c-2.134,3.736-5.232,6.769-7.517,10.452
		c-2.695,4.342-6.25,8.157-9.487,12.152c-6.688,8.253-13.242,16.594-19.262,25.363c-2.904,4.232-6.418,8.039-9.541,12.125
		c-4.636,6.068-8.996,12.383-13.751,18.31c-3.723,4.642-7.181,9.523-11.086,14.046c-4.069,4.713-7.564,9.923-11.69,15.42
		c1.423,0.589,2.225,0.919,3.413,1.412c-0.318,0.818-0.638,1.647-1.042,2.692c0.516,0.25,1.274,0.615,2.317,1.119
		c-0.539,1.194-1.073,2.379-1.687,3.739c0.934,0.316,1.646,0.556,2.692,0.909c-0.429,0.605-0.806,1.139-1.391,1.967
		c0.44,0.697,0.945,1.499,1.538,2.438c-0.467,0.939-0.974,1.956-1.479,2.97c0.492,0.575,0.881,1.028,1.316,1.536
		c-0.781,0.834-1.591,1.699-2.622,2.8c0.413,0.713,0.871,1.503,1.381,2.382c-0.731,0.264-1.446,0.524-2.379,0.861
		c0,1.301,0,2.681,0,3.977c-0.927,0.361-1.636,0.636-2.697,1.049c0.411,0.895,0.792,1.722,1.317,2.863
		c-0.966,0.143-2.04,0.304-3.352,0.499c0,0.925,0,1.887,0,3.351c4.701,3.23,11.272,3.923,15.766,8.072
		c0.634,5.208-3.83,6.505-7.085,9.613c-3.161-0.446-6.842-0.967-10.514-1.488c-0.759,1.096-1.362,2.34-2.306,3.215
		c-0.795,0.738-1.986,1.048-3.171,1.63c-1.841-2.37-3.792-4.884-5.465-7.041c-6.984-1.05-12.934-3.709-18.969-6.129
		c-2.889-0.358-5.767-0.366-8.665,0.86c-5.29,2.235-11.122,2.697-16.537,4.797c-2.191,0.85-3.468,2-5.068,3.279
		c0.581,0.581,0.872,0.871,1.519,1.519c-0.64,0.465-1.243,0.998-1.932,1.367c-0.493,0.264-1.103,0.311-1.816,0.494
		c-0.656,1.906-1.338,3.892-1.988,5.784c-0.615,0.128-1.178,0.243-1.76,0.363c-0.121,1.112-0.227,2.086-0.348,3.203
		c-1.271,0.807-2.601,1.612-3.888,2.479c-1.182,0.796-0.72,2.91-2.964,3.174c-0.848,0.1-1.428,2.463-2.423,4.348
		c-1.86-0.121-3.975,0.61-4.438,3.526c-3.012,0.142-3.111,3.197-4.939,4.999c-1.155,0-2.523,0-3.719,0
		c-0.99,1.526-1.806,2.788-2.658,4.101c-0.468-0.468-0.76-0.759-1.262-1.262c-0.759,1.169-1.507,2.324-2.339,3.604
		c-1.285,0-3.138-0.502-3.599,0.086c-1.967,2.516-5.757,1.819-7.589,4.771c-1.654,0-3.45,0-4.144,0
		c-3.473,1.921-5.999,3.319-8.564,4.737c-1.108-1.716-3.126-0.609-4.689-1.012c-0.865,0.864-1.594,1.593-2.44,2.44
		c-0.395-0.314-0.804-0.641-1.464-1.165c-1.832-0.064-4.011,3.204-6,0.007c-2.211,1.126-4.205,1.743-6.011,1.421
		c-2.126-0.381-3.89,2.484-6.497,0.065c-1.395-1.296-4.71,0.502-6.701-1.709c-3.051,3.157-5.345,0.495-8.145-0.727
		c-0.183,0.148-0.597,0.484-0.977,0.793c-2.459-0.463-4.936-0.93-7.793-1.469c-0.085-0.245-0.332-0.953-0.581-1.657
		c-3.46-0.614-6.917-1.228-10.357-1.841c-0.655-1.107-1.344-2.269-2.098-3.54c-1.505,0-2.893,0-4.181,0
		c-0.339-0.934-0.599-1.648-0.984-2.706c-0.954,0.474-1.779,0.886-2.83,1.409c-0.824-1.269-1.769-2.726-2.663-4.102
		c-2.706-1.22-5.297-2.386-8.562-3.858c-0.369-0.803-1.075-2.341-1.895-4.131c-0.772,0-1.742,0-2.606,0
		c-1.17-2.343-1.789-5.05-5.417-3.63c0-1.404,0-2.366,0-3.461c-1.243-0.798-2.381-1.527-3.749-2.405
		c-0.074-0.634-0.188-1.606-0.329-2.801c-0.964,0-1.931,0-3.337,0c-0.101-1.545-0.188-2.895-0.293-4.51
		c-2.11-2.416-4.367-4.997-7.28-8.331c0-0.655,0-2.448,0-4.383c-0.746-0.152-1.31-0.267-1.759-0.358
		c-0.917-1.872-1.846-3.765-3.204-6.535c0-0.572,0-2.215,0-3.83c-0.956-1.022-1.89-2.019-2.729-2.915
		c0.584-1.043,0.935-1.668,1.376-2.453c-0.618-0.127-1.181-0.241-1.823-0.372c-0.142-0.232-0.495-0.546-0.523-0.89
		c-0.21-2.544,0.273-5.057-1.116-7.594c-0.743-1.357-0.635-3.32-1.195-5.029c-0.449-1.367,0.74-3.269,1.393-5.627
		c-0.908-0.465-2.015-1.031-3.958-2.023c1.97-1.116,2.985-1.692,4.689-2.658c-1.755-0.54-2.427-0.746-3.095-0.953
		c-1.698-2.721,0.834-3.909,1.774-5.155c-0.295-2.057-0.662-3.722-0.698-5.391c-0.011-0.505,1.131-0.785,0.268-1.787
		c-1.271-1.477-0.829-2.994,0.68-4.175c2.099-1.643,1.527-3.353,0.109-5.054c0.767-0.767,1.495-1.495,1.989-1.989
		c-0.399-1.41-0.754-2.664-1.157-4.086c0.935-0.321,1.638-0.562,2.555-0.876c0-1.696,0-3.5,0-5.086
		c0.946-0.946,1.673-1.673,2.526-2.526c-0.347-0.549-0.715-1.134-1.347-2.135c1.003-0.913,2.067-1.883,3.131-2.854
		c0.116,0.129,0.234,0.255,0.35,0.383c0.146-0.145,0.439-0.324,0.415-0.432c-0.644-2.88,1.787-4.674,2.392-7.028
		c0.389-1.516,0.892-2.691,2.023-3.482c1.703-1.191,1.845-2.946,2.076-4.663c0.798-0.279,1.516-0.529,2.211-0.772
		c0-0.948,0-1.766,0-2.805c1.533-1.024,3.154-2.107,4.767-3.183c0.121-1.071,0.231-2.045,0.366-3.232c0.971,0,1.935,0,3.111,0
		c0.246-1.306,0.458-2.435,0.72-3.829c2.762,0.489,4.663-1.224,5.774-3.303c1.064-1.988,3.29-2.876,3.772-5.233
		c1.609,0,2.982,0,4.337,0c0.722-3.146,2.771-4.309,5.417-4.158c0.19-0.933,0.305-1.495,0.434-2.125c1.359,0,2.565,0,4.163,0
		c0.987-1.291,2.099-2.744,3.213-4.197c0.707,0.707,0.998,1,1.642,1.642c0.858-1.161,1.687-2.286,2.774-3.76
		c0.833,0.19,2.098,0.481,3.671,0.84c1.068-0.531,2.605-1.942,4.086-1.884c2.341,0.089,2.969-1.91,4.855-2.766
		c0.645,0.393,1.456,0.887,2.393,1.459c1.456-0.762,2.978-1.562,4.562-2.392c0.298,0.272,0.741,0.675,1.47,1.338
		c1.175-0.876,2.409-1.797,3.887-2.899c1.874,1.4,4.003,2.314,6.257-0.086c0.659,0.487,1.276,0.943,2.166,1.599
		c1.803-0.547,3.871-2.669,6.121-0.168c0.368,0.409,1.678,0.293,2.387,0.009c1.574-0.633,2.969-0.656,4.59-0.043
		c0.685,0.259,1.755-0.497,2.968-0.898c0.374,0.468,1,1.248,1.444,1.804c2.806,0.444,5.27,0.834,8.301,1.313
		c0.23-0.133,1.049-0.613,2.008-1.173c1.53,1.525,2.935,2.926,4.306,4.292c1.189-0.686,2.009-1.159,3.294-1.898
		c0.397,0.959,0.725,1.755,1.221,2.952c0.811-0.299,1.64-0.603,3.037-1.117c1.133,1.462,2.574,3.32,3.842,4.955
		c1.312-0.869,1.95-1.291,2.977-1.971c0.486,1.134,0.834,1.946,1.224,2.857c1.166,0,2.375,0,3.472,0
		c1.367,1.795,2.655,3.489,3.845,5.054c1.11,0,1.929,0,2.884,0c0.238,0.689,0.488,1.407,0.862,2.485
		c2.815-0.495,4.807,0.691,4.907,5.584c4.143-6.214,7.866-10.555,12.34-13.694c4.588-3.219,7.751-7.694,12.428-11.244
		c-1.905-5.414-3.584-10.908-5.821-16.167c-0.832-1.955-1.117-3.24,0.152-4.462c-1.579-4.641-3.135-9.14-4.641-13.656
		c-1.153-3.455-2.162-6.945-3.009-10.496c-1.439-6.032-5.382-10.64-9.106-15.378c-3.367-4.284-6.515-8.737-9.957-13.382
		c-1.085,0.347-2.358,0.754-4.107,1.313c-4.472-1.029-8.611-3.827-13.064-7.271c-1.244,0-3.037,0-4.605,0
		c-2.776-2.692-4.983-5.649-8.806-6.324c-1.966-4.562-1.966-4.562,0.125-7.278c3.849,0,7.918-0.68,11.599,0.222
		c2.776,0.681,5.432,0.9,8.458,1.026c1.265-3.015-0.895-5.624-1.362-8.354c-0.706-4.132-1.048-11.461,0.059-15.365
		c1.048-3.696,1.983-7.427,2.869-11.165c1.533-6.47,4.82-12.059,8.495-17.488c3.235-4.779,6.776-9.383,9.281-15.488
		c-1.347,0.237-2.209,0.231-2.928,0.547c-1.743,0.77-3.421,1.689-5.193,2.582c-4.027,8.389-8.125,16.778-12.087,25.231
		c-2.03,4.332-4.365,8.359-8.82,11.347c-1.217-1.145-2.484-2.339-4.035-3.799c1.163-1.362,2.156-2.523,3.298-3.86
		c-1.005-1.187-1.863-2.206-2.724-3.224c5.569-4.19,5.603-4.17,9.776-11.937c3.709-6.903,7.333-13.852,11.249-21.262
		c-3.907-3.24-7.013-7.427-8.007-13.67c-0.625,1.4-1.007,2.254-1.405,3.143c-0.073-0.094,0.241,0.31,0.765,0.982
		c-0.917,0.072-1.776,0.366-1.987,0.115c-0.735-0.871-1.201-1.961-1.85-2.914c-1.327-1.951-2.705-3.866-4.073-5.811
		c-2.985,3.32-1.347,7.826-3.719,11.109c-2.155,2.985-4.148,6.088-6.352,9.345c-2.182-0.829-3.948-1.5-6.031-2.292
		c1.795-3.43,4.598-5.558,7.084-7.84c2.422-2.224,3.774-4.992,5.152-7.791c0.925-1.877,1.098-3.827-0.696-5.439
		c2.967-4.794,7.876-7.426,11.622-10.472c0.285-2.088,0.513-3.75,0.67-4.902c2.049-2.728,3.361-5.982,5.734-7.248
		c2.873-1.533,4.185-4.38,7.98-6.155c-0.23,0,0.73,0,1.7,0c2.561-2.62,4.781-5.396,7.494-7.547c4.71-3.734,9.262-7.772,14.936-10.11
		c0.88-0.362,1.755-0.736,2.621-1.129c3.126-1.417,6.428-2.136,9.351-4.396c3.782-2.922,8.306-4.928,12.076-7.975
		c3.94-3.185,8.799-4.678,13.091-7.248c4.852-2.905,10.277-1.705,15.28,0.541c1.583,0.712,2.978,1.842,4.51,2.815
		c0.09-0.09,0.382-0.382,0.84-0.84c0.514,0.327,1.038,0.855,1.652,1.001c0.76,0.18,1.595,0.043,2.632,0.043
		c2.531,3.069,5.081,6.164,7.625,9.251c-0.407,0.44-0.814,0.883-1.401,1.521c0.466,0.939,0.972,1.957,1.605,3.232
		C108.545-1283.016,102.647-1279.935,98.764-1274.071c0.367-0.388,0.287-0.468,0.206-0.549c-0.336,0.287-0.672,0.575-1.009,0.861
		c0.13,0.13,0.259,0.26,0.389,0.389C98.638-1273.705,98.924-1274.041,98.764-1274.071z M283.164-966.862
		c0.411-0.411,0.824-0.824,1.107-1.348c0.079,0.08,0.161,0.162,0.24,0.241c0.337-0.287,0.673-0.575,1.008-0.861
		c-0.129-0.129-0.259-0.259-0.388-0.389c-0.287,0.336-0.575,0.673-0.731,1.122c-0.411,0.411-0.824,0.824-1.107,1.348
		c-0.079-0.08-0.161-0.162-0.241-0.241c-0.336,0.287-0.673,0.575-1.008,0.86c0.129,0.13,0.259,0.259,0.388,0.388
		C282.719-966.078,283.006-966.414,283.164-966.862z M268.21-943.502c0.079,0.08,0.161,0.162,0.241,0.241
		c0.336-0.287,0.673-0.575,1.008-0.861c-0.129-0.129-0.259-0.26-0.388-0.388c-0.287,0.335-0.575,0.672-0.603,1.233
		c-0.079-0.08-0.161-0.162-0.241-0.241c-0.336,0.287-0.672,0.575-1.008,0.861c0.129,0.128,0.26,0.259,0.388,0.388
		C267.893-942.604,268.18-942.941,268.21-943.502z M-13.344-990.336c0.411-0.411,0.824-0.823,1.236-1.236
		c2.471-2.471,4.942-4.941,7.284-7.525c0.08,0.08,0.161,0.161,0.242,0.241c0.336-0.287,0.672-0.575,1.009-0.861
		c-0.13-0.129-0.259-0.259-0.389-0.388c-0.287,0.335-0.575,0.672-0.731,1.121c-2.292-0.557-3.22,1.346-4.38,2.6
		c-1.287,1.388-3.573,2.245-3.032,4.814c-0.411,0.413-0.823,0.824-1.106,1.347c-0.08-0.079-0.161-0.159-0.241-0.24
		c-0.336,0.285-0.673,0.573-1.009,0.86c0.13,0.13,0.259,0.261,0.389,0.389C-13.789-989.552-13.502-989.889-13.344-990.336z
		 M265.867-945.861c0.411-0.411,0.824-0.824,1.236-1.234c0.411-0.411,0.824-0.824,1.107-1.348c0.079,0.08,0.161,0.162,0.241,0.241
		c0.336-0.287,0.673-0.575,1.008-0.861c-0.129-0.128-0.259-0.259-0.388-0.388c-0.287,0.335-0.575,0.672-0.733,1.121
		c-0.411,0.411-0.824,0.824-1.236,1.236c-0.411,0.41-0.824,0.823-1.107,1.347c-0.079-0.08-0.161-0.162-0.241-0.241
		c-0.335,0.287-0.673,0.575-1.007,0.861c0.129,0.128,0.26,0.259,0.387,0.388C265.422-945.075,265.709-945.412,265.867-945.861z
		 M285.522-939.553c0.08-0.079,0.162-0.161,0.241-0.241c-0.287-0.336-0.575-0.673-0.861-1.008c-0.129,0.129-0.258,0.259-0.388,0.388
		c0.335,0.287,0.672,0.575,1.233,0.603c-0.08,0.079-0.162,0.161-0.241,0.241c0.287,0.336,0.575,0.673,0.861,1.008
		c0.128-0.128,0.259-0.259,0.388-0.388C286.42-939.238,286.083-939.525,285.522-939.553z M-54.244-947.208
		c0.08,0.08,0.161,0.162,0.241,0.241c0.336-0.287,0.673-0.575,1.009-0.861c-0.13-0.128-0.259-0.259-0.389-0.388
		c-0.287,0.335-0.575,0.672-0.602,1.233c-0.08-0.08-0.161-0.162-0.242-0.241c-0.336,0.285-0.672,0.573-1.009,0.86
		c0.13,0.128,0.259,0.259,0.389,0.388C-54.559-946.31-54.272-946.647-54.244-947.208z M284.287-949.437
		c0.08-0.079,0.161-0.161,0.24-0.241c-0.285-0.336-0.573-0.673-0.86-1.008c-0.129,0.129-0.26,0.259-0.388,0.388
		c0.335,0.287,0.672,0.575,1.121,0.733c0,0.411,0,0.824,0,1.236c-0.411,0.311-0.824,0.623-1.236,0.934
		c0.411,0.512,0.824,1.023,1.186,1.486c0.062,0.798,0.12,1.532,0.196,2.54c0.903-0.099,1.578-0.174,2.327-0.256
		c-0.069-0.823-0.115-1.359-0.178-2.101c-0.814-0.064-1.554-0.122-2.296-0.133c0-0.824,0-1.646,0-2.47c0.41,0,0.823,0,1.347-0.129
		c-0.08,0.079-0.162,0.161-0.241,0.241c0.287,0.336,0.575,0.673,0.861,1.008c0.129-0.129,0.259-0.259,0.388-0.388
		c-0.335-0.287-0.672-0.575-1.121-0.733C285.223-948.742,284.81-949.155,284.287-949.437z M285.111-954.7
		c0.84,0.946,1.086,1.412,1.262,1.386c0.591-0.083,1.156-0.342,1.731-0.535c-0.745-0.211-1.489-0.424,0.189,0.728
		c1.426,1.149,1.426,1.149,3.476,0C290.386-953.121,289.246-953.121,285.111-954.7z M265.245-947.717
		c-0.206-0.219-0.415-0.437-0.623-0.655c-0.727,0.053-1.453,0.106-2.442,0.179c0.058,0.866,0.103,1.53,0.157,2.355
		c1.158-0.748,2.034-1.313,2.165-2.605c0.079,0.08,0.161,0.162,0.241,0.241c0.336-0.287,0.672-0.575,1.007-0.861
		c-0.129-0.129-0.258-0.259-0.388-0.388C265.076-949.117,264.791-948.779,265.245-947.717z M286.866-961.6
		c0.003,0.185,0.005,0.371,0.007,0.556c1.615,0,3.229,0,4.845,0c-0.004-0.185-0.006-0.371-0.01-0.556c-1.615,0-3.229,0-4.71,1.027
		c-0.079-0.08-0.161-0.162-0.241-0.241c-0.336,0.287-0.673,0.575-1.008,0.861c0.129,0.129,0.26,0.259,0.388,0.388
		C286.425-959.9,286.712-960.237,286.866-961.6z M285.941-965.156c1.124-0.732,2.25-1.461,3.804-2.47
		c-2.858-1.033-3.394,0.625-3.982,2.11c-0.079-0.08-0.161-0.162-0.241-0.241c-0.336,0.287-0.673,0.575-1.008,0.861
		c0.13,0.129,0.261,0.259,0.388,0.388C285.189-964.842,285.476-965.179,285.941-965.156z M97.958-966.991
		c-0.08,0.079-0.161,0.161-0.241,0.241c0.287,0.336,0.573,0.672,0.861,1.007c0.13-0.128,0.259-0.258,0.389-0.388
		c-0.336-0.285-0.672-0.573,0.278-0.697c-2.723-1.229-4.276-1.931-6.315-2.852C93.884-966.431,95.986-966.906,97.958-966.991z
		 M176.888-1091.448c0.01,0.277,0.019,0.554,0.026,0.832c2.822,0,5.645,0,9.603,0c-1.54-1.118-2.29-1.662-3.19-2.317
		c-0.891,0.387-1.898,0.993-2.988,1.248c-1.108,0.259-2.297,0.173-3.423,2.192c-0.002-0.185-0.005-0.371-0.007-0.556
		c-1.615,0-3.229,0-4.845,0c0.004,0.185,0.006,0.371,0.01,0.556C173.691-1089.494,175.306-1089.494,176.888-1091.448z
		 M241.674-1103.659c-3.362,1.18-4.811,3.609-4.664,7.08c1.556-2.36,3.111-4.72,4.021-7.532c0.079,0.08,0.161,0.161,0.241,0.242
		c0.336-0.287,0.673-0.574,1.008-0.861c-0.129-0.13-0.259-0.259-0.388-0.389C241.603-1104.783,241.317-1104.446,241.674-1103.659z
		 M-26.805-985.924c2.152-3.083,2.853-5.868,2.02-9.379c-1.129,0.058-2.239,0.116-3.819,0.195c0.615,3.143,1.139,5.818,1.799,8.589
		c-0.08-0.079-0.161-0.161-0.241-0.241c-0.336,0.287-0.673,0.575-1.009,0.861c0.13,0.13,0.259,0.261,0.389,0.389
		C-27.378-985.845-27.092-986.182-26.805-985.924z M248.683-999.114c-0.08,0.079-0.162,0.161-0.241,0.241
		c0.287,0.335,0.575,0.672,0.861,1.008c0.129-0.129,0.259-0.26,0.388-0.389c-0.335-0.287-0.672-0.575-1.121-0.732
		c-0.185-4.892-2.581-8.984-4.557-14.361c-0.935,5.57-0.303,9.491,3.281,12.562c0.304,0.261,0.04,1.184,8.789,22.75
		c-0.536-2.246-0.916-3.927-1.342-5.594c-0.424-1.663-0.714-3.393-1.397-4.947c-0.613-1.39-1.669-2.589-2.55-3.856
		c-0.998-1.433-1.984-2.877-3.045-4.264c-0.829-1.086,0.01-3.725-3.188-2.918c0.592,4.205,1.19,8.455,1.647,11.705
		c3.592,3.592,6.568,6.569,1.126-11.075C247.747-998.984,248.159-998.984,248.683-999.114z M-4.696-1002.691
		c0.759-0.14,1.732-0.027,2.241-0.461c4.732-4.024,9.386-8.144,14.064-12.236c-1.695-1.708-3.131-3.154-4.825-4.862
		c-1.673,2.267-3.09,4.695-5.008,6.624c-1.486,1.495-1.362,4.309-10.331,13.406c1.768-3.243,3.991-6.336,6.089-9.425
		c1.879-2.768,3.681-5.779,5.395-8.754c0.618-1.071,0.849-2.366,1.185-3.351c-3.995-2.005-7.462-3.745-10.94-5.49
		c-3.917,9.384-7.751,18.566-11.957,28.643c2.269-0.734,3.615-1.372,5.024-1.57c1.589-0.224,3.234-0.052,11.533-8.7
		c0.164,1.26-0.057,2.366-1.236,3.089s-1.4,1.827-1.106,3.2c-0.08-0.08-0.161-0.161-0.241-0.241
		c-0.336,0.287-0.673,0.575-1.009,0.861c0.13,0.128,0.259,0.259,0.389,0.389C-5.141-1001.905-4.854-1002.243-4.696-1002.691z
		 M234.982-1017.516c-1.077-0.776-2.155-1.551-3.117-2.244c-3.117,2.543-6.209,5.065-9.283,7.572
		c2.802,4.554,15.102,17.128,21.292,21.716c-0.635-5.432-1.228-10.51-1.831-15.665c-1.572-1.755-1.572-1.755-2.119-3.966
		c0.645,0.376,1.292,0.749,1.967,1.142c2.128-4.499-1.729-8.639-0.675-12.87c-0.956-0.891-1.647-1.532-2.32-2.157
		c-1.997,1.19-3.623,2.159-4.865,2.9C234.412-1019.657,234.698-1018.587,234.982-1017.516z M242.394-979.217
		c1.192,0.257,2.383,0.515,3.654,0.791c-0.841-3.561-1.667-7.049-2.455-10.393c-0.745-0.138-1.254-0.077-1.485-0.3
		c-7.152-6.952-14.28-13.931-21.619-21.113c-2.566,3.127-5.155,6.283-7.58,9.237c1.326,1.677,2.435,3.079,3.542,4.483
		c-1.853-0.466-3.707-0.932-5.314-1.336c-1.986,3.335-3.824,6.423-5.664,9.505c0.87,0.87,1.585,2.16,2.632,2.548
		c12.632,4.653,24.775,10.499,37.385,15.194c0.468,0.175,1.116-0.126,1.846-0.229c-0.554-1.992-1.055-3.791-1.228-4.421
		C244.381-977.093,243.388-978.156,242.394-979.217z M-15.603-943.39c-0.007,0,0.198,0,0.403,0c0.205,0,0.465-0.083,0.607,0.012
		c13.651,9.084,27.293,18.182,41.254,27.49c2.291-3.566,5.007-6.713,6.063-11.457c-16.091-7.063-32.159-13.177-48.326-20.208
		c0,1.823,0,2.993,40.896,33.536c-1.239-1.239-1.997-2.29-3.006-2.959c-7.741-5.139-15.558-10.164-23.295-15.309
		c-4.698-3.125-9.371-6.298-13.901-9.659c-2.105-1.563-1.937-1.788-3.968-0.137c11.376,11.375,22.799,22.801,34.422,34.422
		C17.763-910.569,24.129-907.762-15.603-943.39z M-73.881-901.384c0.164,3.247-2.648,5.067-4.122,8.201
		c3.627,1.926,7.129,3.786,11.085,5.886c1.065-2.138,2.112-3.955,2.895-5.882c1.362-3.348,2.428-6.819,3.86-10.133
		c1.435-3.321,3.996-6.377,4.548-9.795c0.644-3.985,3.489-6.774,4.174-10.725c0.628-3.623,2.953-6.949,4.559-10.474
		c-0.435-0.435-1.017-1.016-1.316-1.315c-1.281,0.327-2.364,0.602-3.446,0.878c-0.131-0.846-0.262-1.692-0.362-2.334
		c-2.244,0.424-4.029,0.76-5.816,1.098c-0.503-2.977,2.582-3.655,3.619-5.645c-0.567-0.567-1.134-1.134-1.499-1.501
		c-2.896,0.245-4.002,3.682-7.061,3.441c0.782-2.876,3.754-3.292,5.584-4.991c0.204-0.188,0.245-0.552,0.362-0.84
		c-0.628-0.581-1.216-1.122-1.746-1.61c-5.528,1.879-10.758,4.25-15.934,6.536c-5.379,2.375-11.069,4.014-16.259,6.965
		c-4.873,2.769-10.897,3.288-15.853,7.244c2.985,3.206,3.12,7.719,6.18,10.168c0.715,0,0.976,0.083,1.118-0.012
		c6.29-4.178,12.451-8.573,18.923-12.446c2.092-1.253,3.568-3.844,6.504-3.602c-2.296,4.553-7.331,5.659-10.95,8.549
		c-4.352,3.475-9.294,6.205-13.852,9.177c1.024,4.636,4.517,6.791,6.86,9.454c1.138,0,1.756,0,2.192,0
		c5.725-5.413,11.355-10.737,16.986-16.06c0.435,1.684-0.698,2.581-1.724,3.594c-4.907,4.865-9.78,9.76-15.001,14.984
		c3.25,2.891,5.426,6.299,10.102,7.51c0.938-1.418,1.902-3.068,3.068-4.557C-75.62-900.358-74.666-900.804-73.881-901.384z
		 M-17.78-971.684c0.87-0.21,1.305-0.205,1.608-0.404c7.27-4.768,14.501-9.598,21.791-14.335
		c5.822-3.785,11.271-8.141,17.475-11.343c1.477-0.762,2.093-2.103,1.831-3.99c-2.155-2.708-4.411-5.545-6.696-8.418
		c-4.375,4.374-8.363,8.522-12.528,12.483c-4.232,4.024-8.718,7.782-12.95,11.806c-4.166,3.96-8.154,8.109-12.016,11.971
		c0.546,0.819,1.091,1.638,42.984-23.835c-0.869,1.074-1.541,2.443-2.636,3.173c-6.559,4.377-13.252,8.552-19.827,12.903
		c-5.786,3.832-11.476,7.807-17.13,11.667c0.082,1.212,0.147,2.164,0.219,3.222c1.867-0.514,3.325-0.914,4.782-0.79
		c0-0.323-0.057-0.093,0.016,0.082c0.073,0.174,0.272,0.423,0.419,0.425c6.34,0.082,12.766,0.827,18.999,0.035
		c8.618-1.095,16.914-4.226,25.678-4.87c1.016-0.075,1.96-1.136,3.372-2.009c-1.287-3.75-2.636-7.68-3.921-11.424
		C18.345-979.76,4.319-972.442-10.873-968.1c0.146-0.352,0.199-0.914,0.45-1.023c5.935-2.571,11.742-5.587,17.9-7.424
		c3.232-0.964,5.784-3.011,8.908-3.897c5.679-1.611,10.866-4.297,16.639-7.127c-1.999-4.035-3.861-7.792-5.522-11.145
		C25.884-998.3,24.801-998.026-17.78-971.684z M-98.565-999.682c2.886,1.873,5.869,3.645,8.676,5.662
		c7.26,5.219,15.22,9.425,22.058,15.26c1.017,0.867,2.852,1.232,3.266,2.251c0.72,1.773,2.563,0.358,3.395,1.809
		c0.596,1.038,2.098,1.694,3.33,2.186c1.121,0.446,2.421,0.439,4.087,0.702c-2.307-4.134-32.824-34.886-37.785-38.337
		c-2.27,2.713-4.552,5.439-7.028,8.398c0,0.442,0,1.259,42.023,32.994c-2.743-2.292-5.091-5.346-8.16-6.526
		c-3.25-1.249-5.372-3.769-8.313-5.261c-3.091-1.57-5.81-3.88-8.686-5.874c-2.72-1.886-5.403-3.822-8.153-5.662
		c-2.89-1.934-5.838-3.781-9.131-5.905c-0.809,0.453-2.091,0.794-2.701,1.625c-0.591,0.804-0.488,2.117-0.671,3.109
		c5.816,2.498,5.816,2.498,5.658,5.621c-2.505-1.465-4.914-2.874-7.363-4.306c-0.896,1.946-1.514,3.29-2.238,4.866
		c16.196,6.724,32.132,13.342,48.101,19.972C-57.827-967.473-57.391-967.91-98.565-999.682z M306.637-1003.927
		c0,0.615,0.248,1.401-0.038,1.819c-2.973,4.318-6.103,8.529-9.052,12.865c-2.905,4.269-5.649,8.647-8.417,12.902
		c0.849,0.849,1.427,1.428,1.43,1.43c12.256-12.255,24.511-24.51,37.088-37.088c-2.967-2.392-5.144-6.309-8.889-7.548
		c-1.716,1.641-3.213,3.07-4.709,4.503c-0.145-2.277,1.459-3.84,2.454-5.972c-3.52-2.118-7.068-4.249-10.411-6.258
		c-1.988,3.667-4.609,6.841-5.396,10.419c-0.781,3.54-2.948,6.219-3.989,9.499c-1.032,3.253-2.369,6.415-3.673,9.576
		c-2.322,5.621-4.453,11.322-7.297,16.724c-0.408,0.773,0.2,2.082,0.447,3.986c1.81-1.638,3.241-2.516,4.094-3.781
		c2.687-3.993,4.807-8.414,7.81-12.132C301-996.59,302.092-1001.631,306.637-1003.927z M-50.409-977.982c1.175,0,2.349,0,4.3,0
		c-7.045-16.908-13.823-33.17-20.56-49.341c-3.816,1.91-7.373,3.69-11.343,5.678c1.462,2.498,3.211,4.847,4.259,7.474
		c0.944,2.364,3.819,3.602,3.577,6.539c-1.236-1.215-2.619-2.313-3.676-3.669c-2.257-2.893-4.346-5.917-6.383-8.725
		c-3.446,2.937-6.486,5.529-9.345,7.966c12.429,12.43,24.989,24.99,37.915,37.916C-51.227-975.478-50.818-976.73-50.409-977.982z
		 M254.749-943.39c0-1.173,0-2.344,0-4.231c-16.938,6.912-33.361,13.316-49.188,20.69c1.923,3.87,3.672,7.393,5.382,10.835
		c2.59-0.711,4.229-2.77,6.74-2.585c-1.673,1.725-3.346,3.45-4.945,5.098c2.316,2.859,4.557,5.632,6.854,8.468
		c0.712,0,1.527,0,1.988,0c12.326-12.326,24.487-24.486,37.014-37.014C257.24-942.573,255.993-942.982,254.749-943.39z
		 M297.989-942.154c-1.133-0.308-2.266-0.615-3.895-1.056c-0.352,1.19-0.698,2.359-1.047,3.528
		c-1.254,0.411-2.507,0.823-3.956,1.297c5.046,7.73,9.496,15.191,14.596,22.174c5.117,7.006,8.964,14.951,15.126,21.511
		c3.126-3.061,7.25-4.233,9.088-8.275c-5.757-5.757-11.395-11.415-17.061-17.043c-1.026-1.017-2.171-1.913-1.732-3.604
		c1.075,0.87,2.235,1.656,3.213,2.623c5.379,5.319,10.711,10.683,15.854,15.826c1.126,0,1.924,0,3.07,0
		c2.157-2.838,4.404-5.793,6.734-8.857c-1.105-0.922-1.832-1.582-2.613-2.175c-3.807-2.886-8.877-4.108-11.433-8.653
		c0.904,0.287,1.926,0.393,2.695,0.891c4.176,2.703,8.29,5.501,12.795,8.515c2.141-4.102,3.977-7.62,5.91-11.324
		c-1.668-1.008-2.909-2.003-4.32-2.569c-3.865-1.546-7.773-2.995-11.717-4.327c-4.132-1.395-8.111-3.274-12.048-5.002
		c-6.582-2.889-13.411-5.217-19.671-8.655c-0.771,0.801-1.337,1.39-1.9,1.976C296.435-944.305,297.212-943.229,297.989-942.154z
		 M147.619-1093.696c8.494-3.497,16.655-7.038,24.954-10.223c8.526-3.273,16.888-6.919,25.471-10.363
		c-0.583-4.456,1.023-9.01-1.825-13.046c-0.946-0.109-1.92-0.22-3.398-0.388c0.274-1.898,0.537-3.712,0.86-5.947
		c-0.662-0.401-1.818-1.103-3.031-1.841c0-0.825,0-1.795,0-2.942c2.177-1.73,4.351-3.456,6.337-5.034
		c3.908-0.259,7.832,0.863,11.128-2.464c-1.087-1.626-1.805-3.845-3.303-4.704c-3.47-1.986-6.555-4.302-9.417-7.071
		c-3.022-2.923-6.252-5.647-9.515-8.303c-2.577-2.097-5.437-3.849-8.008-5.951c-4.035-3.298-8.8-5.928-11.716-10.297
		c-2.312-3.462-5.122-6.473-7.601-9.763c-2.277-3.019-5.021-5.688-7.473-8.605c-5.679-6.762-9.808-14.429-14.25-21.876
		c-3.951,6.467-8.875,11.927-15.147,16.419c-5.549,3.974-11.798,6.349-17.746,9.408c-2.189,1.127-4.489,2.025-6.848,2.858
		c-5.358,1.893-10.445,4.582-15.562,7.106c-1.218,0.6-2.353,1.673-3.13,2.801c-1.454,2.112-2.619,4.422-3.861,6.578
		c0.514,0.514,0.754,0.906,1.103,1.081c8.962,4.491,17.532,9.581,25.793,15.31c5.059,3.509,9.739,7.43,14.338,11.41
		c7.582,6.564,13.762,14.423,19.314,22.803C141.66-1116.812,146.313-1106.209,147.619-1093.696z M141.388-1076.396
		c-4.59,5.827-8.573,11.794-13.468,16.883c-7.466,7.766-15.554,14.933-23.407,22.324c-0.541,0.509-1.393,0.677-1.974,1.156
		c-3.371,2.779-6.969,5.461-7.918,10.067c-0.441,2.141,0.164,4.589-0.592,6.556c-1.348,3.507-1.907,7.094-2.35,10.744
		c-0.453,3.733-0.849,7.472-1.233,11.212c-0.083,0.814,0.331,1.915-0.069,2.422c-2.165,2.745-0.493,5.946-1.249,8.77
		c-0.778,2.904-1.479,5.75-1.132,8.759c0.032,0.28,0.528,0.507,0.934,0.872c0.456-0.22,0.96-0.483,1.481-0.704
		c0.647-0.276,1.31-0.518,1.973-0.778c0.39,1.076,0.65,1.789,0.755,2.077c1.575-0.283,2.979-0.535,4.315-0.773
		c0.39,1.15,0.631,1.862,0.944,2.783c8.104-11.198,16.059-22.191,23.778-32.858c-0.467-1.085-0.769-1.783-1.26-2.925
		c1.305-0.147,2.251-0.253,3.875-0.437c2.839-3.787,5.99-7.991,9.056-12.079c-0.525-0.933-0.874-1.554-1.229-2.187
		c0.577-0.546,1.143-1.082,1.675-1.586c0.488,0.404,0.906,0.75,1.595,1.322c15.745-20.964,31.409-41.82,47.544-63.301
		C168.13-1086.941,154.772-1080.994,141.388-1076.396z M206.001-1131.865c1.232,2.11,1.977,3.441,2.774,4.74
		c1.305,2.128,2.282,4.632,4.058,6.253c2.381,2.171,0.683,4.875,1.813,7.312c2.526,5.445,4.039,11.36,6.163,17.673
		c4.889-2.05,9.429-3.954,13.686-5.739c1.6-6.126,1.886-12.074,1.755-18.084c-0.138-6.278-0.031-12.562-0.031-17.904
		c-2.67-1.462-4.489-2.456-6.463-3.537c-1.115,0.917-2.293,1.887-3.394,2.795c-2.705-0.572-4.788-2.611-7.551-0.834
		C214.796-1136.611,210.529-1134.427,206.001-1131.865z M278.936-979.832c3.565-17.736,7.018-34.918,10.467-52.078
		c-4.22-0.615-8.075-1.179-11.09-1.619c-2.993,2.197-2.56,4.868-2.561,7.438c-0.003,14.6-0.001,29.201-0.001,43.95
		C276.624-981.507,277.558-980.832,278.936-979.832z M289.179-883.013c-3.421-17.222-6.702-33.743-10.039-50.536
		c-1.189,0.091-2.304,0.178-3.389,0.261c0,15.023,0.037,29.637-0.033,44.253c-0.014,2.634,0.168,5.115,1.914,7.495
		C281.35-882.373,285.586-880.123,289.179-883.013z M345.389-987.187c-2.083-3.94-3.862-7.314-5.906-11.182
		c-8.166,3.911-14.889,9.456-22.156,14.083c-7.427,4.73-14.653,9.772-22.646,15.133c1.351,0.607,2.295,1.031,3.546,1.591
		C313.073-973.738,328.968-980.354,345.389-987.187z M298.236-948.674c15.707,6.496,31.281,12.936,46.545,19.248
		c0.828-0.6,1.306-0.761,1.432-1.068c1.3-3.155,2.542-6.331,3.861-9.659c-0.785-0.698-1.43-1.757-2.261-1.932
		c-4.548-0.965-9.139-1.719-13.719-2.538c-2.862-0.513-5.815-0.733-8.573-1.582c-4.989-1.535-10.181-2.015-15.214-3.311
		c-3.887-1.001-7.891-1.553-12.073-2.349C298.236-950.97,298.236-950.009,298.236-948.674z M317.046-893.247
		c-10.221-15.291-19.813-29.638-29.479-44.099c-0.909,0.974-1.456,1.559-2.044,2.191c1.288,3.22,2.978,6.294,3.702,9.578
		c0.761,3.451,3.395,5.875,4.015,9.477c0.592,3.436,2.613,6.68,4.286,9.86c1.596,3.037,2.784,6.309,3.927,9.438
		c1.211,3.319,2.7,6.248,4.692,9.367C309.835-889.402,313.322-891.261,317.046-893.247z M222.813-901.75
		c2.533,2.015,5.559,4.421,8.557,6.806c3.877-2.889,5.83-6.792,8.228-10.388c6.895-10.336,13.952-20.564,20.894-30.869
		c0.802-1.191,0.908-2.539-0.012-3.215C248.028-926.963,235.723-914.658,222.813-901.75z M274.315-979.404
		c0-18.795,0-36.326,0-54.446c-4.173,0.638-8.164,1.247-12.153,1.855c0,2.293-0.828,5.003,0.172,6.251
		c2.105,2.628,0.324,5.723,2.089,8.471c1.441,2.243,0.904,5.7,1.481,8.571c0.538,2.669,0.644,5.629,1.624,7.926
		c0.951,2.229-0.203,4.662,1.127,6.262c1.704,2.052-0.1,4.632,1.281,6.235c1.753,2.034,0.099,4.367,1.302,6.477
		C271.85-981.326,272.601-980.739,274.315-979.404z M252.002-951.695c-17.151,3.421-33.597,6.701-50.252,10.022
		c-0.818,4.306,1.254,8.056,2.805,11.873c1.258,0,2.437,0.337,3.282-0.051c12.75-5.841,25.724-11.123,38.845-16.073
		c2.476-0.934,4.653-2.664,7.029-4.064C252.928-950.77,252.349-951.348,252.002-951.695z M-60.492-951.767
		c-3.18,0.771-6.101,1.926-9.083,2.104c-5.328,0.319-10.333,2.155-15.612,2.78c-3.748,0.444-7.532,1.604-11.343,2.29
		c-3.799,0.682-7.574,1.532-11.316,2.489c-1.196,0.306-2.245,1.184-3.45,1.847c2.5,3.509,1.33,8.198,5.442,10.896
		c15.639-6.517,31.335-13.055,47.467-19.777C-59.319-950.302-59.8-950.903-60.492-951.767z M-59.357-962.975
		c0.205-0.478,0.41-0.955,0.615-1.433c-0.778-0.818-1.462-2.211-2.353-2.36c-6.11-1.031-11.452-4.222-16.996-6.52
		c-9.567-3.969-19.143-7.954-28.968-12.015c-0.885,1.889-1.979,3.712-2.594,5.683c-0.614,1.974-0.749,4.097-1.152,6.504
		c8.402,2.035,16.938,3.521,25.467,5.135C-76.663-966.341-68.13-963.988-59.357-962.975z M296.714-963.209
		c3.304,0,5.692,0.732,6.77-0.146c2.59-2.113,5.711-0.327,8.469-2.066c2.262-1.426,5.73-0.812,8.564-1.506
		c2.652-0.647,5.414-0.812,7.972-1.543c5.014-1.433,10.169-2.091,15.231-3.205c2.272-0.499,4.473-0.624,6.061-2.274
		c-1.21-3.911-2.384-7.698-3.468-11.204c-6.173,1.72-11.483,4.192-16.924,6.289c-4.929,1.9-9.712,4.194-14.726,6.015
		c-4.958,1.803-9.522,4.666-14.705,6.072C299.042-966.527,298.431-965.157,296.714-963.209z M291.07-1031.607
		c-3.529,17.569-6.835,34.027-10.068,50.117c0.456,0.829,0.907,1.646,1.742,3.162c7.666-16.002,13.097-31.811,19.93-47.012
		c0.374-0.832,0.216-1.902,0.311-2.912C298.903-1029.401,295.064-1030.482,291.07-1031.607z M259.158-882.75
		c2.875-5.638,2.51-11.622,3.958-17.21c1.486-5.737,2.655-11.712,3.451-17.653c0.761-5.685,3.036-11.146,2.936-17.08
		c-2.754-0.154-3.083,1.599-3.884,3.209c-2.619,5.267-4.92,10.762-6.911,16.19c-3.5,9.55-8.337,18.57-11.183,28.98
		C251.225-885.18,255.029-884.015,259.158-882.75z M303.817-886.553c-6.923-16.565-13.492-32.29-20.153-48.232
		c-0.871,0.111-1.951,0.25-3.015,0.387c0.913,3.589,1.999,6.697,2.456,9.892c1.017,7.116,2.488,14.144,3.819,21.194
		c0.864,4.573,2.201,9.025,2.539,13.734c0.168,2.346,1.622,4.604,2.379,6.597C295.75-884.147,299.207-885.178,303.817-886.553z
		 M329.534-1010.143c-11.7,11.699-23.341,23.321-34.938,34.982c-0.739,0.743-1.164,1.794-2.484,3.893
		c2.474-0.724,3.874-0.817,4.902-1.484c9.572-6.216,19.126-12.464,28.584-18.852c4.15-2.805,8.064-5.957,11.686-8.655
		C335.874-1005.08,332.013-1007.006,329.534-1010.143z M271.079-933.384c-0.76,2.846,0.563,6.061-1.505,8.617
		c-0.221,7.463-3.373,14.431-3.707,21.874c-2.059,2.135-0.798,4.955-1.52,7.377c-1.333,4.464-2.72,8.94-1.973,13.901
		c2.236,0,4.263,0.027,6.29-0.009c1.965-0.035,3.928-0.136,5.665-0.2c0-17.454,0-34.449,0-51.559
		C273.176-933.384,272.208-933.384,271.079-933.384z M-112.054-958.214c17.103,0,34.082,0.004,51.06-0.037
		c0.236,0,0.47-0.555,0.963-1.179c-0.667-0.813-1.39-1.695-2.092-2.549c-2.524,0.225-4.724-0.536-7.032-1.047
		c-7.206-1.591-14.541-2.601-21.825-3.835c-2.109-2.098-5.346-0.205-7.248-1.709c-2.199-1.739-4.6,0.021-6.884-1.419
		c-1.748-1.101-4.572-0.494-6.942-0.65C-112.054-966.262-112.054-962.42-112.054-958.214z M300.458-961.546
		c-0.319,0.696-0.825,1.798-1.41,3.07c17.73,0,34.849,0,51.913,0c0-3.692,0-7.125,0-10.394c-0.588-0.588-1.022-1.023-1.908-1.908
		C333.18-968.299,317.216-964.235,300.458-961.546z M250.633-961.904c-3.063-0.107-5.696-0.397-8.456-1.076
		c-7.148-1.761-14.513-2.648-21.791-3.882c-2.203-2.624-5.532-0.84-8.342-2.17c-3.321-1.572-7.564-1.192-11.484-1.667
		c-0.628,4.39-1.175,8.227-1.783,12.485c18.04,0,35.419,0.004,52.797-0.037c0.235,0,0.47-0.555,0.94-1.153
		C251.997-960.091,251.426-960.852,250.633-961.904z M-46.209-932.139c-0.979,2.225-2.078,4.441-2.942,6.743
		c-2.199,5.864-4.784,11.569-7.178,17.329c-2.309,5.554-4.551,11.248-6.596,16.964c-0.704,1.968-1.222,3.586-0.824,5.448
		c3.465,0.929,6.785,1.82,10.668,2.862c3.011-6.997,3.521-14.741,5.13-22.193c1.625-7.526,3.145-15.073,4.753-22.817
		C-44.079-929.071-45.146-930.608-46.209-932.139z M263.79-938.446c-10.222,15.339-19.546,29.331-29.085,43.644
		c0.573,1.071,1.203,2.245,1.762,3.288c1.159,0,1.977,0,2.83,0c0.854-1.662,1.562-3.466,2.66-4.984
		c0.488-0.673,1.767-0.772,3.041-1.27c-1.531,2.984-2.749,5.356-4.244,8.269c1.622,0.762,3.095,1.456,4.592,2.16
		c2.843-6.445,6.004-12.182,7.84-18.318c1.061-3.546,2.953-6.598,4.152-10.02c2.371-6.761,5.426-13.281,7.804-18.968
		C264.717-935.844,264.359-936.849,263.79-938.446z M37.408-939.653c-1.443-4.037-5.295-2.129-7.81-3.526
		c-2.564-1.423-6.384-0.504-9.067-1.815c-2.776-1.355-6.037,0.171-8.389-2.101c-3.078,0.767-5.768-1.126-8.731-1.265
		c-3.14-0.148-6.316,0.652-9.41-1.101c-1.549-0.879-6.209,0.068-7.71,0.555c2.475,1.239,5.233,3.033,8.251,4.054
		c12.077,4.086,23.512,9.712,35.343,14.375c1.394,0.549,2.985,0.594,4.4,0.858C35.438-933.319,36.458-936.6,37.408-939.653z
		 M-52.674-1031.902c-4.391,1.349-7.846,2.41-11.17,3.429c-0.837,4.531,2.115,7.606,3.269,11.207
		c1.154,3.602,2.822,7.04,4.285,10.542c1.536,3.678,3.108,7.339,4.641,11.018c1.446,3.468,2.862,6.947,4.484,10.889
		c1.624-0.786,2.969-1.437,3.89-1.883C-46.619-1001.669-48.984-1016.329-52.674-1031.902z M204.53-985.635
		c-1.201,4.255-2.283,8.097-3.305,11.722c4.83,3.297,10.102,3.151,14.858,4.279c4.842,1.149,9.848,2.584,14.913,2.703
		c5.068,0.12,9.594,3.546,14.521,2.397c0-1.224,0-2.24,0-3.964C232.362-973.998,218.717-979.704,204.53-985.635z M351-955.744
		c-13.878,0-27.238,0.069-40.593-0.067c-2.282-0.023-4.931,1.207-6.877-1.149c-1.11,2.555-3.108-1.463-4.099,0.256
		c0,1.304,0,2.266,0,3.302c16.676,3.365,33.17,6.688,49.744,10.032c0.551-0.524,1.137-1.079,1.826-1.73
		C351-948.449,351-951.884,351-955.744z M-110.282-943.344c16.658-3.372,33.351-6.75,49.787-10.078c0-1.41,0-2.38,0-3.095
		c-3.088,0.268-5.974,0.56-8.869,0.755c-1.435,0.096-2.88,0.017-4.322,0.017c-12.723,0-25.446,0-38.331,0c0,3.725,0,7.167,0,10.664
		C-111.491-944.553-110.909-943.971-110.282-943.344z M200.454-943.031c17.509-4.399,34.933-6.466,52.096-10.669
		c-0.363-1.001-0.556-1.535-0.696-1.918c-17.563,0-34.95,0-52.285,0C197.836-951.456,200.687-947.804,200.454-943.031z
		 M-37.083-991.135c-0.043-0.049-0.507-0.335-0.512-0.628c-0.252-13.86-0.463-27.721-0.689-42.208
		c-4.223,0.66-8.206,1.283-12.462,1.95c3.116,15.419,6.142,30.39,9.261,45.818C-39.784-988.11-38.443-989.611-37.083-991.135z
		 M269.05-978.52c0.833-3.445-0.318-5.838-0.479-8.228c-0.372-5.537-2.442-10.656-3.01-16.172
		c-0.624-6.046-2.091-12.195-3.646-18.137c-0.855-3.271-0.032-7.146-2.951-10.043c-3.189-0.13-6.347,0.507-8.95,2.806
		c0.362,0.909,0.832,1.721,1.001,2.591c0.487,2.484,0.211,5.355,1.388,7.416c2.989,5.237,4.108,11.051,6.024,16.611
		c1.918,5.568,4.567,10.84,6.313,16.488C265.427-982.962,267.324-981.111,269.05-978.52z M-22.899-1032.483
		c-4.878,0.69-8.531-2.708-12.397-0.693c0,13.497,0,26.913,0,40.367c2.119-1.507,4.019-2.858,5.633-4.005
		C-27.649-1008.746-24.588-1020.171-22.899-1032.483z M32.315-1022.006c3.057,2.653,5.883,5.108,8.078,7.015
		c0.765,1.329-1.234,1.244-0.085,2.348c0.419,0.025,1.008,0.232,1.194,0.042c4.933-5.043,9.824-10.125,14.977-15.465
		c-1.596-4.918-3.099-9.55-4.685-14.436c-5.217,5.215-9.984,10.046-14.83,14.796C35.26-1026.036,32.84-1025.01,32.315-1022.006z
		 M-20.806-1031.817c-2.49,12.035-4.762,23.019-7.134,34.491c3.099-0.732,5.723-1.351,7.744-1.828
		c4.024-9.964,7.856-19.451,11.738-29.063C-12.285-1029.333-16.14-1030.458-20.806-1031.817z M-41.362-928.479
		c-1.21,4.281-1.855,8.296-2.65,12.239c-0.724,3.593-1.479,7.269-1.94,10.959c-0.456,3.646-1.184,7.386-2.261,10.777
		c-0.939,2.961,0.028,6.279-2.088,9c-0.614,0.791,0.064,2.587,0.133,3.654c4.301,0,8.143,0,11.985,0c0-4.902,0-9.566,0-13.604
		c-1.588-1.294-2.764-2.288-3.979-3.23c-1.145-0.888-2.332-1.722-3.923-2.891c1.27-0.944,2.167-1.614,3.069-2.277
		c0.786-0.579,2.275-1.182,2.25-1.722c-0.157-3.531,3.334-5.207,3.948-8.27c-2.597-4.206-0.295-9.068-1.43-12.975
		C-39.555-927.518-40.392-927.963-41.362-928.479z M12.097-907.447c-11.232-11.23-21.7-21.7-32.179-32.155
		c-0.11-0.11-0.381-0.067-0.578-0.078c-0.205-0.011-0.411-0.003-0.79-0.003c-0.446,0.53-0.971,1.154-1.473,1.75
		c3.568,5.328,7.207,10.767,10.854,16.202c3.79,5.644,7.587,11.286,11.12,16.546C3.764-904.776,7.352-906.311,12.097-907.447z
		 M-25.317-937.041c0.819,6.337,3.053,12.021,5.469,17.859c2.423,5.854,5.461,11.529,6.98,17.387
		c3.65-0.822,7.157-1.611,10.59-2.383C-10.234-915.168-16.897-926.693-25.317-937.041z M113.152-1092.362
		c-8.466-5.736-15.622-12.595-25.462-17.113c4.751,9.486,9.036,18.044,13.492,26.941
		C105.111-1085.761,108.774-1088.768,113.152-1092.362z M238.687-1138.085c0,4.554,0,8.206,0,11.856c0,3.704-0.503,7.5,0.145,11.087
		c0.621,3.436-3.016,6.571-0.559,10.205c7.739-8.83,9.188-12.211,7.69-22.004C245.347-1130.966,244.191-1135.371,238.687-1138.085z
		 M33.909-962.278c-0.088-0.079-0.524-0.827-0.964-0.828c-13.299-0.063-26.599-0.051-41.476-0.051
		c1.958,1.307,2.732,1.821,3.707,2.471c3.977,0,8.49-0.777,12.54,0.256c3.009,0.769,5.917,1.181,8.785,0.859
		c3.346-0.376,6.173,1.42,9.363,1.372c4.313-0.066,8.628-0.003,12.942-0.042c0.327-0.004,0.65-0.387,1.194-0.733
		c-0.64-1.341-1.292-2.708-2.088-4.375C36.69-963.023,35.426-962.683,33.909-962.278z M-23.152-897.315
		c-0.476,5.286,0.924,9.926,2.993,14.892c4.075-1.425,8.017-2.806,11.935-4.176c-2.041-4.504-3.837-8.469-5.711-12.603
		C-17.037-898.568-19.9-897.982-23.152-897.315z M-23.004-881.723c-0.54-4.263-0.906-7.972-1.541-11.636
		c-0.18-1.039-1.145-1.941-1.968-3.252c-2.754,0.541-5.757,1.133-8.83,1.737c0,4.37,0,8.747,0,13.151
		C-31.279-881.723-27.455-881.723-23.004-881.723z M-23.905-924.06c-1.599,4.456-4.197,8.408-2.893,12.735
		c1.228,4.071,1.384,8.339,2.736,12.046c3.137-0.838,6.234-1.666,9.375-2.503C-17.718-909.108-20.723-916.369-23.905-924.06z
		 M-0.669-901.684c-3.173,0.623-6.603,1.252-10.005,2.008c-0.505,0.112-0.877,0.823-1.212,1.159
		c1.767,3.578,3.513,7.116,5.264,10.651c4.052-0.489,6.935-2.144,10.728-6.236C2.719-896.302,1.304-898.552-0.669-901.684z
		 M49.391-917.124c0.221,0.172,0.442,0.342,0.664,0.514c1.916-0.691,3.813-1.886,5.755-1.966c4.339-0.179,7.959-2.864,12.236-3.1
		c0.455-0.026,0.869-0.811,1.054-0.997c-4.045-3.215-8.115-6.446-12.132-9.637c-1.181,1.155-2.292,2.241-3.278,3.208
		c-0.618,3.414-1.237,6.838-1.735,9.591C50.789-918.425,50.089-917.773,49.391-917.124z M14.393-905.27
		c-4.316,1.027-8.689,2.068-13.062,3.11c2.864,2.188,1.904,7.614,6.796,6.943c2.833-2.114,4.61-5.51,7.946-6.779
		C15.564-902.986,15.041-904.007,14.393-905.27z M38.338-965.628c0-1.999,0-3.372,0-5.114c-8.005,0.988-15.702,2.162-23.626,4.365
		c0.798,0.407,1.133,0.725,1.47,0.727C23.495-965.621,30.809-965.628,38.338-965.628z M-19.367-995.768
		c-1.709,3.529-3.507,7.244-5.496,11.353c1.454,0,2.405,0,3.329,0c3.482-4.155,7.079-8.448,10.931-13.048
		C-13.838-998.04-16.501-998.06-19.367-995.768z M52.998-1071.23c2.012,2.985,2.229,6.398,4.972,8.097
		c1.983-0.765,3.687-1.422,5.49-2.118c-1.232-4.096-4.417-6.349-6.294-8.36C55.757-1072.806,54.337-1071.995,52.998-1071.23z
		 M222.351-1093.444c0.807,1.63,1.469,2.964,2.114,4.264c3.995,0.42,6.045-3.168,8.998-4.202c0.384-1.918,0.74-3.706,1.202-6.021
		C230.546-1097.41,226.711-1095.553,222.351-1093.444z M-35.364-928.335c0,4.772,0,8.356,0,11.66
		c1.208-0.885,2.458-1.797,3.381-2.472c0-2.075,0-3.691,0-5.308c-0.23,0.192-0.46,0.384-0.691,0.576
		C-33.394-925.074-34.115-926.266-35.364-928.335z M-31.447-908.239c1.271,2.124,2.44,4.075,3.272,5.464
		c-0.592,1.617-0.942,2.568-1.463,3.99c1.808-0.185,2.896-0.298,3.93-0.405c-0.993-4.294-1.888-8.166-2.874-12.425
		C-29.732-910.259-30.628-909.203-31.447-908.239z M251.423-976.804c1.83,1.671,3.604,3.289,5.796,5.291
		c0-1.257,0.175-1.832-0.026-2.033c-3.119-3.089-6.288-6.129-9.447-9.182c-0.07,1.669,0.75,5.287,1.385,5.922
		C249.874-976.804,250.675-976.804,251.423-976.804z M93.08-946.771c-0.049-3.304-0.588-6.13-3.64-7.731c0,1.463,0,2.843,0,4.648
		C90.426-949.02,91.753-947.895,93.08-946.771z M27.585-945.642c0.043,0.22,0.087,0.439,0.13,0.659
		c3.521,0.577,7.043,1.153,10.605,1.735c-0.755-1.055-1.295-1.811-1.713-2.395C33.55-945.642,30.568-945.642,27.585-945.642z
		 M49.952-1083.212c0.122,5.634,1.127,7.102,5.182,7.139c-1.016-1.345-1.809-2.364-2.568-3.409
		C51.778-1080.567,51.025-1081.678,49.952-1083.212z M230.363-1084.97c0.866-0.626,1.482-2.074,0.507-4.032
		c-1.187,0.633-2.349,1.252-4.527,2.411C228.022-1085.914,228.959-1085.535,230.363-1084.97z M62.221-1043.7
		c0.21-0.007,0.42-0.016,0.631-0.023c0.563-1.87,1.126-3.736,1.75-5.807c-1.081,0-1.63,0-2.381,0
		C62.221-1047.516,62.221-1045.609,62.221-1043.7z M258.431-952.802c2.816,1.662,5.093,0.085,7.835-1.281
		C263.079-955.386,261.038-952.392,258.431-952.802z M280.021-940.749c2.005-2.701-0.854-4.27-1.126-6.514
		C276.889-944.565,279.748-942.995,280.021-940.749z M279.745-974.109c0.709,2.086-3.371,3.462,0.162,6.585
		C278.597-970.41,282.207-971.634,279.745-974.109z M269.776-940.758c0.984-0.188,1.535-0.293,1.982-0.379c0-1.704,0-3.194,0-6.106
		C270.872-944.345,270.409-942.827,269.776-940.758z M262.71-956.67c-1.778,0-3.009,0-4.584,0c0.392,1.006,0.641,1.646,1.075,2.76
		C260.456-954.897,261.338-955.591,262.71-956.67z M257.97-964.016c1.637,3.33,3.159,3.828,5.685,2.827
		C261.955-962.034,260.593-962.712,257.97-964.016z M95.49-949.891c1.945,0,2.768,0,3.743,0c-0.18-0.891-0.29-1.439-0.53-2.622
		C97.668-951.668,96.987-951.112,95.49-949.891z M255.288-949.512c0.832-1.147,2.732-1.52,1.394-3.816
		C255.849-952.181,253.949-951.806,255.288-949.512z M17.201-904.863c1.186-0.283,2.089-0.498,2.993-0.713
		c-0.211-0.262-0.423-0.523-0.634-0.785c-1.081,0.075-2.162,0.151-3.782,0.263C16.854-905.165,17.437-904.658,17.201-904.863z
		 M276.26-943.381c-1.315,2.169,0.492,2.647,1.453,3.69C279.027-941.86,277.221-942.337,276.26-943.381z M93.406-956.793
		c0.271-0.274,0.541-0.546,0.812-0.82c-0.105-0.551-0.21-1.103-0.366-1.914c-0.855,0.161-1.545,0.29-3.085,0.579
		C92.044-957.904,92.725-957.348,93.406-956.793z M-17.264-947.298c-0.022-0.368-0.044-0.736-0.067-1.105
		c-1.091,0.153-2.182,0.305-3.272,0.457c0.02,0.216,0.038,0.432,0.058,0.646C-19.451-947.298-18.357-947.298-17.264-947.298z
		 M291.579-958.428c-0.009-0.363-0.017-0.728-0.025-1.092c-1.103,0.148-2.206,0.298-3.308,0.446
		c0.017,0.215,0.033,0.431,0.051,0.645C289.39-958.428,290.484-958.428,291.579-958.428z M13.087-1131.829
		c-0.238,3.006-0.238,3.006,1.31,2.682C14.151-1129.651,13.746-1130.478,13.087-1131.829z M58.77-961.646
		c-0.204,3.355-0.204,3.355,1.09,3.044C59.711-959.014,59.387-959.921,58.77-961.646z M281.422-936.334
		c0.389-1.865,0.389-1.865-2.606-1.626C280.052-937.188,280.813-936.716,281.422-936.334z M295.189-953.581
		c-0.933,0.959-1.538,1.584-3.049,3.138c2.081-0.437,2.757-0.581,3.507-0.739C295.492-951.994,295.388-952.538,295.189-953.581z
		 M285.42-976.554c-0.365,0.036-0.729,0.073-1.092,0.109c0.156,1.079,0.31,2.157,0.467,3.237c0.208-0.023,0.416-0.044,0.625-0.067
		C285.42-974.367,285.42-975.462,285.42-976.554z M281.449-975.61c-0.404-0.872-0.797-1.718-1.187-2.563
		c-0.196,0.146-0.393,0.29-0.589,0.437c0,0.681,0,1.36,0,2.126C280.429-975.61,280.97-975.61,281.449-975.61z M-57.993-951.939
		c0.199,1.077,0.299,1.622,0.442,2.399c0.651-0.986,1.153-1.743,1.587-2.399C-56.321-951.939-56.861-951.939-57.993-951.939z
		 M257.324-946.163c0.94-0.507,1.743-0.939,3.643-1.963c-2.178,0-2.858,0-3.643,0C257.324-947.382,257.324-946.842,257.324-946.163z
		 M295.518-947.404c0-0.206,0-0.411,0-0.618c-1.236,0-2.47,0-3.706,0c0,0.206,0,0.411,0,0.618
		C293.048-947.404,294.282-947.404,295.518-947.404z M-53.074-967.074c-0.041-0.356-0.083-0.713-0.124-1.07
		c-0.673,0.162-1.348,0.323-2.021,0.483c0.032,0.196,0.063,0.392,0.095,0.588C-54.44-967.074-53.757-967.074-53.074-967.074z
		 M-20.561-967.887c0.041,0.356,0.083,0.713,0.124,1.069c0.673-0.161,1.348-0.321,2.021-0.482c-0.032-0.196-0.063-0.392-0.095-0.588
		C-19.195-967.887-19.879-967.887-20.561-967.887z M96.302-956.979c-0.206,0-0.411,0-0.618,0c0,0.823,0,1.646,0,2.47
		c0.206,0,0.411,0,0.618,0C96.302-955.333,96.302-956.156,96.302-956.979z M99.081-946.17c0-0.206,0-0.411,0-0.617
		c-0.823,0-1.647,0-2.471,0c0,0.205,0,0.41,0,0.617C97.434-946.17,98.258-946.17,99.081-946.17z M274.207-974.276
		c-0.206,0-0.411,0-0.618,0c0,0.824,0,1.648,0,2.471c0.206,0,0.411,0,0.618,0C274.207-972.628,274.207-973.452,274.207-974.276z
		 M292.836-967.871c-0.352,0.022-0.704,0.044-1.058,0.068c0.149,0.689,0.3,1.376,0.45,2.063c0.203-0.027,0.405-0.056,0.608-0.083
		C292.836-966.505,292.836-967.189,292.836-967.871z M103.797-959.661c-0.023-0.352-0.046-0.704-0.069-1.058
		c-0.688,0.151-1.376,0.3-2.063,0.45c0.027,0.203,0.056,0.405,0.083,0.608C102.431-959.661,103.114-959.661,103.797-959.661z
		 M-27.944-940.707c0.016,0.353,0.032,0.708,0.048,1.061c0.696-0.151,1.39-0.303,2.084-0.453c-0.028-0.203-0.056-0.405-0.084-0.608
		C-26.578-940.707-27.261-940.707-27.944-940.707z M288.105-950.493c0,0.206,0,0.411,0,0.618c0.824,0,1.647,0,2.471,0
		c0-0.206,0-0.411,0-0.618C289.752-950.493,288.93-950.493,288.105-950.493z M-32.885-992.596c0.016,0.355,0.032,0.708,0.048,1.063
		c0.696-0.152,1.39-0.303,2.084-0.455c-0.028-0.203-0.056-0.405-0.084-0.608C-31.52-992.596-32.202-992.596-32.885-992.596z
		 M264.844-938.642c0.356-0.044,0.71-0.089,1.065-0.133c-0.159-0.67-0.319-1.341-0.478-2.01c-0.198,0.031-0.392,0.063-0.588,0.095
		C264.844-940.009,264.844-939.326,264.844-938.642z M-54.309-962.132c-0.041-0.356-0.083-0.713-0.124-1.069
		c-0.673,0.161-1.347,0.321-2.02,0.482c0.032,0.196,0.063,0.392,0.095,0.588C-55.676-962.132-54.993-962.132-54.309-962.132z
		 M294.495-962.116c0.355-0.044,0.709-0.089,1.065-0.133c-0.159-0.67-0.32-1.341-0.479-2.01c-0.196,0.031-0.392,0.063-0.587,0.095
		C294.495-963.483,294.495-962.8,294.495-962.116z M-45.692-974.487c-0.016-0.353-0.032-0.708-0.048-1.061
		c-0.694,0.151-1.39,0.303-2.084,0.453c0.028,0.203,0.056,0.405,0.084,0.608C-47.059-974.487-46.376-974.487-45.692-974.487z
		 M163.738-1086.701c0.136,0,0.274,0,0.41,0c0-0.411,0-0.823,0-1.236c-0.136,0-0.274,0-0.41,0
		C163.738-1087.524,163.738-1087.113,163.738-1086.701z M269.985-937.213c0.137,0,0.276,0,0.413,0c0-0.41,0-0.823,0-1.234
		c-0.137,0-0.276,0-0.413,0C269.985-938.036,269.985-937.623,269.985-937.213z M256.807-963.157c-0.137,0-0.276,0-0.413,0
		c0,0.411,0,0.824,0,1.236c0.137,0,0.276,0,0.413,0C256.807-962.333,256.807-962.745,256.807-963.157z M160.854-1085.878
		c0-0.136,0-0.274,0-0.411c-0.411,0-0.823,0-1.236,0c0,0.137,0,0.276,0,0.411C160.031-1085.878,160.443-1085.878,160.854-1085.878z
		 M276.162-935.977c0.137,0,0.276,0,0.413,0c0-0.411,0-0.824,0-1.236c-0.137,0-0.276,0-0.413,0
		C276.162-936.801,276.162-936.389,276.162-935.977z M262.986-959.45c-0.137,0-0.276,0-0.413,0c0,0.411,0,0.824,0,1.236
		c0.137,0,0.276,0,0.413,0C262.986-958.626,262.986-959.039,262.986-959.45z M-12.933-963.157c0.137,0,0.274,0,0.411,0
		c0-0.411,0-0.824,0-1.236c-0.137,0-0.274,0-0.411,0C-12.933-963.981-12.933-963.568-12.933-963.157z M-15.815-963.568
		c0-0.137,0-0.276,0-0.413c-0.411,0-0.824,0-1.236,0c0,0.137,0,0.276,0,0.413C-16.64-963.568-16.228-963.568-15.815-963.568z
		 M107.318-945.861c-0.137,0-0.274,0-0.411,0c0,0.411,0,0.824,0,1.236c0.137,0,0.274,0,0.411,0
		C107.318-945.037,107.318-945.449,107.318-945.861z M274.516-978.394c0-0.136,0-0.274,0-0.411c-0.411,0-0.824,0-1.236,0
		c0,0.137,0,0.276,0,0.411C273.692-978.394,274.105-978.394,274.516-978.394z M-52.879-971.392c0,0.136,0,0.274,0,0.41
		c0.411,0,0.824,0,1.236,0c0-0.136,0-0.274,0-0.41C-52.056-971.392-52.467-971.392-52.879-971.392z M282.753-971.805
		c-0.137,0-0.276,0-0.413,0c0,0.413,0,0.823,0,1.236c0.137,0,0.276,0,0.413,0C282.753-970.982,282.753-971.392,282.753-971.805z
		 M290.577-942.978c0,0.137,0,0.276,0,0.413c0.411,0,0.824,0,1.236,0c0-0.137,0-0.276,0-0.413
		C291.401-942.978,290.988-942.978,290.577-942.978z M254.749-956.156c0-0.137,0-0.274,0-0.411c-0.411,0-0.824,0-1.236,0
		c0,0.137,0,0.274,0,0.411C253.925-956.156,254.337-956.156,254.749-956.156z M261.75-942.154c-0.137,0-0.276,0-0.413,0
		c0,0.411,0,0.824,0,1.236c0.137,0,0.276,0,0.413,0C261.75-941.33,261.75-941.742,261.75-942.154z M-57.821-956.567
		c0,0.137,0,0.274,0,0.411c0.411,0,0.824,0,1.236,0c0-0.137,0-0.274,0-0.411C-56.997-956.567-57.408-956.567-57.821-956.567z"/>
	<path fill="#010202" d="M305.401-937.213c2.311-0.645,3.058,1.574,4.509,2.485c4.405,2.762,8.784,5.566,13.136,8.412
		c0.43,0.282,0.597,0.963,0.887,1.459c-3.255,0.195-5.479-2.145-7.594-3.837C312.732-931.582,307.696-932.681,305.401-937.213z"/>
	<path fill="#010202" d="M307.873-924.858c-0.759-0.141-1.773-0.017-2.236-0.463c-4.11-3.971-8.155-8.015-12.125-12.125
		c-0.446-0.463-0.322-1.477-0.463-2.236C297.989-934.742,302.931-929.799,307.873-924.858z"/>
	<path fill="#010202" d="M297.989-942.154c2.066,0.51,5.653,2.902,7.412,4.941C302.012-937.481,299.59-939.201,297.989-942.154z"/>
	<path fill="#010202" d="M309.108-923.622c-0.411-0.411-0.824-0.824-1.236-1.236C308.284-924.446,308.697-924.034,309.108-923.622z"
		/>
	<path fill="#010202" d="M-70.175-934.742c0.484-1.951,1.789-2.669,3.707-2.471C-66.953-935.262-68.258-934.543-70.175-934.742z"/>
	<path fill="#010202" d="M-73.881-932.27c0.484-1.951,1.789-2.67,3.707-2.471C-70.659-932.79-71.964-932.071-73.881-932.27z"/>
	<path fill="#010202" d="M-66.469-937.213c0.484-1.95,1.789-2.669,3.707-2.47C-63.247-937.732-64.551-937.013-66.469-937.213z"/>
	<path fill="#010202" d="M-57.821-935.977c-0.411,0.411-0.824,0.824-1.236,1.236C-58.644-935.153-58.232-935.566-57.821-935.977z"/>
	<path fill="#010202" d="M-59.057-934.742c-0.411,0.411-0.824,0.824-1.236,1.236C-59.88-933.917-59.468-934.33-59.057-934.742z"/>
	<path fill="#010202" d="M-60.292-933.506c-0.411,0.411-0.823,0.824-1.236,1.236C-61.115-932.682-60.704-933.094-60.292-933.506z"/>
	<path fill="#010202" d="M-61.527-932.27c-0.411,0.411-0.824,0.824-1.236,1.236C-62.351-931.446-61.939-931.859-61.527-932.27z"/>
	<path fill="#010202" d="M-62.762-931.035c-0.411,0.411-0.824,0.824-1.236,1.236C-63.586-930.211-63.175-930.623-62.762-931.035z"/>
	<path fill="#010202" d="M-63.998-929.799c-0.411,0.411-0.824,0.824-1.236,1.236C-64.822-928.975-64.411-929.388-63.998-929.799z"/>
	<path fill="#010202" d="M-65.233-928.563c-0.411,0.411-0.824,0.824-1.236,1.234C-66.056-927.739-65.645-928.152-65.233-928.563z"/>
	<path fill="#010202" d="M-66.469-927.329c-0.411,0.411-0.824,0.824-1.236,1.236C-67.292-926.505-66.881-926.918-66.469-927.329z"/>
	<path fill="#010202" d="M-67.705-926.094c-0.411,0.411-0.824,0.824-1.236,1.236C-68.528-925.269-68.116-925.682-67.705-926.094z"/>
	<path fill="#010202" d="M-68.94-924.858c-0.411,0.411-0.824,0.824-1.236,1.236C-69.763-924.034-69.352-924.446-68.94-924.858z"/>
	<path fill="#010202" d="M-70.175-923.622c-0.411,0.411-0.824,0.824-1.236,1.236C-70.999-922.798-70.587-923.211-70.175-923.622z"/>
	<path fill="#010202" d="M-71.41-922.387c-0.411,0.411-0.824,0.824-1.236,1.236C-72.234-921.563-71.823-921.975-71.41-922.387z"/>
	<path fill="#010202" d="M236.217-931.035c1.362-3.339,4.741-4.347,7.38-6.091c2.292-1.517,4.247-3.97,7.445-3.792
		c-0.311,2.461-2.825,2.348-4.233,3.512c-2.633,2.172-5.518,4.048-8.37,5.942C237.858-931.08,236.965-931.166,236.217-931.035z"/>
	<path fill="#010202" d="M225.098-923.622c1.6-2.953,4.022-4.672,7.412-4.941C230.909-925.612,228.487-923.892,225.098-923.622z"/>
	<path fill="#010202" d="M251.042-940.918c0.484-1.951,1.789-2.67,3.707-2.471C254.265-941.438,252.96-940.719,251.042-940.918z"/>
	<path fill="#010202" d="M232.511-928.563c0.484-1.951,1.789-2.67,3.707-2.471C235.733-929.084,234.428-928.365,232.511-928.563z"/>
	<path fill="#010202" d="M221.391-921.151c0.484-1.951,1.789-2.67,3.707-2.471C224.614-921.671,223.309-920.952,221.391-921.151z"/>
	<path fill="#010202" d="M217.684-918.68c0.484-1.951,1.789-2.67,3.707-2.471C220.907-919.2,219.602-918.481,217.684-918.68z"/>
	<path fill="#010202" d="M-50.409-977.982c-3.833-1.848-4.925-5.894-7.102-9.032c-4.071-5.869-7.903-11.907-11.768-17.916
		c-0.497-0.773-0.607-1.795-0.896-2.703c3.45,1.904,4.436,5.753,6.615,8.637c4.666,6.176,8.816,12.743,13.115,19.189
		C-50.16-979.379-50.409-978.598-50.409-977.982z"/>
	<path fill="#010202" d="M306.637-1003.927c0.269-3.389,1.989-5.811,4.942-7.412
		C311.069-1009.273,308.678-1005.686,306.637-1003.927z"/>
	<path fill="#010202" d="M311.579-1011.339c-0.199-1.918,0.52-3.221,2.47-3.706C314.248-1013.128,313.53-1011.824,311.579-1011.339z
		"/>
	<path fill="#010202" d="M-56.585-927.329c-0.015,2.977-2.18,4.782-3.661,7.016c-3.465,5.224-6.613,10.657-10.068,15.886
		c-0.828,1.253-2.36,2.041-3.567,3.043c-0.901-2.529,1.658-3.456,2.592-4.988c4.171-6.846,8.77-13.434,13.258-20.085
		C-57.744-926.881-57.076-927.044-56.585-927.329z"/>
	<path fill="#010202" d="M-51.643-934.742c0.199,1.918-0.52,3.222-2.471,3.707C-54.313-932.952-53.594-934.257-51.643-934.742z"/>
	<path fill="#010202" d="M-54.114-931.035c0.199,1.918-0.52,3.222-2.471,3.706C-56.783-929.246-56.065-930.55-54.114-931.035z"/>
	<path fill="#010202" d="M216.45-996.513c2.954,0.017,4.789,2.04,6.937,3.656c2.681,2.018,5.949,3.266,7.888,6.227
		c-1.579-0.55-3.578-0.675-4.659-1.734c-2.791-2.737-6.172-4.53-9.307-6.718C216.892-995.371,216.731-996.026,216.45-996.513z"/>
	<path fill="#010202" d="M238.687-981.688c1.918-0.198,3.222,0.52,3.707,2.471C240.476-979.019,239.172-979.737,238.687-981.688z"/>
	<path fill="#010202" d="M234.982-984.16c1.916-0.198,3.221,0.52,3.706,2.471C236.77-981.489,235.466-982.209,234.982-984.16z"/>
	<path fill="#010202" d="M231.275-986.63c1.918-0.199,3.222,0.52,3.707,2.47C233.064-983.961,231.759-984.68,231.275-986.63z"/>
	<path fill="#010202" d="M234.982-1017.516c2.952,1.601,4.672,4.023,4.941,7.412C237.883-1011.863,235.492-1015.45,234.982-1017.516
		z"/>
</g>
<g>
	<path fill="#010202" d="M908.131-960.464c-66.945-59.805-135.938-121.445-207.377-185.273c134.305,0,264.872,0,395.285,0
		C1033.841-1084.415,971.798-1023.241,908.131-960.464z"/>
	<path fill="none" d="M614.929-820.163c0-188.974,0-377.952,0-566.929c188.974,0,377.952,0,566.929,0c0,188.974,0,377.952,0,566.929
		C992.881-820.163,803.904-820.163,614.929-820.163z"/>
</g>
<g>
	<path fill="none" d="M0,566.929C0,377.952,0,188.974,0,0c188.973,0,377.953,0,566.929,0c0,188.974,0,377.952,0,566.929
		C377.953,566.929,188.973,566.929,0,566.929z"/>
	<g>
		<path fill="#010202" d="M469.319,118.687c0,23.802,0,46.773,0,70.644c-123.882,0-247.153,0-371.722,0c0-23.069,0-46.355,0-70.644
			C221.407,118.687,344.994,118.687,469.319,118.687z"/>
		<path fill="#010202" d="M469.332,377.64c0,23.68,0,46.645,0,70.602c-123.898,0-247.174,0-371.722,0c0-23.03,0-46.349,0-70.602
			C221.37,377.64,344.983,377.64,469.332,377.64z"/>
		<path fill="#010202" d="M469.332,248.174c0,23.68,0,46.645,0,70.602c-123.898,0-247.174,0-371.722,0c0-23.03,0-46.349,0-70.602
			C221.37,248.174,344.983,248.174,469.332,248.174z"/>
	</g>
</g>
</svg>
