<?xml version="1.0" encoding="utf-8"?>
<!-- Generator: Adobe Illustrator 17.0.0, SVG Export Plug-In . SVG Version: 6.00 Build 0)  -->
<!DOCTYPE svg PUBLIC "-//W3C//DTD SVG 1.1//EN" "http://www.w3.org/Graphics/SVG/1.1/DTD/svg11.dtd">
<svg version="1.1" id="Layer_1" xmlns="http://www.w3.org/2000/svg" xmlns:xlink="http://www.w3.org/1999/xlink" x="0px" y="0px"
	 width="3812.92px" height="1143.669px" viewBox="0 0 3812.92 1143.669" enable-background="new 0 0 3812.92 1143.669"
	 xml:space="preserve">
<g>
	<rect x="5.727" y="573.018" width="3801.466" height="566.929"/>
	<g>
		<g>
			<path fill="#FFFFFF" d="M2628.999,703.228c4.276,8.504,3.805,17.263,3.798,26.64c-0.006,9.031,5.446,18.311,9.474,27.03
				c4.286,9.28,13.057,12.961,22.045,17.32c13.622,6.606,27.57,9.095,42.259,10.87c6.837,0.827,13.168,5.806,20.046,9.051
				c5.422,0,11.459,0,17.89,0c1.888-4.057,3.811-8.184,5.652-12.139c4.638,0.603,8.334,1.086,11.753,1.53
				c2.704,3.051,5.265,5.94,7.827,8.829c0.743-0.434,1.487-0.864,2.229-1.297c-1.232-4.443-2.728-8.832-3.647-13.339
				c-1.89-9.272-4.097-18.554-4.881-27.94c-0.326-3.901,1.605-10.171,4.41-11.578c3.229-1.62,9.463-0.369,12.811,1.934
				c12.076,8.314,18.53,21.288,25.273,33.804c4.146,7.695,7.796,15.657,11.87,23.914c6.645,0.494,13.431,1.141,15.513,9.343
				c1.595,6.28,3.421,12.5,5.112,18.756c2.465,9.136,5.244,18.207,7.239,27.444c1.504,6.965,1.987,14.146,3.128,22.771
				c-2.701-1.631-3.431-2.072-4.826-2.914c3.801,9.912,6.78,21.008,1.006,28.769c-5.245,7.053-15.559,10.339-24.558,15.849
				c0.38,0.934,1.167,2.879,2.026,4.994c28.016-6.744,55.162-9.669,81.714,1.503c0.305,7.89,0.305,7.89-26.089,11.712
				c30.877,9.022,53.602,25.943,65.536,55.368c8.953,22.075,9.176,44.062,1.094,66.585c-15.082,42.017-59.831,67.013-105.225,57.298
				c-25.823-5.53-45.575-20.336-58.905-43.273c-13.263-22.822-16.364-47.07-8.758-72.619c-6.233,0.915-11.707,1.716-18.607,2.728
				c0.801-18.452,8.894-31.516,19.172-42.928c9.994-11.097,21.544-20.794,31.472-30.216c-5.857-0.969-12.963-2.145-22.56-3.731
				c-5.187,4.48-12.126,10.474-18.598,16.063c1.247,3.983,1.871,5.978,2.432,7.77c-4.834,15.11-14.167,25.684-29.956,31.568
				c7.327,11.904-0.243,21.977-4.527,32.404c-6.303,15.342-13.151,30.463-19.831,45.65c-0.838,1.906-2.072,3.639-3.312,5.776
				c-17.456,0-34.714,0.337-51.937-0.259c-3.861-0.134-7.7-3.378-11.386-5.476c-7.451-4.241-14.666-9.3-23.394-4.208
				c-5.806-4.561-11.045-8.677-16.724-13.136c-3.811,4.837-6.701,8.509-9.735,12.358c-0.213,2.172-0.443,4.487-0.781,7.934
				c-2.805,0.498-5.674,1.413-8.554,1.449c-16.597,0.202-33.201,0.064-49.797,0.316c-7.377,0.111-13.865-0.897-16.872-9.333
				c-5.576,0-10.882,0-16.932,0c-13.683,34.339-37.723,56.878-75.226,62.543c-25.182,3.804-48.345-2.593-68.114-18.224
				c-40.618-32.112-47.526-89.528-15.256-129.355c18.875-23.295,43.594-34.927,73.958-34.195
				c30.426,0.734,53.554,15.149,71.977,37.923c16.087-4.839,19.067-18.24,23.396-31.448c-3.009-0.504-5.268-0.881-8.654-1.447
				c-0.373-3.044-1.198-6.21-1.047-9.33c0.276-5.728-1.766-10.085-6.174-13.603c-5.554-4.434-10.921-9.106-16.549-13.441
				c-1.597-1.23-3.894-2.455-5.752-2.297c-15.823,1.339-28.734-6.96-42.404-12.596c-7.873-3.243-15.267-7.685-23.213-10.7
				c-3.733-1.416-8.328-1.343-12.412-0.882c-9.855,1.111-19.772,2.27-29.425,4.461c-18.543,4.211-28.29,18.749-37.581,33.591
				c-1.412,2.254-3.015,4.389-5.19,6.057c6.306-28.543,26.885-44.554,52.533-57.611c-9.109-0.869-16.411-1.568-23.712-2.266
				c0.04-0.347,0.081-0.695,0.121-1.043c-2.98,0.162-5.958,0.326-9.842,0.536c-0.924-4.558-1.743-8.597-2.583-12.731
				c1.926-1.345,3.413-2.386,5.004-3.499c-0.132-1.846-0.263-3.659-0.377-5.248c-9.617-0.538-18.899-0.424-27.924-1.888
				c-3.424-0.556-6.259-4.745-9.343-7.262c0-49.814,0-99.245,0-149.415c65.385,0,130.176,0,195.816,0
				c0.268,3.447,0.731,6.649,0.734,9.851c0.048,42.213,0.038,84.426,0.028,126.638c-0.003,12.498-8.298,21.026-20.888,21.56
				c-0.926,0.039-1.846,0.212-4.855,0.575c8.045,6.306,14.816,11.611,23.081,18.09c1.025-12.429-0.44-23.901,9.122-31.853
				c2.513,0.28,4.822,0.539,7.13,0.798c-10.388-2.203-6.938-12.617-12.233-20.296c3.694-8.773,7.831-18.594,11.645-27.652
				c-1.123,1.326-2.937,3.469-5.489,6.484c-0.389-2.253-1.015-3.585-0.754-4.709c7.261-31.171,18.46-60.783,37.035-87.038
				c9.072-12.822,22.942-17.9,38.287-18.51c10.37-0.414,21.08,1.496,29.592-6.778c4.279,2.478,7.912,4.58,11.547,6.684
				c8.597,9.061,17.192,18.122,25.788,27.182c0,1.738,0,3.475,0,4.967c-5.791,1.033-10.968,1.955-16.905,3.014
				c-1.917-1.721-4.611-4.137-7.305-6.555c-2.313-4.174-3.674-9.516-7.11-12.306c-10.828-8.793-23.736-12.7-37.701-11.416
				c-7.065,0.649-14.003,2.704-20.998,4.123c0.142,0.659,0.283,1.318,0.426,1.977c1.555-0.468,3.115-0.922,4.668-1.406
				c21.792-6.798,41.052-4.178,56.003,14.884C2625.527,700.725,2627.403,701.866,2628.999,703.228z M2431.198,852.648
				c-15.866-5.029-31.732-10.057-47.598-15.088c-0.293,1.062-0.588,2.123-0.881,3.183c16.162,3.965,32.323,7.93,48.485,11.896
				c3.785,1.284,7.488,2.953,11.37,3.785c12.545,2.687,24.997,5.315,33.04,16.859c0.874,1.254,2.61,2.039,4.097,2.711
				c18.544,8.391,37.442,15.515,59.448,15.446c-3.421-1.01-5.741-1.971-8.153-2.355c-6.383-1.022-12.957-1.215-19.172-2.826
				c-6.371-1.654-12.298-4.951-18.615-6.896c-8.843-2.724-16.179-7.38-22.185-14.419c-1.785-2.092-4.175-4.392-6.683-5.018
				C2453.38,857.185,2442.263,855.022,2431.198,852.648z M2735.69,816.36c-19.004,9.217-22.761,8.539-26.542-4.998
				c-20.218,5.285-40.661,9.912-60.763,6.577c-2.764-5.997-4.985-10.82-7.207-15.64c-0.327,0.206-0.655,0.411-0.982,0.618
				c1.537,4.669,3.074,9.34,5.08,15.441c-22.989,3.364-38.265-2.855-44.853-25.2c-8.238,7.552,2.078,16.047-3.225,22.629
				c-2.01,1.348-3.948,2.647-7.383,4.951c2.246,3.021,3.813,7.493,6.438,8.238c9.19,2.611,18.318,5.863,28.453,3.357
				c30.271-7.481,60.425-7.689,90.176,3.063c2.895,1.046,6.183,1.009,9.152,1.453c1.503-3.721,2.546-6.309,3.679-9.118
				c4.806-1.402,9.465-2.759,15.704-4.581C2739.975,820.127,2737.684,818.112,2735.69,816.36z M2810.179,796.005
				c0-1.385,0.259-2.219-0.037-2.734c-9.13-15.933-18.139-31.943-27.606-47.676c-2.606-4.33-7.188-4.957-13.31-1.878
				c-2.653,17.818,2.427,34.951,7.678,50.496c8.302,1.405,15.246,2.58,22.187,3.755c-0.061,0.37-0.122,0.74-0.184,1.107
				C2802.513,798.093,2806.118,797.111,2810.179,796.005z M2839.71,961.043c19.353-4.07,37.923-2.503,54.873,7.828
				c17.392,10.601,26.879,26.831,30.964,46.555c4.977,24.047-7.474,58.899-38.567,73.12c-26.047,11.916-61.497,4.104-79.949-19.037
				c-9.162-11.489-14.339-24.716-14.908-39.882c-0.995-26.582,11.313-45.976,33.502-62.23c-15.995,3.785-35.863,28.56-37.212,56.514
				c-1.47,30.438,19.007,60.013,50.541,70.326c29.317,9.587,63.471-3.727,80.318-30.463c16.435-26.081,12.778-65.78-12.183-89.171
				C2887.298,956.049,2852.424,951.997,2839.71,961.043z M2468.494,984.848c-11.15-19.858-46.218-37.456-78.367-24.718
				c-34.948,13.845-53.094,47.262-45.13,83.319c7.074,32.04,39.962,55.747,73.504,53.806c29.827-1.723,57.076-27.994,58.146-43.966
				c-12.727,21.119-27.683,36.376-51.298,39.868c-23.726,3.508-44.141-3.077-60.686-20.41
				c-22.657-23.737-24.524-60.043-4.365-86.639c9.231-12.179,21.265-20.858,36.398-24.558
				C2425.226,954.575,2448.755,963.477,2468.494,984.848z M2413.98,990.243c-1.148-6.064-2.197-11.607-3.124-16.504
				c-15.529-3.962-37.675,8.768-42.623,23.165c7.411,0.878,14.844,1.762,22.307,2.648c3.461-1.914,6.82-4.19,10.494-5.685
				C2404.668,992.391,2408.623,991.699,2413.98,990.243z M2363.4,1004.295c-7.733,14.914-6.071,39.04,1.635,45.632
				c12.999-9.336,16.391-22.687,15.267-39.571C2375.301,1008.564,2369.389,1006.443,2363.4,1004.295z M2892.74,1008.959
				c4.322-3.432,9.166-7.282,14.176-11.262c-11.393-15.922-24.74-24.695-42.719-26.528c2.53,6.011,4.634,11.446,7.115,16.703
				c1.163,2.463,2.717,4.948,4.689,6.784C2880.786,999.107,2885.915,1003.183,2892.74,1008.959z M2826.01,1010.569
				c-5.761-1.997-11.51-3.989-16.98-5.884c-7.9,14.124-7.113,35.831,1.053,45.972c4.854-5.751,9.668-11.454,14.044-16.639
				C2824.738,1026.431,2825.301,1019.411,2826.01,1010.569z M2910.634,1007.498c-12.646,13.192-17.747,23.366-18.722,38.157
				c4.861,2.126,10.156,4.44,15.049,6.58C2915.978,1040.699,2917.385,1019.712,2910.634,1007.498z M2370.459,1059.095
				c5.365,12.159,25.959,23.79,36.444,21.196c-1.783-6.541-3.566-13.08-5.315-19.495c-4.19-3.35-7.992-6.956-12.364-9.634
				c-2.022-1.238-5.753-1.75-7.656-0.694C2377.417,1052.771,2373.94,1056.289,2370.459,1059.095z M2815.055,1059.158
				c7.375,12.66,26.451,23.13,37.108,21.348c-1.748-15.776-7.512-23.899-23.324-31.696
				C2824.652,1051.951,2819.95,1055.482,2815.055,1059.158z M2862.609,1080.434c14.463,2.627,35.461-8.658,37.682-19.101
				c-19.632-5.594-21.604-5.49-37.682,2.337C2862.609,1068.919,2862.609,1074.574,2862.609,1080.434z M2417.857,1080.282
				c11.992,2.453,30.928-7.087,37.786-18.065c-16.869-6.973-24.366-6.687-37.786,1.493
				C2417.857,1069.151,2417.857,1074.638,2417.857,1080.282z M2460.201,996.707c-12.091-4.338-24.029-8.576-32.464-18.334
				c0.253-0.598,0.507-1.197,0.761-1.796c3.572,0.598,7.144,1.195,10.716,1.792c0.155-0.636,0.31-1.275,0.465-1.913
				c-6.767-1.822-13.533-3.645-21.568-5.808c2.896,5.916,5.92,10.098,6.978,14.73c1.494,6.548,5.542,10.165,10.901,13.081
				C2442.028,1001.747,2455.691,1001.041,2460.201,996.707z M2677.92,870.891c0.497,10.979,1.063,23.512,1.612,35.614
				c12.562,1.987,24.994,3.951,37.429,5.917c0.084-0.441,0.164-0.88,0.248-1.321c-12.276-2.643-24.552-5.287-36.792-7.921
				c0.589-9.936,1.086-18.302,1.702-28.727c18.183,3.144,35.182,6.082,52.145,9.015c-2.166-1.392-4.625-4.12-7.46-4.592
				c-11.907-1.988-23.951-3.144-35.895-4.937C2685.811,873.177,2680.837,871.594,2677.92,870.891z M2533.33,958.51
				c3.259-6.522,6.586-13.184,10.191-20.4c-1.79-2.216-3.349-4.14-6.135-7.585c0.09,10.295-6.094,9.266-11.304,9.276
				c-1.11,6.394-2.133,12.278-3.252,18.709C2526.509,958.51,2529.042,958.51,2533.33,958.51z M2837.678,999.551
				c0.475-0.686,0.949-1.373,1.425-2.058c-2.859-5.856-5.718-11.711-9.318-19.086c-6.504,6.393-11.735,11.531-16.963,16.667
				c0.436,0.608,0.868,1.214,1.302,1.82C2821.974,997.78,2829.825,998.665,2837.678,999.551z M2445.888,1043.824
				c5.523,5.277,11.032,8.036,19.079,4.709c0.804-3.031,1.719-6.476,2.936-11.063c-7.262,0-13.182,0-19.718,0
				C2447.443,1039.522,2446.685,1041.618,2445.888,1043.824z M2794.209,801.353c-5.346-4.251-10.027-5.653-15.25,0.408
				c1.24,3.35,2.564,6.93,4.116,11.121c4.884-0.953,8.879-1.732,13.505-2.634C2795.652,806.774,2794.947,804.12,2794.209,801.353z
				 M2856.26,991.575c1.137-0.46,2.274-0.919,3.41-1.382c-1.346-6.19-2.695-12.379-4.115-18.906
				c-4.639,0.72-7.505,1.163-12.401,1.923C2848.967,979.694,2847.779,988.945,2856.26,991.575z M2517.055,1049.368
				c0-3.754,0-7.061,0-11.318c-3.773-0.547-7.027-1.019-10.891-1.577c-1.271,4.597-2.29,8.287-3.563,12.896
				C2507.92,1049.368,2512.157,1049.368,2517.055,1049.368z M2522.584,897.684c-0.174,0.67-0.346,1.339-0.518,2.011
				c20.194,5.492,40.389,10.986,60.582,16.479c0.239-0.924,0.48-1.85,0.72-2.774
				C2563.108,908.162,2542.846,902.924,2522.584,897.684z M2598.985,891.672c-0.104,0.463-0.208,0.927-0.31,1.393
				c10.347,4.181,20.698,8.361,31.358,12.667c-0.998,2.341-1.827,4.285-2.656,6.229c0.663,0.206,1.326,0.41,1.99,0.615
				c1.006-3.243,2.012-6.488,2.899-9.34C2620.517,899.154,2609.751,895.412,2598.985,891.672z M2615.949,924.957
				c0.243-1.057,0.485-2.115,0.729-3.172c-9.044-2.083-18.089-4.168-27.133-6.255c-0.182,0.805-0.366,1.612-0.548,2.418
				C2597.981,920.284,2606.965,922.62,2615.949,924.957z M2590.874,1031.16c-0.461,0.208-0.922,0.416-1.385,0.623
				c0.581,1.275,1.16,2.552,1.739,3.827c0.367-0.155,0.734-0.31,1.099-0.465C2591.844,1033.815,2591.359,1032.489,2590.874,1031.16z
				"/>
			<path fill="#FFFFFF" d="M2653.181,701.828c-8.596-9.061-17.191-18.12-25.788-27.182c-4.616-4.392-9.535-8.517-13.721-13.285
				c-2.2-2.505-4.249-6.067-4.437-9.266c-1.366-23.322,12.129-52.61,43.469-56.603c21.311-2.715,52.354,12.761,60.345,31.196
				c3.669,8.46,4.908,17.091-0.191,26.114c-3.744-0.502-7.117-0.955-10.49-1.406c-0.066,0.259-0.13,0.517-0.194,0.776
				c3.377,1.281,6.752,2.562,9.832,3.729c0.904,11.985-4.922,30.359-10.643,33.756c-1.76-0.485-3.747-1.032-7.094-1.954
				c3.545,3.132,6.061,5.354,9.518,8.405c-1.868,3.353-2.916,7.346-5.502,9.446c-5.633,4.574-11.813,8.627-18.218,12.051
				c-5.56,2.973-11.016,1.661-15.385-3.24C2660.911,710.13,2657.019,706.002,2653.181,701.828z"/>
			<path fill="#FFFFFF" d="M2308.071,678.577c-2.715-13.842,2.98-21.222,16.031-21.241c54.305-0.08,108.61-0.078,162.914-0.001
				c13.085,0.018,18.759,7.313,16.106,21.242C2438.337,678.577,2373.378,678.577,2308.071,678.577z"/>
		</g>
		<g>
			<path fill="#FFFFFF" d="M2270.436,785.106c-0.365,0.844-0.766,1.674-1.089,2.534c-19.464,51.835-38.912,103.677-58.391,155.507
				c-3.018,8.029-6.687,15.734-11.732,22.734c-7.348,10.198-17.188,15.877-29.752,17.102c-15.672,1.529-30.385-1.265-44.127-9.004
				c-0.613-0.345-1.203-0.73-1.997-1.214c4.837-10.438,9.626-20.771,14.478-31.242c1.5,0.745,2.83,1.432,4.183,2.072
				c5.186,2.454,10.526,4.111,16.391,3.786c6.173-0.342,9.915-3.846,12.554-9.011c0.47-0.921,0.063-1.687-0.257-2.507
				c-3.4-8.71-6.781-17.428-10.181-26.138c-13.104-33.568-26.212-67.133-39.321-100.698c-0.306-0.784-0.646-1.556-1.419-2.235
				c0,6.656,0,13.312,0,20.174c-2.19,0.11-4.164,0.207-6.138,0.308c-8.121,0.413-15.778,2.385-22.705,6.786
				c-8.652,5.497-13.946,13.44-16.803,23.142c-2.186,7.424-2.969,15.037-2.973,22.747c-0.009,17.919-0.003,35.838-0.003,53.757
				c0,0.955,0,1.911,0,2.822c-1.83,0.626-36.987,0.889-42.928,0.363c-0.05-0.052-0.107-0.108-0.16-0.168
				c-0.051-0.059-0.141-0.121-0.141-0.182c-0.048-49.993-0.089-99.986-0.127-149.979c-0.001-0.55,0.057-1.101,0.085-1.616
				c1.814-0.477,39.16-0.651,43.237-0.192c0,9.635,0,19.313,0,28.991c0.148,0.021,0.296,0.041,0.444,0.062
				c1.007-1.959,1.976-3.94,3.029-5.874c3.355-6.161,7.596-11.624,12.818-16.334c6.031-5.44,13.165-8.388,21.136-9.337
				c3.244-0.386,6.537-0.359,9.808-0.502c0.382-0.017,0.769,0.079,1.211,0.13c0.105,0.862,0.199,1.628,0.325,2.66
				c6.285,0,12.504,0,18.722,0c6.234,0,12.468,0,18.958,0c11.452,34.246,22.89,68.451,34.311,102.605
				c0.245,0,0.33,0.016,0.404-0.005c0.067-0.018,0.16-0.063,0.177-0.117c10.966-34.061,21.926-68.124,32.921-102.293
				c0.545-0.064,1.08-0.181,1.615-0.182c13.919-0.01,27.838-0.009,41.758-0.004c0.559,0,1.118,0.049,1.677,0.074
				C2270.436,784.786,2270.436,784.946,2270.436,785.106z"/>
			<path fill="#FFFFFF" d="M634.783,937.024c0-66.448,0-132.57,0-198.864c0.779-0.062,1.469-0.165,2.159-0.165
				c30.477-0.008,60.954-0.03,91.432,0.006c10.453,0.013,20.731,1.308,30.624,4.872c9.354,3.37,17.492,8.556,23.854,16.306
				c5.698,6.942,8.787,14.961,9.719,23.851c0.723,6.894,0.58,13.756-1.293,20.462c-3.387,12.13-10.739,21.259-21.444,27.77
				c-0.811,0.493-1.614,1.001-2.668,1.655c1.011,0.442,1.786,0.794,2.572,1.122c7.96,3.323,15.239,7.688,21.518,13.684
				c6.112,5.836,9.854,12.9,11.461,21.145c1.814,9.303,1.874,18.607-0.424,27.823c-3.304,13.251-11.412,22.837-23.125,29.537
				c-8.505,4.865-17.763,7.515-27.359,9.116c-7.59,1.266-15.241,1.695-22.931,1.689c-30.317-0.022-60.634-0.009-90.952-0.009
				C636.912,937.024,635.895,937.024,634.783,937.024z M677.566,854.897c0,14.675,0,29.033,0,43.571c1.121,0,2.071,0,3.021,0
				c16.394,0,32.788,0.029,49.182-0.026c3.028-0.01,6.076-0.195,9.078-0.584c4.708-0.61,9.207-1.98,13.265-4.552
				c4.205-2.665,6.89-6.423,7.757-11.323c0.386-2.185,0.471-4.447,0.459-6.673c-0.024-4.124-1.367-7.838-3.948-11.078
				c-3.225-4.049-7.551-6.288-12.452-7.608c-5.137-1.384-10.401-1.783-15.673-1.809c-16.074-0.079-32.148-0.03-48.222-0.024
				C679.252,854.79,678.471,854.856,677.566,854.897z M677.521,818.137c0.648,0.064,1.184,0.163,1.72,0.163
				c13.826,0.008,27.653,0.078,41.478-0.025c6.687-0.05,13.189-1.225,19.208-4.362c4.234-2.206,7.178-5.486,8.579-10.123
				c0.753-2.492,0.852-5.021,0.812-7.584c-0.114-7.206-3.373-12.495-9.708-15.889c-4.978-2.667-10.409-3.674-15.948-3.73
				c-14.943-0.153-29.888-0.097-44.832-0.11c-0.443,0-0.886,0.155-1.309,0.234C677.521,790.579,677.521,804.296,677.521,818.137z"/>
			<path fill="#FFFFFF" d="M1247.277,937.024c0-66.417,0-132.531,0-198.82c0.637-0.075,1.242-0.207,1.846-0.207
				c25.756-0.01,51.511-0.072,77.267,0.014c16.836,0.056,33.028,3.296,48.32,10.522c23.874,11.281,40.808,29.036,50.033,53.903
				c3.758,10.131,5.519,20.639,5.804,31.444c0.287,10.867-0.699,21.566-3.777,32.002c-8.459,28.676-26.757,48.787-53.727,61.214
				c-13.229,6.096-27.192,9.244-41.734,9.747c-5.512,0.191-11.032,0.169-16.549,0.174c-21.436,0.018-42.873,0.007-64.309,0.007
				C1249.432,937.024,1248.413,937.024,1247.277,937.024z M1291.259,897.427c1.031,0,1.894,0,2.756,0
				c10.24,0,20.48-0.034,30.72,0.014c5.06,0.024,10.067-0.414,15.006-1.471c17.961-3.846,31.303-13.803,39.129-30.506
				c7.585-16.188,7.895-32.96,2.295-49.762c-4.439-13.319-12.808-23.659-25.193-30.548c-9.591-5.334-19.99-7.52-30.856-7.627
				c-10.559-0.104-21.12-0.025-31.679-0.017c-0.695,0-1.39,0.085-2.177,0.137C1291.259,817.568,1291.259,857.31,1291.259,897.427z"
				/>
			<path fill="#FFFFFF" d="M922.034,936.882c-14.481,0-28.696,0-42.945,0c-0.032-0.037-0.086-0.096-0.138-0.156
				c-0.051-0.06-0.143-0.121-0.143-0.181c-0.048-68.389-0.09-136.778-0.128-205.167c0-0.549,0.061-1.099,0.102-1.796
				c14.373,0,28.645,0,43.192,0c0,36.508,0,73.006,0,110.119c1.016-1.011,1.627-1.57,2.183-2.18
				c15.631-17.123,31.267-34.242,46.862-51.398c0.994-1.094,1.966-1.614,3.482-1.609c15.838,0.053,31.677,0.032,47.515,0.038
				c0.606,0,1.212,0.073,2.29,0.142c-19.435,20.11-38.574,39.914-57.9,59.911c19.886,30.641,39.754,61.255,59.782,92.115
				c-0.793,0.133-1.294,0.29-1.795,0.29c-15.278,0.014-30.557-0.012-45.835,0.05c-1.538,0.006-2.269-0.679-3.01-1.841
				c-12.16-19.079-24.351-38.138-36.536-57.201c-0.595-0.93-1.205-1.851-1.979-3.036c-1.203,1.215-2.263,2.252-3.285,3.325
				c-3.527,3.706-7.004,7.461-10.584,11.115c-1.019,1.041-1.144,2.167-1.142,3.482c0.021,13.679,0.013,27.357,0.013,41.036
				C922.034,934.815,922.034,935.69,922.034,936.882z"/>
			<path fill="#FFFFFF" d="M2016.802,875.873c-35.588,0-70.687,0-105.913,0c0,0.606-0.083,1.065,0.012,1.483
				c3.73,16.35,14.891,25.724,30.086,27.793c15.66,2.132,29.184-2.576,40.965-12.837c0.841-0.732,1.695-1.45,2.737-2.34
				c8.218,7.268,16.399,14.504,24.711,21.854c-0.411,0.579-0.723,1.107-1.117,1.563c-12.27,14.219-27.491,23.208-46.204,25.911
				c-16.944,2.447-33.549,1.262-49.359-5.693c-23.76-10.452-38.206-28.772-43.435-54c-4.128-19.915-1.961-39.356,7.506-57.6
				c10.151-19.562,25.864-32.417,47.276-38.009c8.661-2.262,17.502-2.64,26.422-1.915c8.602,0.699,16.899,2.493,24.727,6.207
				c17.293,8.205,28.853,21.626,35.562,39.362c4.199,11.098,6.146,22.651,6.274,34.499
				C2017.1,866.617,2016.897,871.088,2016.802,875.873z M1974.708,848.755c0-0.586,0.055-0.986-0.008-1.367
				c-0.802-4.833-2.128-9.516-4.423-13.859c-3.614-6.839-8.574-12.297-16.042-15.046c-5.289-1.947-10.762-2.285-16.289-1.587
				c-5.755,0.727-10.929,2.898-15.294,6.813c-4.182,3.751-7.184,8.326-9.328,13.48c-1.529,3.677-2.689,7.462-3.24,11.567
				C1931.668,848.755,1953.061,848.755,1974.708,848.755z"/>
			<path fill="#FFFFFF" d="M1553.432,889.972c8.352,7.396,16.537,14.644,24.783,21.946c-5.199,6.443-11.084,11.785-17.814,16.207
				c-10.151,6.67-21.296,10.464-33.362,11.683c-14.019,1.416-27.812,0.535-41.1-4.43c-25.854-9.66-41.846-28.193-47.75-55.008
				c-4.416-20.054-2.264-39.65,7.182-58.078c10.134-19.769,25.965-32.723,47.556-38.337c8.183-2.128,16.553-2.563,24.987-1.983
				c8.187,0.563,16.172,2.023,23.737,5.289c17.637,7.613,29.771,20.615,37.031,38.256c4.394,10.675,6.426,21.882,7.045,33.376
				c0.301,5.588,0.17,11.153-0.469,16.933c-35.247,0-70.4,0-105.879,0c0.175,0.936,0.264,1.6,0.426,2.246
				c2.063,8.229,5.951,15.318,12.92,20.435c6.54,4.802,13.996,6.758,22.006,7.096c13.478,0.568,25.046-4.068,35.203-12.673
				C1551.025,892.004,1552.119,891.082,1553.432,889.972z M1543.62,848.759c-1.187-8.14-3.756-15.394-8.832-21.656
				c-4.016-4.954-9.08-8.216-15.293-9.663c-4.246-0.989-8.555-1.116-12.854-0.546c-7.066,0.936-13.073,3.973-17.819,9.373
				c-5.49,6.245-8.456,13.639-9.907,21.723c-0.037,0.209,0.085,0.446,0.153,0.77C1500.479,848.759,1521.868,848.759,1543.62,848.759
				z"/>
			<path fill="#FFFFFF" d="M1167.616,875.922c-35.647,0-70.804,0-106.304,0c0.527,1.912,0.901,3.529,1.418,5.1
				c4.677,14.208,14.601,22.153,29.291,24.128c13.271,1.785,25.412-1.201,36.184-9.292c2.424-1.821,4.764-3.755,7.373-5.82
				c8.206,7.261,16.436,14.543,24.72,21.873c-4.762,5.971-10.156,10.923-16.228,15.152c-12.016,8.368-25.438,12.435-39.978,13.17
				c-10.781,0.545-21.445-0.137-31.769-3.438c-29.638-9.476-47.278-29.721-52.766-60.227c-3.159-17.559-1.183-34.763,6.34-51.083
				c9.255-20.075,24.289-33.826,45.475-40.53c9.41-2.977,19.11-3.652,28.93-2.964c8.028,0.563,15.862,2.018,23.281,5.204
				c18.428,7.913,30.809,21.622,37.915,40.191c4.21,11.002,6.197,22.48,6.354,34.252
				C1167.912,866.264,1167.707,870.894,1167.616,875.922z M1125.509,848.741c0.024-0.436,0.098-0.759,0.049-1.062
				c-0.792-4.918-2.13-9.679-4.45-14.103c-3.637-6.935-8.686-12.414-16.241-15.167c-5.138-1.872-10.462-2.185-15.828-1.548
				c-6.455,0.766-12.116,3.311-16.764,7.967c-5.412,5.421-8.583,12.042-10.478,19.355c-0.375,1.448-0.637,2.925-0.988,4.556
				C1082.526,848.741,1103.991,848.741,1125.509,848.741z"/>
			<path fill="#FFFFFF" d="M1711.983,784.689c15.41,0,30.488,0,45.914,0c11.214,33.527,22.471,67.188,33.702,100.767
				c0.246,0.049,0.328,0.086,0.402,0.074c0.063-0.01,0.137-0.065,0.172-0.121c0.082-0.134,0.16-0.275,0.21-0.423
				c11.257-33.376,22.512-66.753,33.815-100.275c14.914,0,29.823,0,45.065,0c-20.004,51.189-39.939,102.202-59.908,153.302
				c-13.092,0-26.103,0-39.45,0C1751.992,887.063,1732.034,835.994,1711.983,784.689z"/>
			<path fill="#FFFFFF" d="M1598.631,936.689c0-68.969,0-137.963,0-207.109c14.379,0,28.659,0,43.093,0
				c0,69.004,0,138.007,0,207.015C1640.063,937.136,1601.233,937.247,1598.631,936.689z"/>
			<path fill="#FFFFFF" d="M816.212,784.643c14.453,0,28.666,0,42.86,0c0.493,1.765,0.684,148.188,0.219,151.993
				c-1.823,0.515-40.823,0.561-43.078,0.029C816.212,886.1,816.212,835.513,816.212,784.643z"/>
			<path fill="#FFFFFF" d="M1663.262,784.646c14.425,0,28.633,0,43.007,0c0,50.76,0,101.422,0,152.23c-14.343,0-28.622,0-43.007,0
				C1663.262,886.132,1663.262,835.521,1663.262,784.646z"/>
			<path fill="#FFFFFF" d="M860.208,767.815c-14.917,0-29.852,0-44.959,0c0-12.752,0-25.414,0-38.232
				c15.014,0,30.006,0,44.998-0.001C860.75,731.596,860.73,765.885,860.208,767.815z"/>
			<path fill="#FFFFFF" d="M1707.384,729.605c0,12.724,0,25.325,0,37.912c-1.742,0.478-40.958,0.66-44.966,0.222
				c-0.474-1.708-0.645-34.118-0.18-38.134C1677.181,729.605,1692.147,729.605,1707.384,729.605z"/>
		</g>
	</g>
	<rect x="5.727" y="3.722" fill="#FFFFFF" width="3801.466" height="566.929"/>
	<g>
		<g>
			<path fill="#010202" d="M2628.999,133.932c4.276,8.504,3.805,17.264,3.798,26.64c-0.006,9.031,5.446,18.311,9.474,27.03
				c4.286,9.28,13.057,12.962,22.045,17.32c13.622,6.606,27.57,9.095,42.259,10.87c6.837,0.827,13.168,5.806,20.046,9.051
				c5.422,0,11.459,0,17.89,0c1.888-4.057,3.811-8.184,5.652-12.139c4.638,0.603,8.334,1.086,11.753,1.53
				c2.704,3.051,5.265,5.94,7.827,8.829c0.743-0.434,1.487-0.864,2.229-1.296c-1.232-4.443-2.728-8.832-3.647-13.339
				c-1.89-9.271-4.097-18.554-4.881-27.939c-0.326-3.901,1.605-10.171,4.41-11.578c3.229-1.62,9.463-0.369,12.811,1.934
				c12.076,8.314,18.53,21.288,25.273,33.804c4.146,7.695,7.796,15.657,11.87,23.914c6.645,0.494,13.431,1.141,15.513,9.343
				c1.595,6.28,3.421,12.5,5.112,18.756c2.465,9.136,5.244,18.207,7.239,27.444c1.504,6.965,1.987,14.146,3.128,22.771
				c-2.701-1.631-3.431-2.072-4.826-2.914c3.801,9.912,6.78,21.008,1.006,28.769c-5.245,7.053-15.559,10.339-24.558,15.849
				c0.38,0.934,1.167,2.879,2.026,4.994c28.016-6.744,55.162-9.669,81.714,1.503c0.305,7.89,0.305,7.89-26.089,11.712
				c30.877,9.022,53.602,25.943,65.536,55.368c8.953,22.075,9.176,44.062,1.094,66.585c-15.082,42.017-59.831,67.013-105.225,57.298
				c-25.823-5.53-45.575-20.336-58.905-43.273c-13.263-22.822-16.364-47.07-8.758-72.619c-6.233,0.915-11.707,1.716-18.607,2.728
				c0.801-18.452,8.894-31.516,19.172-42.928c9.994-11.097,21.544-20.794,31.472-30.217c-5.857-0.969-12.963-2.145-22.56-3.731
				c-5.187,4.48-12.126,10.474-18.598,16.062c1.247,3.983,1.871,5.978,2.432,7.77c-4.834,15.11-14.167,25.684-29.956,31.568
				c7.327,11.904-0.243,21.977-4.527,32.404c-6.303,15.342-13.151,30.463-19.831,45.65c-0.838,1.905-2.072,3.639-3.312,5.776
				c-17.456,0-34.714,0.337-51.937-0.259c-3.861-0.134-7.7-3.378-11.386-5.476c-7.451-4.241-14.666-9.3-23.394-4.208
				c-5.806-4.561-11.045-8.677-16.724-13.137c-3.811,4.837-6.701,8.509-9.735,12.358c-0.213,2.172-0.443,4.487-0.781,7.934
				c-2.805,0.498-5.674,1.413-8.554,1.449c-16.597,0.202-33.201,0.064-49.797,0.316c-7.377,0.111-13.865-0.897-16.872-9.333
				c-5.576,0-10.882,0-16.932,0c-13.683,34.339-37.723,56.878-75.226,62.543c-25.182,3.804-48.345-2.593-68.114-18.224
				c-40.618-32.112-47.526-89.528-15.256-129.355c18.875-23.295,43.594-34.927,73.958-34.195
				c30.426,0.734,53.554,15.149,71.977,37.923c16.087-4.839,19.067-18.24,23.396-31.448c-3.009-0.504-5.268-0.881-8.654-1.447
				c-0.373-3.044-1.198-6.21-1.047-9.33c0.276-5.728-1.766-10.086-6.174-13.603c-5.554-4.434-10.921-9.106-16.549-13.441
				c-1.597-1.23-3.894-2.455-5.752-2.297c-15.823,1.339-28.734-6.96-42.404-12.596c-7.873-3.243-15.267-7.685-23.213-10.7
				c-3.733-1.416-8.328-1.343-12.412-0.882c-9.855,1.111-19.772,2.27-29.425,4.461c-18.543,4.211-28.29,18.749-37.581,33.591
				c-1.412,2.254-3.015,4.389-5.19,6.057c6.306-28.543,26.885-44.554,52.533-57.611c-9.109-0.87-16.411-1.568-23.712-2.266
				c0.04-0.347,0.081-0.695,0.121-1.043c-2.98,0.162-5.958,0.326-9.842,0.536c-0.924-4.558-1.743-8.597-2.583-12.731
				c1.926-1.345,3.413-2.387,5.004-3.499c-0.132-1.846-0.263-3.659-0.377-5.248c-9.617-0.538-18.899-0.424-27.924-1.888
				c-3.424-0.556-6.259-4.745-9.343-7.262c0-49.814,0-99.245,0-149.415c65.385,0,130.176,0,195.816,0
				c0.268,3.447,0.731,6.649,0.734,9.851c0.048,42.213,0.038,84.426,0.028,126.638c-0.003,12.498-8.298,21.026-20.888,21.56
				c-0.926,0.038-1.846,0.212-4.855,0.575c8.045,6.306,14.816,11.611,23.081,18.09c1.025-12.429-0.44-23.901,9.122-31.853
				c2.513,0.28,4.822,0.539,7.13,0.798c-10.388-2.203-6.938-12.617-12.233-20.296c3.694-8.773,7.831-18.594,11.645-27.652
				c-1.123,1.326-2.937,3.469-5.489,6.484c-0.389-2.253-1.015-3.585-0.754-4.709c7.261-31.171,18.46-60.783,37.035-87.038
				c9.072-12.822,22.942-17.9,38.287-18.51c10.37-0.414,21.08,1.496,29.592-6.778c4.279,2.478,7.912,4.579,11.547,6.684
				c8.597,9.061,17.192,18.122,25.788,27.183c0,1.738,0,3.475,0,4.967c-5.791,1.033-10.968,1.955-16.905,3.014
				c-1.917-1.721-4.611-4.137-7.305-6.555c-2.313-4.174-3.674-9.516-7.11-12.305c-10.828-8.793-23.736-12.7-37.701-11.416
				c-7.065,0.649-14.003,2.704-20.998,4.123c0.142,0.659,0.283,1.318,0.426,1.977c1.555-0.468,3.115-0.922,4.668-1.406
				c21.792-6.798,41.052-4.178,56.003,14.884C2625.527,131.429,2627.403,132.57,2628.999,133.932z M2431.198,283.352
				c-15.866-5.029-31.732-10.057-47.598-15.088c-0.293,1.062-0.588,2.123-0.881,3.184c16.162,3.965,32.323,7.929,48.485,11.896
				c3.785,1.284,7.488,2.953,11.37,3.786c12.545,2.687,24.997,5.315,33.04,16.859c0.874,1.254,2.61,2.039,4.097,2.711
				c18.544,8.391,37.442,15.514,59.448,15.446c-3.421-1.01-5.741-1.971-8.153-2.355c-6.383-1.022-12.957-1.215-19.172-2.826
				c-6.371-1.654-12.298-4.951-18.615-6.896c-8.843-2.724-16.179-7.38-22.185-14.419c-1.785-2.092-4.175-4.392-6.683-5.018
				C2453.38,287.889,2442.263,285.726,2431.198,283.352z M2735.69,247.063c-19.004,9.217-22.761,8.538-26.542-4.998
				c-20.218,5.285-40.661,9.912-60.763,6.577c-2.764-5.997-4.985-10.82-7.207-15.64c-0.327,0.206-0.655,0.411-0.982,0.618
				c1.537,4.669,3.074,9.34,5.08,15.441c-22.989,3.364-38.265-2.855-44.853-25.2c-8.238,7.552,2.078,16.047-3.225,22.629
				c-2.01,1.348-3.948,2.647-7.383,4.951c2.246,3.021,3.813,7.493,6.438,8.238c9.19,2.611,18.318,5.863,28.453,3.357
				c30.271-7.481,60.425-7.689,90.176,3.063c2.895,1.046,6.183,1.009,9.152,1.453c1.503-3.721,2.546-6.309,3.679-9.118
				c4.806-1.402,9.465-2.759,15.704-4.581C2739.975,250.83,2737.684,248.815,2735.69,247.063z M2810.179,226.709
				c0-1.385,0.259-2.219-0.037-2.734c-9.13-15.933-18.139-31.943-27.606-47.676c-2.606-4.33-7.188-4.957-13.31-1.878
				c-2.653,17.818,2.427,34.951,7.678,50.495c8.302,1.405,15.246,2.58,22.187,3.756c-0.061,0.37-0.122,0.74-0.184,1.107
				C2802.513,228.797,2806.118,227.815,2810.179,226.709z M2839.71,391.746c19.353-4.07,37.923-2.503,54.873,7.828
				c17.392,10.601,26.879,26.831,30.964,46.555c4.977,24.047-7.474,58.899-38.567,73.12c-26.047,11.916-61.497,4.104-79.949-19.037
				c-9.162-11.489-14.339-24.716-14.908-39.882c-0.995-26.582,11.313-45.976,33.502-62.23c-15.995,3.785-35.863,28.56-37.212,56.514
				c-1.47,30.439,19.007,60.013,50.541,70.326c29.317,9.587,63.471-3.727,80.318-30.463c16.435-26.081,12.778-65.78-12.183-89.171
				C2887.298,386.753,2852.424,382.701,2839.71,391.746z M2468.494,415.552c-11.15-19.858-46.218-37.456-78.367-24.718
				c-34.948,13.845-53.094,47.262-45.13,83.319c7.074,32.04,39.962,55.747,73.504,53.806c29.827-1.723,57.076-27.994,58.146-43.966
				c-12.727,21.119-27.683,36.376-51.298,39.868c-23.726,3.508-44.141-3.077-60.686-20.41
				c-22.657-23.737-24.524-60.043-4.365-86.639c9.231-12.179,21.265-20.858,36.398-24.558
				C2425.226,385.278,2448.755,394.181,2468.494,415.552z M2413.98,420.947c-1.148-6.064-2.197-11.607-3.124-16.504
				c-15.529-3.962-37.675,8.768-42.623,23.165c7.411,0.878,14.844,1.762,22.307,2.648c3.461-1.914,6.82-4.19,10.494-5.685
				C2404.668,423.094,2408.623,422.402,2413.98,420.947z M2363.4,434.998c-7.733,14.914-6.071,39.04,1.635,45.632
				c12.999-9.335,16.391-22.687,15.267-39.57C2375.301,439.268,2369.389,437.147,2363.4,434.998z M2892.74,439.663
				c4.322-3.432,9.166-7.282,14.176-11.262c-11.393-15.922-24.74-24.695-42.719-26.528c2.53,6.011,4.634,11.446,7.115,16.703
				c1.163,2.463,2.717,4.948,4.689,6.784C2880.786,429.811,2885.915,433.887,2892.74,439.663z M2826.01,441.273
				c-5.761-1.997-11.51-3.989-16.98-5.884c-7.9,14.124-7.113,35.831,1.053,45.971c4.854-5.751,9.668-11.454,14.044-16.639
				C2824.738,457.134,2825.301,450.114,2826.01,441.273z M2910.634,438.202c-12.646,13.192-17.747,23.366-18.722,38.157
				c4.861,2.126,10.156,4.44,15.049,6.58C2915.978,471.402,2917.385,450.416,2910.634,438.202z M2370.459,489.799
				c5.365,12.159,25.959,23.79,36.444,21.195c-1.783-6.541-3.566-13.08-5.315-19.495c-4.19-3.35-7.992-6.956-12.364-9.634
				c-2.022-1.238-5.753-1.75-7.656-0.694C2377.417,483.474,2373.94,486.992,2370.459,489.799z M2815.055,489.861
				c7.375,12.66,26.451,23.13,37.108,21.348c-1.748-15.776-7.512-23.9-23.324-31.697
				C2824.652,482.655,2819.95,486.185,2815.055,489.861z M2862.609,511.138c14.463,2.627,35.461-8.658,37.682-19.101
				c-19.632-5.594-21.604-5.49-37.682,2.337C2862.609,499.622,2862.609,505.278,2862.609,511.138z M2417.857,510.986
				c11.992,2.453,30.928-7.087,37.786-18.065c-16.869-6.973-24.366-6.687-37.786,1.493
				C2417.857,499.854,2417.857,505.342,2417.857,510.986z M2460.201,427.41c-12.091-4.338-24.029-8.576-32.464-18.334
				c0.253-0.598,0.507-1.197,0.761-1.796c3.572,0.598,7.144,1.195,10.716,1.792c0.155-0.636,0.31-1.275,0.465-1.913
				c-6.767-1.822-13.533-3.645-21.568-5.808c2.896,5.916,5.92,10.098,6.978,14.73c1.494,6.548,5.542,10.165,10.901,13.081
				C2442.028,432.451,2455.691,431.745,2460.201,427.41z M2677.92,301.595c0.497,10.979,1.063,23.512,1.612,35.614
				c12.562,1.987,24.994,3.951,37.429,5.917c0.084-0.441,0.164-0.88,0.248-1.321c-12.276-2.643-24.552-5.287-36.792-7.921
				c0.589-9.936,1.086-18.302,1.702-28.727c18.183,3.144,35.182,6.082,52.145,9.015c-2.166-1.392-4.625-4.12-7.46-4.592
				c-11.907-1.988-23.951-3.144-35.895-4.937C2685.811,303.88,2680.837,302.298,2677.92,301.595z M2533.33,389.213
				c3.259-6.522,6.586-13.184,10.191-20.4c-1.79-2.216-3.349-4.14-6.135-7.585c0.09,10.295-6.094,9.266-11.304,9.276
				c-1.11,6.394-2.133,12.278-3.252,18.709C2526.509,389.213,2529.042,389.213,2533.33,389.213z M2837.678,430.255
				c0.475-0.686,0.949-1.373,1.425-2.058c-2.859-5.856-5.718-11.711-9.318-19.086c-6.504,6.392-11.735,11.531-16.963,16.667
				c0.436,0.608,0.868,1.214,1.302,1.82C2821.974,428.483,2829.825,429.369,2837.678,430.255z M2445.888,474.528
				c5.523,5.277,11.032,8.036,19.079,4.709c0.804-3.031,1.719-6.477,2.936-11.063c-7.262,0-13.182,0-19.718,0
				C2447.443,470.226,2446.685,472.322,2445.888,474.528z M2794.209,232.057c-5.346-4.251-10.027-5.652-15.25,0.408
				c1.24,3.35,2.564,6.93,4.116,11.122c4.884-0.954,8.879-1.732,13.505-2.634C2795.652,237.477,2794.947,234.823,2794.209,232.057z
				 M2856.26,422.279c1.137-0.46,2.274-0.919,3.41-1.382c-1.346-6.19-2.695-12.38-4.115-18.906
				c-4.639,0.72-7.505,1.163-12.401,1.923C2848.967,410.397,2847.779,419.649,2856.26,422.279z M2517.055,480.072
				c0-3.754,0-7.061,0-11.318c-3.773-0.546-7.027-1.019-10.891-1.577c-1.271,4.597-2.29,8.287-3.563,12.896
				C2507.92,480.072,2512.157,480.072,2517.055,480.072z M2522.584,328.387c-0.174,0.67-0.346,1.339-0.518,2.011
				c20.194,5.492,40.389,10.986,60.582,16.479c0.239-0.924,0.48-1.85,0.72-2.774
				C2563.108,338.866,2542.846,333.627,2522.584,328.387z M2598.985,322.376c-0.104,0.462-0.208,0.926-0.31,1.393
				c10.347,4.181,20.698,8.361,31.358,12.667c-0.998,2.341-1.827,4.285-2.656,6.229c0.663,0.206,1.326,0.41,1.99,0.615
				c1.006-3.243,2.012-6.488,2.899-9.34C2620.517,329.858,2609.751,326.116,2598.985,322.376z M2615.949,355.661
				c0.243-1.057,0.485-2.115,0.729-3.172c-9.044-2.083-18.089-4.168-27.133-6.254c-0.182,0.805-0.366,1.612-0.548,2.418
				C2597.981,350.987,2606.965,353.324,2615.949,355.661z M2590.874,461.863c-0.461,0.208-0.922,0.415-1.385,0.623
				c0.581,1.275,1.16,2.552,1.739,3.827c0.367-0.155,0.734-0.31,1.099-0.465C2591.844,464.519,2591.359,463.193,2590.874,461.863z"
				/>
			<path fill="#010202" d="M2653.181,132.531c-8.596-9.061-17.191-18.12-25.788-27.182c-4.616-4.392-9.535-8.517-13.721-13.285
				c-2.2-2.505-4.249-6.067-4.437-9.266c-1.366-23.322,12.129-52.61,43.469-56.604c21.311-2.715,52.354,12.761,60.345,31.196
				c3.669,8.46,4.908,17.091-0.191,26.114c-3.744-0.502-7.117-0.955-10.49-1.406c-0.066,0.259-0.13,0.517-0.194,0.776
				c3.377,1.281,6.752,2.562,9.832,3.728c0.904,11.985-4.922,30.359-10.643,33.756c-1.76-0.485-3.747-1.032-7.094-1.954
				c3.545,3.132,6.061,5.354,9.518,8.405c-1.868,3.353-2.916,7.346-5.502,9.446c-5.633,4.574-11.813,8.627-18.218,12.051
				c-5.56,2.973-11.016,1.661-15.385-3.24C2660.911,140.834,2657.019,136.705,2653.181,132.531z"/>
			<path fill="#010202" d="M2308.071,109.281c-2.715-13.842,2.98-21.222,16.031-21.241c54.305-0.08,108.61-0.078,162.914-0.001
				c13.085,0.019,18.759,7.313,16.106,21.242C2438.337,109.281,2373.378,109.281,2308.071,109.281z"/>
		</g>
		<g>
			<path d="M2270.436,215.81c-0.365,0.844-0.766,1.674-1.089,2.534c-19.464,51.835-38.912,103.677-58.391,155.507
				c-3.018,8.029-6.687,15.734-11.732,22.734c-7.348,10.198-17.188,15.877-29.752,17.102c-15.672,1.529-30.385-1.265-44.127-9.004
				c-0.613-0.345-1.203-0.73-1.997-1.214c4.837-10.438,9.626-20.771,14.478-31.242c1.5,0.744,2.83,1.431,4.183,2.072
				c5.186,2.454,10.526,4.111,16.391,3.786c6.173-0.342,9.915-3.847,12.554-9.011c0.47-0.921,0.063-1.687-0.257-2.507
				c-3.4-8.71-6.781-17.428-10.181-26.138c-13.104-33.568-26.212-67.133-39.321-100.699c-0.306-0.784-0.646-1.556-1.419-2.235
				c0,6.656,0,13.313,0,20.174c-2.19,0.11-4.164,0.207-6.138,0.308c-8.121,0.413-15.778,2.385-22.705,6.786
				c-8.652,5.497-13.946,13.44-16.803,23.142c-2.186,7.424-2.969,15.038-2.973,22.747c-0.009,17.919-0.003,35.838-0.003,53.757
				c0,0.955,0,1.911,0,2.822c-1.83,0.626-36.987,0.889-42.928,0.363c-0.05-0.052-0.107-0.108-0.16-0.168
				c-0.051-0.059-0.141-0.122-0.141-0.182c-0.048-49.993-0.089-99.986-0.127-149.979c-0.001-0.551,0.057-1.101,0.085-1.616
				c1.814-0.477,39.16-0.651,43.237-0.192c0,9.635,0,19.313,0,28.991c0.148,0.021,0.296,0.041,0.444,0.062
				c1.007-1.959,1.976-3.94,3.029-5.874c3.355-6.161,7.596-11.624,12.818-16.334c6.031-5.44,13.165-8.388,21.136-9.337
				c3.244-0.386,6.537-0.359,9.808-0.502c0.382-0.017,0.769,0.079,1.211,0.13c0.105,0.862,0.199,1.628,0.325,2.66
				c6.285,0,12.504,0,18.722,0c6.234,0,12.468,0,18.958,0c11.452,34.246,22.89,68.451,34.311,102.605
				c0.245,0,0.33,0.015,0.404-0.005c0.067-0.018,0.16-0.063,0.177-0.117c10.966-34.061,21.926-68.124,32.921-102.293
				c0.545-0.064,1.08-0.181,1.615-0.182c13.919-0.01,27.838-0.009,41.758-0.004c0.559,0,1.118,0.048,1.677,0.074
				C2270.436,215.49,2270.436,215.65,2270.436,215.81z"/>
			<path d="M634.783,367.728c0-66.448,0-132.57,0-198.864c0.779-0.062,1.469-0.165,2.159-0.165
				c30.477-0.008,60.954-0.031,91.432,0.006c10.453,0.013,20.731,1.308,30.624,4.872c9.354,3.37,17.492,8.556,23.854,16.306
				c5.698,6.941,8.787,14.961,9.719,23.851c0.723,6.894,0.58,13.756-1.293,20.462c-3.387,12.13-10.739,21.26-21.444,27.77
				c-0.811,0.493-1.614,1.001-2.668,1.655c1.011,0.442,1.786,0.794,2.572,1.122c7.96,3.323,15.239,7.688,21.518,13.684
				c6.112,5.836,9.854,12.9,11.461,21.145c1.814,9.303,1.874,18.607-0.424,27.823c-3.304,13.251-11.412,22.837-23.125,29.537
				c-8.505,4.865-17.763,7.515-27.359,9.116c-7.59,1.266-15.241,1.695-22.931,1.689c-30.317-0.022-60.634-0.009-90.952-0.009
				C636.912,367.728,635.895,367.728,634.783,367.728z M677.566,285.6c0,14.675,0,29.033,0,43.571c1.121,0,2.071,0,3.021,0
				c16.394,0,32.788,0.029,49.182-0.026c3.028-0.01,6.076-0.195,9.078-0.584c4.708-0.61,9.207-1.98,13.265-4.552
				c4.205-2.665,6.89-6.423,7.757-11.323c0.386-2.185,0.471-4.447,0.459-6.673c-0.024-4.125-1.367-7.838-3.948-11.078
				c-3.225-4.049-7.551-6.288-12.452-7.608c-5.137-1.383-10.401-1.783-15.673-1.809c-16.074-0.08-32.148-0.03-48.222-0.024
				C679.252,285.494,678.471,285.56,677.566,285.6z M677.521,248.841c0.648,0.064,1.184,0.163,1.72,0.163
				c13.826,0.008,27.653,0.078,41.478-0.025c6.687-0.05,13.189-1.225,19.208-4.362c4.234-2.206,7.178-5.486,8.579-10.123
				c0.753-2.493,0.852-5.021,0.812-7.584c-0.114-7.206-3.373-12.495-9.708-15.889c-4.978-2.667-10.409-3.674-15.948-3.73
				c-14.943-0.153-29.888-0.097-44.832-0.11c-0.443,0-0.886,0.155-1.309,0.234C677.521,221.283,677.521,235,677.521,248.841z"/>
			<path d="M1247.277,367.728c0-66.417,0-132.531,0-198.82c0.637-0.075,1.242-0.207,1.846-0.207
				c25.756-0.01,51.511-0.072,77.267,0.014c16.836,0.056,33.028,3.296,48.32,10.522c23.874,11.282,40.808,29.036,50.033,53.903
				c3.758,10.131,5.519,20.639,5.804,31.444c0.287,10.867-0.699,21.566-3.777,32.002c-8.459,28.676-26.757,48.787-53.727,61.214
				c-13.229,6.095-27.192,9.244-41.734,9.747c-5.512,0.191-11.032,0.169-16.549,0.174c-21.436,0.018-42.873,0.007-64.309,0.007
				C1249.432,367.728,1248.413,367.728,1247.277,367.728z M1291.259,328.131c1.031,0,1.894,0,2.756,0
				c10.24,0,20.48-0.034,30.72,0.014c5.06,0.024,10.067-0.414,15.006-1.471c17.961-3.846,31.303-13.803,39.129-30.506
				c7.585-16.189,7.895-32.96,2.295-49.762c-4.439-13.319-12.808-23.659-25.193-30.548c-9.591-5.334-19.99-7.52-30.856-7.627
				c-10.559-0.104-21.12-0.025-31.679-0.017c-0.695,0.001-1.39,0.085-2.177,0.137
				C1291.259,248.271,1291.259,288.014,1291.259,328.131z"/>
			<path d="M922.034,367.586c-14.481,0-28.696,0-42.945,0c-0.032-0.037-0.086-0.096-0.138-0.156
				c-0.051-0.06-0.143-0.121-0.143-0.181c-0.048-68.389-0.09-136.778-0.128-205.167c0-0.549,0.061-1.099,0.102-1.796
				c14.373,0,28.645,0,43.192,0c0,36.508,0,73.006,0,110.119c1.016-1.011,1.627-1.57,2.183-2.18
				c15.631-17.123,31.267-34.242,46.862-51.398c0.994-1.094,1.966-1.614,3.482-1.609c15.838,0.054,31.677,0.032,47.515,0.038
				c0.606,0,1.212,0.073,2.29,0.142c-19.435,20.11-38.574,39.914-57.9,59.911c19.886,30.641,39.754,61.255,59.782,92.115
				c-0.793,0.133-1.294,0.29-1.795,0.291c-15.278,0.014-30.557-0.012-45.835,0.05c-1.538,0.006-2.269-0.679-3.01-1.841
				c-12.16-19.079-24.351-38.138-36.536-57.201c-0.595-0.93-1.205-1.851-1.979-3.036c-1.203,1.215-2.263,2.252-3.285,3.325
				c-3.527,3.706-7.004,7.461-10.584,11.115c-1.019,1.041-1.144,2.167-1.142,3.482c0.021,13.679,0.013,27.357,0.013,41.036
				C922.034,365.518,922.034,366.394,922.034,367.586z"/>
			<path d="M2016.802,306.577c-35.588,0-70.687,0-105.913,0c0,0.606-0.083,1.065,0.012,1.483
				c3.73,16.35,14.891,25.724,30.086,27.793c15.66,2.132,29.184-2.576,40.965-12.837c0.841-0.732,1.695-1.45,2.737-2.34
				c8.218,7.268,16.399,14.504,24.711,21.854c-0.411,0.579-0.723,1.107-1.117,1.563c-12.27,14.219-27.491,23.208-46.204,25.911
				c-16.944,2.447-33.549,1.262-49.359-5.693c-23.76-10.452-38.206-28.772-43.435-54c-4.128-19.915-1.961-39.356,7.506-57.6
				c10.151-19.562,25.864-32.417,47.276-38.009c8.661-2.262,17.502-2.64,26.422-1.915c8.602,0.699,16.899,2.493,24.727,6.207
				c17.293,8.205,28.853,21.626,35.562,39.361c4.199,11.098,6.146,22.651,6.274,34.499
				C2017.1,297.321,2016.897,301.791,2016.802,306.577z M1974.708,279.459c0-0.586,0.055-0.986-0.008-1.367
				c-0.802-4.833-2.128-9.516-4.423-13.859c-3.614-6.839-8.574-12.297-16.042-15.046c-5.289-1.947-10.762-2.285-16.289-1.588
				c-5.755,0.727-10.929,2.898-15.294,6.813c-4.182,3.751-7.184,8.326-9.328,13.48c-1.529,3.677-2.689,7.462-3.24,11.567
				C1931.668,279.459,1953.061,279.459,1974.708,279.459z"/>
			<path d="M1553.432,320.675c8.352,7.396,16.537,14.644,24.783,21.946c-5.199,6.443-11.084,11.785-17.814,16.207
				c-10.151,6.67-21.296,10.464-33.362,11.683c-14.019,1.416-27.812,0.535-41.1-4.43c-25.854-9.66-41.846-28.193-47.75-55.007
				c-4.416-20.054-2.264-39.65,7.182-58.078c10.134-19.769,25.965-32.723,47.556-38.337c8.183-2.128,16.553-2.563,24.987-1.983
				c8.187,0.563,16.172,2.023,23.737,5.289c17.637,7.613,29.771,20.615,37.031,38.256c4.394,10.675,6.426,21.882,7.045,33.376
				c0.301,5.588,0.17,11.153-0.469,16.933c-35.247,0-70.4,0-105.879,0c0.175,0.936,0.264,1.6,0.426,2.246
				c2.063,8.229,5.951,15.318,12.92,20.435c6.54,4.802,13.996,6.758,22.006,7.096c13.478,0.568,25.046-4.068,35.203-12.673
				C1551.025,322.708,1552.119,321.785,1553.432,320.675z M1543.62,279.462c-1.187-8.139-3.756-15.394-8.832-21.656
				c-4.016-4.954-9.08-8.216-15.293-9.663c-4.246-0.989-8.555-1.116-12.854-0.546c-7.066,0.936-13.073,3.973-17.819,9.373
				c-5.49,6.246-8.456,13.639-9.907,21.723c-0.037,0.209,0.085,0.446,0.153,0.77C1500.479,279.462,1521.868,279.462,1543.62,279.462
				z"/>
			<path d="M1167.616,306.626c-35.647,0-70.804,0-106.304,0c0.527,1.912,0.901,3.529,1.418,5.1
				c4.677,14.208,14.601,22.153,29.291,24.128c13.271,1.785,25.412-1.201,36.184-9.292c2.424-1.821,4.764-3.756,7.373-5.821
				c8.206,7.261,16.436,14.544,24.72,21.873c-4.762,5.971-10.156,10.923-16.228,15.152c-12.016,8.368-25.438,12.435-39.978,13.17
				c-10.781,0.545-21.445-0.138-31.769-3.438c-29.638-9.476-47.278-29.721-52.766-60.227c-3.159-17.559-1.183-34.763,6.34-51.083
				c9.255-20.075,24.289-33.826,45.475-40.529c9.41-2.977,19.11-3.652,28.93-2.964c8.028,0.563,15.862,2.018,23.281,5.204
				c18.428,7.913,30.809,21.622,37.915,40.191c4.21,11.002,6.197,22.48,6.354,34.252
				C1167.912,296.968,1167.707,301.598,1167.616,306.626z M1125.509,279.445c0.024-0.436,0.098-0.759,0.049-1.062
				c-0.792-4.918-2.13-9.679-4.45-14.103c-3.637-6.935-8.686-12.414-16.241-15.167c-5.138-1.872-10.462-2.185-15.828-1.548
				c-6.455,0.766-12.116,3.311-16.764,7.967c-5.412,5.421-8.583,12.042-10.478,19.355c-0.375,1.448-0.637,2.925-0.988,4.556
				C1082.526,279.445,1103.991,279.445,1125.509,279.445z"/>
			<path d="M1711.983,215.393c15.41,0,30.488,0,45.914,0c11.214,33.528,22.471,67.188,33.702,100.767
				c0.246,0.049,0.328,0.086,0.402,0.074c0.063-0.01,0.137-0.065,0.172-0.121c0.082-0.134,0.16-0.275,0.21-0.423
				c11.257-33.376,22.512-66.753,33.815-100.275c14.914,0,29.823,0,45.065,0c-20.004,51.189-39.939,102.202-59.908,153.302
				c-13.092,0-26.103,0-39.45,0C1751.992,317.767,1732.034,266.698,1711.983,215.393z"/>
			<path d="M1598.631,367.393c0-68.969,0-137.963,0-207.109c14.379,0,28.659,0,43.093,0c0,69.004,0,138.007,0,207.015
				C1640.063,367.84,1601.233,367.951,1598.631,367.393z"/>
			<path d="M816.212,215.347c14.453,0,28.666,0,42.86,0c0.493,1.765,0.684,148.188,0.219,151.993
				c-1.823,0.515-40.823,0.562-43.078,0.029C816.212,316.804,816.212,266.217,816.212,215.347z"/>
			<path d="M1663.262,215.35c14.425,0,28.633,0,43.007,0c0,50.76,0,101.422,0,152.23c-14.343,0-28.622,0-43.007,0
				C1663.262,316.835,1663.262,266.225,1663.262,215.35z"/>
			<path d="M860.208,198.518c-14.917,0-29.852,0-44.959,0c0-12.752,0-25.414,0-38.232c15.014,0,30.006,0,44.998-0.001
				C860.75,162.299,860.73,196.589,860.208,198.518z"/>
			<path d="M1707.384,160.308c0,12.724,0,25.325,0,37.912c-1.742,0.478-40.958,0.66-44.966,0.222
				c-0.474-1.708-0.645-34.118-0.18-38.134C1677.181,160.308,1692.147,160.308,1707.384,160.308z"/>
		</g>
	</g>
</g>
</svg>
