<?xml version="1.0" encoding="utf-8"?>
<!-- Generator: Adobe Illustrator 17.0.0, SVG Export Plug-In . SVG Version: 6.00 Build 0)  -->
<!DOCTYPE svg PUBLIC "-//W3C//DTD SVG 1.1//EN" "http://www.w3.org/Graphics/SVG/1.1/DTD/svg11.dtd">
<svg version="1.1" id="Layer_1" xmlns="http://www.w3.org/2000/svg" xmlns:xlink="http://www.w3.org/1999/xlink" x="0px" y="0px"
	 width="566.929px" height="566.929px" viewBox="0 0 566.929 566.929" enable-background="new 0 0 566.929 566.929"
	 xml:space="preserve">
<g>
	<path fill="#C0BFBF" d="M539.969,283.469c-0.002,141.803-114.702,256.501-256.506,256.5
		c-142.227,0-256.582-114.821-256.504-257.549C27.037,141.398,142.233,26.828,283.816,26.96
		C425.416,27.092,539.971,141.807,539.969,283.469z"/>
	<g>
		<path fill="#FCFCFC" d="M216.674,304.224c0.001-7.088-0.054-14.176,0.013-21.263c0.114-12.058,3.337-15.192,15.68-15.323
			c4.832-0.051,9.799-0.726,14.47,0.143c9.799,1.822,15.73-2.987,21.075-10.155c6.308-8.459,13.713-15.941,15.28-27.359
			c1.113-8.11,5.875-14.58,15.438-14.331c9.889,0.258,18.368,7.38,20.006,16.646c1.013,5.728,1.461,11.724-0.336,17.262
			c-2.105,6.486,0.318,8.203,6.219,7.803c1.923-0.13,3.869-0.068,5.797,0.041c13.017,0.733,21.789,10.431,19.636,23.371
			c-2.989,17.963-5.631,36.059-11.596,53.407c-3.453,10.042-10.94,15.078-20.988,15.918c-10.919,0.913-22.148,1.363-32.506-2.735
			c-16.529-6.539-33.455-7.993-51.004-7.188c-13.852,0.636-17.099-3.153-17.178-16.907
			C216.643,317.111,216.673,310.667,216.674,304.224z M257.18,300.435c0,11.593-0.03,19.335,0.015,27.078
			c0.017,2.894-0.202,6.102,3.391,7.22c18.761,5.839,37.331,12.907,57.596,10.037c6.824-0.967,13.041-3.928,14.432-11.023
			c1.66-8.462,4.893-16.456,6.703-24.903c1.782-8.319,1.159-16.945,4.352-25.182c4.238-10.931-2.721-19.952-14.481-20.443
			c-5.153-0.215-10.323-0.131-15.483-0.046c-4.993,0.082-6.535-1.67-3.918-6.34c3.954-7.056,4.627-14.717,3.422-22.546
			c-1.279-8.308-6.877-12.309-14.728-12.782c-7.758-0.466-9.747,5.79-10.343,11.586c-1.149,11.177-7.45,19.726-15.131,26.229
			C258.526,271.582,253.375,286.099,257.18,300.435z"/>
		<path fill="#C0BFBF" d="M257.18,300.435c-3.805-14.337,1.346-28.854,15.827-41.115c7.681-6.503,13.982-15.052,15.131-26.229
			c0.596-5.796,2.585-12.052,10.343-11.586c7.852,0.472,13.449,4.474,14.728,12.782c1.206,7.829,0.532,15.49-3.422,22.546
			c-2.617,4.67-1.075,6.422,3.918,6.34c5.16-0.084,10.33-0.169,15.483,0.046c11.76,0.491,18.719,9.512,14.481,20.443
			c-3.193,8.237-2.571,16.863-4.352,25.182c-1.809,8.447-5.043,16.441-6.703,24.903c-1.392,7.095-7.609,10.056-14.432,11.023
			c-20.265,2.871-38.835-4.197-57.596-10.037c-3.593-1.118-3.374-4.326-3.391-7.22C257.15,319.771,257.18,312.028,257.18,300.435z"
			/>
	</g>
</g>
<g>
	<path d="M269.943-419.539c-0.002,141.803-114.702,256.5-256.506,256.5c-142.227,0-256.582-114.821-256.504-257.549
		C-242.99-561.61-127.794-676.18,13.789-676.048C155.389-675.916,269.944-561.201,269.943-419.539z M85.719-453.968
		c-0.34-0.043-0.68-0.086-1.02-0.129c0-3.132,0.146-6.273-0.072-9.39c-0.086-1.235-0.693-2.705-1.562-3.56
		c-2.051-2.016-4.316-3.845-6.646-5.542c-11.403-8.303-23.895-14.555-37.367-18.605c-11.293-3.395-22.402-7.779-34.808-4.757
		c-21.964,5.349-42.712,13.045-59.981,28.194c-1.265,1.11-2.208,3.237-2.284,4.936c-0.264,5.882-0.174,11.786-0.046,17.678
		c0.34,15.622,3.443,30.759,9.311,45.182c2.938,7.222,6.661,14.247,10.909,20.79c11.888,18.31,28.919,29.906,49.635,36.285
		c0.922,0.284,2.084,0.303,2.999,0.015c25.796-8.128,44.691-24.377,56.7-48.575c4.567-9.202,7.852-18.926,9.578-29.032
		C82.961-431.582,84.195-442.8,85.719-453.968z"/>
	<path fill="#FFFFFF" d="M85.719-453.968c-1.523,11.169-2.758,22.386-4.654,33.491c-1.726,10.105-5.011,19.829-9.578,29.032
		c-12.01,24.198-30.904,40.447-56.7,48.575c-0.915,0.288-2.077,0.269-2.999-0.015c-20.716-6.378-37.747-17.975-49.635-36.285
		c-4.248-6.543-7.971-13.568-10.909-20.79c-5.868-14.423-8.97-29.559-9.311-45.182c-0.128-5.892-0.218-11.796,0.046-17.678
		c0.076-1.7,1.019-3.826,2.284-4.936c17.269-15.15,38.017-22.845,59.981-28.194c12.406-3.021,23.515,1.362,34.808,4.757
		c13.472,4.05,25.964,10.302,37.367,18.605c2.33,1.697,4.595,3.526,6.646,5.542c0.869,0.855,1.476,2.325,1.562,3.56
		c0.218,3.116,0.072,6.258,0.072,9.39C85.038-454.055,85.378-454.012,85.719-453.968z M73.5-456.143
		c0.843-2.814-1.803-5.526-5.721-8.216c-12.284-8.435-25.831-13.896-40.009-18.034c-7.946-2.319-15.903-4.19-24.179-1.429
		c-3.06,1.021-6.26,1.616-9.339,2.587c-14.429,4.551-28.215,10.409-39.88,20.347c-0.966,0.823-1.804,2.527-1.709,3.745
		c0.704,9.052,1.385,18.122,2.591,27.116c2.845,21.208,10.504,40.298,25.81,55.76c8.514,8.601,18.592,14.817,29.993,18.837
		c1.209,0.426,2.817,0.482,4.013,0.063c16.345-5.714,29.601-15.712,39.52-29.828c9.877-14.055,14.453-30.281,17.296-46.944
		C73.102-439.272,72.912-446.646,73.5-456.143z"/>
	<path d="M73.5-456.143c-0.587,9.497-0.398,16.871-1.615,24.005c-2.843,16.664-7.419,32.889-17.296,46.944
		c-9.919,14.116-23.174,24.114-39.52,29.828c-1.197,0.418-2.805,0.363-4.013-0.063c-11.401-4.02-21.479-10.236-29.993-18.837
		c-15.306-15.463-22.965-34.552-25.81-55.76c-1.207-8.994-1.887-18.064-2.591-27.116c-0.095-1.218,0.744-2.923,1.709-3.745
		c11.665-9.938,25.452-15.796,39.88-20.347c3.079-0.971,6.279-1.566,9.339-2.587c8.276-2.761,16.233-0.89,24.179,1.429
		c14.178,4.138,27.725,9.599,40.009,18.034C71.697-461.669,74.343-458.957,73.5-456.143z M13.488-479.424c0,39.602,0,78.664,0,117.8
		c7.869-2.167,18.423-8.531,25.155-14.688c14.071-12.869,21.809-29.209,25.19-47.549c1.857-10.072,1.986-20.46,2.964-30.699
		c0.216-2.265-0.748-3.563-2.55-4.822c-12.128-8.473-25.61-13.851-39.804-17.61C20.9-477.93,17.284-478.589,13.488-479.424z"/>
	<path fill="#FFFFFF" d="M13.488-479.424c3.796,0.834,7.412,1.494,10.955,2.432c14.194,3.759,27.676,9.137,39.804,17.61
		c1.802,1.259,2.766,2.557,2.55,4.822c-0.978,10.239-1.107,20.627-2.964,30.699c-3.381,18.34-11.119,34.68-25.19,47.549
		c-6.732,6.157-17.286,12.521-25.155,14.688C13.488-400.76,13.488-439.822,13.488-479.424z"/>
</g>
<g>
	<path fill="#FFFFFF" stroke="#000000" stroke-width="5" stroke-miterlimit="10" d="M-381.123-271.586
		c-0.002,141.803-114.702,256.501-256.506,256.5c-142.227,0-256.582-114.821-256.504-257.549
		c0.077-141.023,115.273-255.593,256.857-255.461C-495.676-527.964-381.121-413.249-381.123-271.586z"/>
	<g>
		<path d="M-637.539-191.748c-43.085,0.93-81.343-36.285-79.992-82.276c1.235-42.011,37.286-78.756,82.516-77.39
			c42.221,1.276,78.984,37.679,77.267,83.033C-559.345-226.18-595.234-191.049-637.539-191.748z M-571.211-271.273
			c0.083-36.11-30.137-66.552-66.173-66.66c-36.084-0.108-66.578,30.163-66.661,66.173c-0.083,36.11,30.137,66.552,66.173,66.66
			C-601.788-204.992-571.293-235.263-571.211-271.273z"/>
		<path fill="#FFFFFF" d="M-571.211-271.273c-0.083,36.01-30.577,66.281-66.661,66.173c-36.036-0.108-66.256-30.551-66.173-66.66
			c0.083-36.01,30.577-66.281,66.661-66.173C-601.348-337.825-571.128-307.382-571.211-271.273z M-677.578-231.88
			c0.895-0.202,1.284-0.211,1.594-0.372c16.542-8.57,33.091-17.128,49.587-25.787c1.109-0.582,2.052-1.805,2.667-2.948
			c3.463-6.431,6.819-12.92,10.179-19.406c5.235-10.109,10.443-20.232,15.875-30.761c-0.893,0.202-1.283,0.211-1.594,0.372
			c-16.542,8.57-33.091,17.128-49.587,25.787c-1.109,0.582-2.051,1.805-2.667,2.948c-3.463,6.431-6.82,12.92-10.179,19.406
			C-666.938-252.531-672.146-242.408-677.578-231.88z"/>
		<path d="M-677.578-231.88c5.432-10.529,10.64-20.652,15.875-30.761c3.359-6.487,6.716-12.975,10.179-19.406
			c0.615-1.143,1.558-2.366,2.667-2.948c16.496-8.659,33.044-17.217,49.587-25.787c0.311-0.161,0.7-0.17,1.594-0.372
			c-5.432,10.529-10.64,20.652-15.875,30.761c-3.359,6.487-6.716,12.975-10.179,19.406c-0.615,1.143-1.558,2.366-2.667,2.948
			c-16.496,8.659-33.044,17.217-49.587,25.787C-676.294-232.091-676.683-232.082-677.578-231.88z M-630.386-271.415
			c0.075-3.512-3.547-7.198-7.139-7.267c-3.564-0.069-7.267,3.494-7.343,7.063c-0.075,3.512,3.546,7.198,7.139,7.267
			C-634.166-264.284-630.462-267.845-630.386-271.415z"/>
		<path fill="#FFFFFF" d="M-630.386-271.415c-0.076,3.569-3.779,7.131-7.343,7.062c-3.593-0.069-7.214-3.755-7.139-7.267
			c0.076-3.569,3.78-7.132,7.343-7.063C-633.933-278.613-630.312-274.926-630.386-271.415z"/>
	</g>
</g>
</svg>
