<?xml version="1.0" encoding="utf-8"?>
<!-- Generator: Adobe Illustrator 17.0.0, SVG Export Plug-In . SVG Version: 6.00 Build 0)  -->
<!DOCTYPE svg PUBLIC "-//W3C//DTD SVG 1.1//EN" "http://www.w3.org/Graphics/SVG/1.1/DTD/svg11.dtd">
<svg version="1.1" id="Layer_1" xmlns="http://www.w3.org/2000/svg" xmlns:xlink="http://www.w3.org/1999/xlink" x="0px" y="0px"
	 width="3812.92px" height="1143.669px" viewBox="0 0 3812.92 1143.669" enable-background="new 0 0 3812.92 1143.669"
	 xml:space="preserve">
<g>
	<rect x="5.727" y="573.018" width="3801.466" height="566.929"/>
	<g>
		<g>
			<path fill="#FFFFFF" d="M2405.925,970.898c-0.852-1.245-1.464-2.142-2.135-3.123c-0.439,0.201-0.893,0.455-1.378,0.624
				c-1.507,0.519-3.014,1.378-4.544,1.433c-4.422,0.159-8.855,0.004-13.284-0.055c-3.861-0.053-6.656-1.902-8.432-5.262
				c-0.681-1.287-1.381-2.651-1.641-4.058c-0.935-5.035-1.686-10.105-2.48-14.998c1.373-1.591,2.437-2.822,3.572-4.138
				c1.043-7.186-1.447-14.661,1.307-21.737c-2.854-5.445-2.861-6.117-0.245-12.235c-1.529-17.677-0.613-35.14,0.6-52.61
				c0.443-6.389,0.148-12.829,0.596-19.218c0.952-13.596,2.159-27.173,3.296-40.755c0.091-1.081,0.45-2.14,0.748-3.501
				c-0.718-0.47-1.566-1.027-2.67-1.75c0-2.19,0-4.549,0-7.135c0.825-0.461,1.742-0.975,2.974-1.662
				c0.726-4.861,1.481-9.933,2.239-15.005c1.737-11.635,3.483-23.27,5.204-34.907c0.215-1.454,0.713-3.043,0.357-4.375
				c-0.904-3.383,0.282-6.327,1.199-9.416c0.729-2.453,1.362-4.982,1.624-7.519c0.964-9.356,6.731-14.924,14.724-18.489
				c7.123-3.177,14.738-4.681,22.544-4.711c24.174-0.093,48.348-0.04,72.522-0.099c17.715-0.043,35.429-0.162,53.144-0.271
				c21.216-0.131,42.431-0.339,63.647-0.417c16.229-0.06,32.457,0.075,48.686,0.049c55.163-0.09,110.328-0.347,165.491-0.238
				c15.668,0.031,31.251,1.815,46.323,6.435c4.712,1.444,9.37,3.333,13.719,5.643c15.194,8.074,28.791,18.519,42.312,29.068
				c14.596,11.392,27.254,24.847,40.289,37.876c17.871,17.862,35.359,36.107,52.974,54.225c1.972,2.027,4.22,3.299,6.841,4.416
				c7.555,3.219,15.802,4.794,22.738,9.492c1.213,0.821,2.87,1.156,3.805,2.186c6.389,7.04,15.177,10.877,22.296,16.959
				c10.796,9.219,21.831,18.136,31.602,28.505c3.586,3.808,5.559,8.244,6.533,13.131c0.437,2.188-0.547,4.618-0.5,6.929
				c0.151,7.164-0.312,14.375,1.473,21.441c0.187,0.741-0.416,1.681-0.617,2.399c2.144,1.935,4.733,3.312,5.716,5.435
				c0.939,2.028,0.203,4.829-0.564,7.41c0.79,1.202,1.578,2.404,2.523,3.842c-1.424,6.056,1.998,12.722-2.045,18.682
				c-0.328,6.849-5.822,10.559-10.004,15.493c-3.439-1.358-4.865,1.444-6.191,4.919c-3.86,0-7.693,0.074-11.524-0.022
				c-3.726-0.094-7.186,0.567-10.752,1.87c-8.219,3-16.964,3.037-25.593,3.531c-2.002,0.114-4.015,0.017-5.928,0.017
				c-2.562-3.706,0.069-8.022-2.416-11.737c-2.439,3.138-1.572,6.662-1.84,9.872c-1.145,13.74-7.435,24.633-18.577,32.445
				c-9.905,6.946-21.157,10.294-33.344,9.661c-4.194-0.218-8.479-0.667-12.506-1.787c-17.007-4.732-26.624-16.839-31.997-32.959
				c-0.523-1.566-0.878-3.188-1.361-4.965c-4.846-0.685-9.512-0.642-13.18,1.644c-7.33-1.245-14.003-2.458-20.703-3.481
				c-2.902-0.442-5.862-0.657-8.798-0.696c-13.1-0.175-26.206-0.103-39.302-0.391c-23.421-0.516-46.833-1.345-70.254-1.826
				c-29.697-0.613-59.399-0.99-89.098-1.506c-17.336-0.302-34.673-0.667-52.008-1.032c-12.723-0.268-25.446-0.589-38.168-0.874
				c-1.83-0.041-3.66-0.005-5.685-0.005c-6.026,10.18-14.029,18.126-25.026,22.586c-10.934,4.434-22.191,4.58-33.467,1.56
				c-14.346,21.566-33.779,31.148-58.583,23.192c-24.783-7.949-35.052-27.038-34.174-53.233c-1.879,0.451-3.712,0.385-4.758,1.259
				c-1.607,1.343-3.3,1.633-5.122,1.542c-10.492-0.526-20.986-1.055-31.468-1.745
				C2420.205,972.265,2413.25,971.537,2405.925,970.898z M2884.824,755.123c-3.624,2.904-4.013,6.22-3.503,10.195
				c1.499,11.679,2.695,23.396,3.945,35.103c0.722,6.769,1.159,13.571,2.021,20.321c0.886,6.929,4.722,10.365,11.781,10.73
				c7.543,0.39,15.095,0.576,22.646,0.784c1.22,0.033,2.451-0.281,4.261-0.508c-1.823-24.483-3.623-48.657-5.372-72.155
				c-2.033-3.25-4.487-4.419-7.392-4.444C2903.816,755.076,2894.418,755.123,2884.824,755.123z M2949.186,823.009
				c-1.465-14.676-2.869-28.736-4.211-42.188c-10.738-12.951-15.273-17.389-20.451-19.81c-0.083,8.09,1.029,15.812,1.666,23.551
				c0.664,8.057,1.423,16.106,2.174,24.155c0.728,7.792,0.919,15.656,2.596,23.531c3.208,0,5.934,0,8.245,0
				C2942.632,829.076,2945.855,826.091,2949.186,823.009z M2952.907,819.88c2.004-1.595,3.85-2.344,4.396-3.64
				c1.471-3.487,2.386-7.209,3.542-10.907c1.334-0.768,2.712-1.562,4.099-2.36c-3.378-5.415-12.043-14.329-15.208-15.522
				C2950.776,798.078,2951.8,808.548,2952.907,819.88z"/>
		</g>
		<path fill="#FFFFFF" d="M2221.545,966.497c4.479,1.742,8.585,3.512,12.809,4.925c3.346,1.119,6.843,1.369,10.418,0.992
			c4.809-0.507,8.405-2.735,11.039-6.735c2.299-3.491,2.35-3.467,0.813-7.403c-17.639-45.186-35.281-90.371-52.924-135.556
			c-0.344-0.882-0.715-1.753-1.272-3.117c-0.592,2.231-0.291,4.002-0.344,5.737c-0.056,1.838-0.013,3.679-0.013,5.519
			c0,1.84,0,3.68,0,5.519c0,1.83,0,3.661,0,5.805c-1.307,0.016-2.473,0.017-3.638,0.046c-6.919,0.176-13.699,1.144-20.154,3.768
			c-11.327,4.604-19.31,12.574-23.809,23.96c-3.577,9.052-4.842,18.531-4.865,28.191c-0.048,19.998-0.014,39.995-0.014,59.993
			c0,0.943,0,1.886,0,2.972c-15.711,0-31.182,0-46.805,0c0-54.831,0-109.589,0-164.354c1.631-0.553,43.85-0.697,46.767-0.11
			c0,10.314,0,20.674,0,31.034c0.134,0.04,0.268,0.08,0.402,0.12c0.253-0.428,0.545-0.838,0.755-1.287
			c3.773-8.036,8.661-15.259,15.08-21.462c6.698-6.472,14.683-10.128,23.819-11.323c3.318-0.434,6.693-0.44,10.043-0.606
			c0.7-0.035,1.408,0.083,2.256,0.14c0.103,0.94,0.195,1.782,0.314,2.872c4.54,0.372,9.068,0.12,13.586,0.166
			c4.479,0.045,8.959,0.01,13.438,0.01c4.552,0,9.104,0,13.835,0c12.438,37.201,24.84,74.296,37.242,111.392
			c0.148,0.007,0.295,0.013,0.443,0.02c11.873-37.027,23.746-74.055,35.597-111.014c1.855-0.483,45.475-0.595,48.511-0.108
			c-0.303,1.062-0.528,2.122-0.904,3.126c-8.163,21.774-16.348,43.541-24.518,65.312c-12.69,33.817-25.368,67.638-38.06,101.454
			c-3.408,9.082-7.358,17.896-13.099,25.791c-4.682,6.439-10.318,11.775-17.71,15.034c-5.712,2.518-11.744,3.531-17.925,3.964
			c-16.186,1.133-31.27-2.428-45.322-10.481c-0.342-0.196-0.665-0.427-1.293-0.834
			C2211.234,988.761,2216.419,977.567,2221.545,966.497z"/>
		<path fill="#FFFFFF" d="M1257.929,961.268c0-72.003,0-143.58,0-215.355c0.768-0.057,1.459-0.154,2.15-0.154
			c28.398-0.008,56.798-0.231,85.193,0.065c22.594,0.235,43.833,5.926,63.009,18.155c24.715,15.762,40.153,38.088,45.92,66.853
			c3.741,18.658,3.02,37.261-2.624,55.483c-7.785,25.132-23.164,44.44-45.69,57.988c-14.66,8.817-30.533,14.228-47.573,15.974
			c-5.557,0.57-11.161,0.929-16.745,0.949c-26.878,0.096-53.756,0.043-80.634,0.043
			C1259.996,961.268,1259.056,961.268,1257.929,961.268z M1305.57,788.628c-0.528,3.296-0.39,127.992,0.137,129.844
			c0.823,0,1.693,0,2.562,0c11.036,0,22.073-0.008,33.109,0.003c5.291,0.005,10.545-0.414,15.73-1.466
			c20.07-4.074,34.965-15.044,43.437-33.805c8.452-18.717,8.328-37.868,0.866-56.879c-5.048-12.861-13.729-22.784-25.886-29.508
			c-10.005-5.534-20.81-8.083-32.191-8.169c-11.755-0.089-23.512-0.02-35.268-0.02
			C1307.271,788.628,1306.476,788.628,1305.57,788.628z"/>
		<path fill="#FFFFFF" d="M634.783,745.843c17.668,0,34.926,0,52.462,0c9.315,25.096,18.652,50.249,27.988,75.403
			c9.337,25.157,18.674,50.314,28.456,75.475c18.643-50.23,37.287-100.46,55.975-150.81c16.985,0,33.913,0,50.837,0
			c-0.201,1.733-84.49,212.377-86.78,216.799c-13.804,0-27.691,0-41.907,0C692.869,890.583,663.87,818.323,634.783,745.843z"/>
		<path fill="#FFFFFF" d="M1616.236,934.254c-2.616,2.781-4.951,5.511-7.541,7.973c-12.347,11.738-26.88,19.14-43.802,21.588
			c-18.658,2.7-36.919,1.316-54.254-6.519c-25.439-11.498-40.785-31.349-46.343-58.515c-4.114-20.106-2.155-39.808,6.507-58.592
			c9.078-19.686,23.598-33.773,43.816-41.801c8.788-3.49,17.98-5.026,27.415-5.196c9.653-0.174,19.196,0.678,28.407,3.703
			c20.673,6.788,35.347,20.369,44.558,39.951c4.881,10.377,7.437,21.397,8.663,32.757c0.8,7.409,0.948,14.827,0.394,22.258
			c-0.053,0.717-0.119,1.434-0.205,2.148c-0.037,0.305-0.14,0.602-0.28,1.179c-38.046,0-76.076,0-114.209,0
			c0,0.677-0.075,1.076,0.011,1.436c2.356,9.812,6.964,18.168,15.546,23.94c5.352,3.599,11.296,5.66,17.655,6.358
			c9.855,1.081,19.47,0.122,28.596-4.085c5.712-2.633,10.786-6.229,15.561-10.281c0.789-0.669,1.579-1.337,2.55-2.16
			C1598.203,918.293,1607.09,926.159,1616.236,934.254z M1508.453,865.503c3.641,0.522,68.411,0.341,70.184-0.212
			c-1.463-9.679-4.82-18.479-11.824-25.611c-4.273-4.351-9.462-6.973-15.432-8.141c-4.199-0.821-8.422-0.892-12.637-0.357
			c-7.563,0.961-14.001,4.162-19.149,9.882C1513.35,848.005,1510.163,856.309,1508.453,865.503z"/>
		<path fill="#FFFFFF" d="M1975.825,895.155c0.846,4.642,2.272,8.607,4.241,12.372c4.958,9.48,12.732,15.572,23.026,18.12
			c14.093,3.488,27.653,1.951,40.172-5.739c3.798-2.333,7.241-5.247,10.836-7.909c0.573-0.424,1.092-0.922,1.891-1.604
			c8.905,7.878,17.793,15.741,26.881,23.781c-1.698,1.916-3.208,3.764-4.866,5.47c-13.465,13.856-29.682,22.207-48.954,24.516
			c-15.385,1.843-30.525,0.949-45.18-4.308c-28.134-10.093-45.636-30.016-52.397-58.916c-4.67-19.961-3.089-39.776,5.154-58.735
			c9.664-22.226,25.842-37.598,48.974-45.298c10.699-3.562,21.757-4.266,32.941-3.457c8.181,0.591,16.174,2.112,23.775,5.272
			c18.453,7.67,31.558,20.848,39.79,38.962c4.371,9.619,6.811,19.769,8.086,30.221c1.02,8.359,1.279,16.735,0.45,25.129
			c-0.062,0.624-0.139,1.247-0.238,2.124C2052.288,895.155,2014.245,895.155,1975.825,895.155z M2045.372,865.613
			c-1.252-8.946-4.179-17.008-9.959-23.888c-3.911-4.655-8.74-7.927-14.614-9.552c-5.55-1.535-11.178-1.669-16.853-0.737
			c-8.043,1.321-14.428,5.367-19.409,11.729c-4.364,5.574-7.029,11.941-8.622,18.788c-0.277,1.191-0.437,2.409-0.659,3.66
			C1998.796,865.613,2022.021,865.613,2045.372,865.613z"/>
		<path fill="#FFFFFF" d="M952.917,866.954c0.205-5.901-0.4-11.583-2.924-16.911c-3.165-6.683-8.581-10.794-15.447-13.158
			c-4.577-1.576-9.323-2.235-14.134-2.4c-13.646-0.469-26.937,1.526-39.867,5.913c-2.27,0.77-4.529,1.572-6.798,2.346
			c-0.51,0.174-1.039,0.292-1.772,0.495c-3.889-11.854-7.741-23.6-11.633-35.462c0.567-0.311,1.019-0.615,1.512-0.82
			c11.545-4.802,23.368-8.738,35.749-10.669c5.594-0.873,11.274-1.291,16.932-1.642c8.067-0.5,16.142-0.412,24.193,0.453
			c9.525,1.023,18.757,3.149,27.378,7.459c12.313,6.156,20.516,16.057,25.762,28.581c3.559,8.496,5.266,17.421,5.78,26.578
			c0.224,3.988,0.253,7.992,0.255,11.988c0.02,29.438,0.011,58.876,0.011,88.314c0,1.018,0,2.037,0,3.121
			c-15.23,0-30.156,0-45.364,0c0-5.656,0-11.191,0-17.281c-1.039,0.978-1.665,1.548-2.269,2.141
			c-11.304,11.097-24.815,17.159-40.664,18.178c-9.837,0.633-19.502-0.031-28.91-3.032c-15.041-4.797-25.929-14.216-31.62-29.156
			c-2.572-6.75-3.232-13.835-2.956-20.998c0.213-5.528,0.951-10.998,2.846-16.238c4.169-11.529,11.917-19.901,22.708-25.546
			c8.623-4.511,17.896-6.789,27.5-7.86c9.573-1.068,19.159-0.99,28.723,0.061c7.57,0.832,14.931,2.686,22.182,4.986
			c0.685,0.217,1.368,0.439,2.058,0.635C952.289,867.07,952.458,867.004,952.917,866.954z M953.507,894.845
			c-1.138-0.485-2.006-0.884-2.895-1.228c-10.147-3.932-20.676-5.47-31.508-4.794c-5.365,0.335-10.612,1.35-15.521,3.723
			c-8.177,3.953-12.193,10.401-12.095,19.524c0.085,7.96,3.773,13.51,10.817,16.948c1.286,0.628,2.656,1.104,4.023,1.538
			c4.964,1.576,10.076,1.641,15.198,1.285c6.367-0.443,12.479-1.881,18.045-5.153c6.778-3.984,11.555-9.537,13.316-17.355
			C953.953,904.603,953.407,899.797,953.507,894.845z"/>
		<path fill="#FFFFFF" d="M1061.992,961.17c-15.75,0-31.167,0-46.568,0c-0.475-1.723-0.659-160.8-0.186-164.687
			c15.456,0,30.933,0,46.635,0c0,7.369,0,14.686,0,22.132c1.193-0.056,1.461-0.913,1.913-1.464
			c5.312-6.466,11.183-12.309,18.445-16.603c8.09-4.783,16.836-7.213,26.238-7.367c7.73-0.127,15.346,0.6,22.704,3.056
			c14.688,4.902,24.469,14.965,30.151,29.172c3.705,9.263,4.902,18.989,4.904,28.895c0.008,34.792,0.004,69.585-0.001,104.378
			c0,0.781-0.064,1.561-0.104,2.457c-15.552,0-30.956,0-46.653,0c-0.04-1.004-0.114-2.004-0.114-3.003
			c-0.006-29.274,0.006-58.547-0.015-87.821c-0.004-5.124-0.324-10.23-1.757-15.194c-2.764-9.579-8.62-16.125-18.537-18.47
			c-5.441-1.286-10.949-1.233-16.395,0.122c-8.603,2.141-14.562,7.374-17.876,15.579c-2.033,5.034-2.779,10.322-2.781,15.722
			c-0.008,29.993-0.004,59.986-0.004,89.98C1061.992,959.001,1061.992,959.949,1061.992,961.17z"/>
		<path fill="#FFFFFF" d="M1868.348,962.472c-14.27,0-28.338,0-42.585,0c-21.585-55.22-43.168-110.434-64.727-165.588
			c0.104-0.158,0.139-0.227,0.19-0.282c0.052-0.057,0.119-0.142,0.179-0.142c15.592-0.053,31.184-0.101,46.776-0.142
			c0.71-0.002,1.421,0.059,2.36,0.101c12.184,36.43,24.363,72.845,36.543,109.26c0.169,0.019,0.338,0.039,0.507,0.058
			c4.164-12.068,8.179-24.188,12.266-36.282c4.092-12.112,8.182-24.224,12.268-36.338c4.109-12.183,8.212-24.368,12.351-36.651
			c16.215,0,32.325,0,48.764,0C1911.542,851.972,1889.94,907.234,1868.348,962.472z"/>
		<path fill="#FFFFFF" d="M1684.912,736.706c0,74.927,0,149.596,0,224.414c-15.59,0-31.06,0-46.683,0c0-74.805,0-149.532,0-224.414
			C1653.792,736.706,1669.257,736.706,1684.912,736.706z"/>
		<path fill="#FFFFFF" d="M1754.775,961.167c-15.643,0-31.054,0-46.622,0c0-54.925,0-109.749,0-164.714c15.467,0,30.88,0,46.29,0
			c0.06,0.06,0.12,0.114,0.172,0.175c0.051,0.059,0.134,0.124,0.134,0.187c0.046,54.145,0.086,108.29,0.123,162.435
			C1754.871,959.801,1754.817,960.352,1754.775,961.167z"/>
		<path fill="#FFFFFF" d="M1706.87,736.675c16.477,0,32.687,0,49.049,0c0,13.831,0,27.538,0,41.4c-16.36,0-32.627,0-49.049,0
			C1706.87,764.271,1706.87,750.565,1706.87,736.675z"/>
	</g>
	<rect x="5.727" y="3.722" fill="#FFFFFF" width="3801.466" height="566.929"/>
	<g>
		<g>
			<path fill="#010202" d="M2405.925,401.602c-0.852-1.245-1.464-2.142-2.135-3.124c-0.439,0.201-0.893,0.455-1.378,0.624
				c-1.507,0.519-3.014,1.378-4.544,1.433c-4.422,0.159-8.855,0.004-13.284-0.055c-3.861-0.053-6.656-1.902-8.432-5.262
				c-0.681-1.287-1.381-2.65-1.641-4.058c-0.935-5.035-1.686-10.105-2.48-14.998c1.373-1.591,2.437-2.822,3.572-4.138
				c1.043-7.186-1.447-14.661,1.307-21.737c-2.854-5.445-2.861-6.117-0.245-12.235c-1.529-17.677-0.613-35.14,0.6-52.61
				c0.443-6.389,0.148-12.829,0.596-19.218c0.952-13.596,2.159-27.173,3.296-40.755c0.091-1.081,0.45-2.14,0.748-3.501
				c-0.718-0.47-1.566-1.027-2.67-1.75c0-2.19,0-4.549,0-7.135c0.825-0.461,1.742-0.975,2.974-1.663
				c0.726-4.861,1.481-9.933,2.239-15.005c1.737-11.635,3.483-23.27,5.204-34.907c0.215-1.454,0.713-3.043,0.357-4.375
				c-0.904-3.383,0.282-6.327,1.199-9.416c0.729-2.453,1.362-4.982,1.624-7.52c0.964-9.356,6.731-14.924,14.724-18.489
				c7.123-3.177,14.738-4.681,22.544-4.711c24.174-0.093,48.348-0.04,72.522-0.098c17.715-0.043,35.429-0.162,53.144-0.271
				c21.216-0.131,42.431-0.339,63.647-0.417c16.229-0.06,32.457,0.075,48.686,0.049c55.163-0.09,110.328-0.347,165.491-0.238
				c15.668,0.031,31.251,1.815,46.323,6.435c4.712,1.444,9.37,3.333,13.719,5.643c15.194,8.074,28.791,18.519,42.312,29.068
				c14.596,11.392,27.254,24.847,40.289,37.876c17.871,17.862,35.359,36.107,52.974,54.225c1.972,2.027,4.22,3.299,6.841,4.416
				c7.555,3.219,15.802,4.794,22.738,9.492c1.213,0.821,2.87,1.156,3.805,2.186c6.389,7.04,15.177,10.877,22.296,16.959
				c10.796,9.219,21.831,18.136,31.602,28.505c3.586,3.808,5.559,8.244,6.533,13.131c0.437,2.188-0.547,4.618-0.5,6.929
				c0.151,7.164-0.312,14.374,1.473,21.441c0.187,0.741-0.416,1.681-0.617,2.399c2.144,1.935,4.733,3.312,5.716,5.435
				c0.939,2.028,0.203,4.829-0.564,7.41c0.79,1.202,1.578,2.404,2.523,3.842c-1.424,6.056,1.998,12.722-2.045,18.682
				c-0.328,6.849-5.822,10.559-10.004,15.493c-3.439-1.358-4.865,1.444-6.191,4.919c-3.86,0-7.693,0.074-11.524-0.022
				c-3.726-0.094-7.186,0.567-10.752,1.87c-8.219,3-16.964,3.037-25.593,3.531c-2.002,0.114-4.015,0.017-5.928,0.017
				c-2.562-3.706,0.069-8.022-2.416-11.737c-2.439,3.138-1.572,6.662-1.84,9.872c-1.145,13.74-7.435,24.633-18.577,32.445
				c-9.905,6.946-21.157,10.294-33.344,9.661c-4.194-0.218-8.479-0.667-12.506-1.787c-17.007-4.732-26.624-16.839-31.997-32.959
				c-0.523-1.566-0.878-3.188-1.361-4.965c-4.846-0.685-9.512-0.642-13.18,1.644c-7.33-1.245-14.003-2.458-20.703-3.481
				c-2.902-0.442-5.862-0.657-8.798-0.696c-13.1-0.175-26.206-0.103-39.302-0.391c-23.421-0.516-46.833-1.345-70.254-1.826
				c-29.697-0.613-59.399-0.99-89.098-1.506c-17.336-0.302-34.673-0.667-52.008-1.032c-12.723-0.268-25.446-0.589-38.168-0.874
				c-1.83-0.041-3.66-0.006-5.685-0.006c-6.026,10.18-14.029,18.126-25.026,22.586c-10.934,4.434-22.191,4.58-33.467,1.56
				c-14.346,21.566-33.779,31.148-58.583,23.192c-24.783-7.949-35.052-27.038-34.174-53.233c-1.879,0.451-3.712,0.385-4.758,1.259
				c-1.607,1.342-3.3,1.633-5.122,1.542c-10.492-0.526-20.986-1.055-31.468-1.744
				C2420.205,402.969,2413.25,402.241,2405.925,401.602z M2884.824,185.827c-3.624,2.904-4.013,6.22-3.503,10.195
				c1.499,11.679,2.695,23.396,3.945,35.103c0.722,6.769,1.159,13.571,2.021,20.321c0.886,6.929,4.722,10.365,11.781,10.73
				c7.543,0.39,15.095,0.576,22.646,0.784c1.22,0.033,2.451-0.281,4.261-0.508c-1.823-24.483-3.623-48.657-5.372-72.155
				c-2.033-3.25-4.487-4.419-7.392-4.444C2903.816,185.78,2894.418,185.827,2884.824,185.827z M2949.186,253.712
				c-1.465-14.676-2.869-28.736-4.211-42.188c-10.738-12.951-15.273-17.389-20.451-19.81c-0.083,8.09,1.029,15.812,1.666,23.551
				c0.664,8.057,1.423,16.106,2.174,24.155c0.728,7.792,0.919,15.656,2.596,23.531c3.208,0,5.934,0,8.245,0
				C2942.632,259.78,2945.855,256.795,2949.186,253.712z M2952.907,250.583c2.004-1.595,3.85-2.344,4.396-3.64
				c1.471-3.487,2.386-7.209,3.542-10.907c1.334-0.768,2.712-1.562,4.099-2.36c-3.378-5.415-12.043-14.329-15.208-15.522
				C2950.776,228.781,2951.8,239.252,2952.907,250.583z"/>
		</g>
		<path d="M2221.545,397.201c4.479,1.742,8.585,3.512,12.809,4.925c3.346,1.119,6.843,1.369,10.418,0.992
			c4.809-0.507,8.405-2.735,11.039-6.735c2.299-3.491,2.35-3.467,0.813-7.402c-17.639-45.186-35.281-90.371-52.924-135.556
			c-0.344-0.882-0.715-1.753-1.272-3.117c-0.592,2.231-0.291,4.002-0.344,5.737c-0.056,1.838-0.013,3.679-0.013,5.519
			c0,1.84,0,3.68,0,5.519c0,1.83,0,3.661,0,5.805c-1.307,0.016-2.473,0.016-3.638,0.046c-6.919,0.176-13.699,1.144-20.154,3.768
			c-11.327,4.604-19.31,12.574-23.809,23.96c-3.577,9.052-4.842,18.531-4.865,28.191c-0.048,19.997-0.015,39.995-0.015,59.993
			c0,0.943,0,1.886,0,2.972c-15.711,0-31.181,0-46.805,0c0-54.831,0-109.589,0-164.354c1.631-0.553,43.85-0.697,46.767-0.11
			c0,10.314,0,20.674,0,31.034c0.134,0.04,0.268,0.08,0.402,0.12c0.253-0.428,0.545-0.839,0.755-1.287
			c3.773-8.036,8.661-15.259,15.08-21.462c6.698-6.472,14.683-10.128,23.819-11.323c3.318-0.434,6.693-0.44,10.043-0.606
			c0.7-0.035,1.408,0.083,2.256,0.14c0.103,0.94,0.195,1.782,0.314,2.872c4.54,0.372,9.069,0.12,13.586,0.165
			c4.479,0.045,8.959,0.01,13.438,0.01c4.552,0,9.104,0,13.835,0c12.438,37.201,24.84,74.296,37.242,111.392
			c0.148,0.007,0.295,0.013,0.443,0.02c11.873-37.027,23.746-74.055,35.597-111.014c1.855-0.483,45.475-0.595,48.511-0.108
			c-0.303,1.062-0.528,2.122-0.904,3.126c-8.163,21.774-16.348,43.541-24.518,65.312c-12.69,33.817-25.368,67.638-38.06,101.454
			c-3.408,9.082-7.358,17.896-13.099,25.791c-4.682,6.439-10.318,11.775-17.71,15.034c-5.712,2.518-11.744,3.531-17.925,3.964
			c-16.186,1.134-31.27-2.428-45.322-10.481c-0.342-0.196-0.665-0.427-1.293-0.834
			C2211.234,419.465,2216.419,408.271,2221.545,397.201z"/>
		<path d="M1257.929,391.972c0-72.003,0-143.58,0-215.355c0.768-0.057,1.459-0.154,2.15-0.154
			c28.398-0.008,56.798-0.231,85.193,0.065c22.594,0.235,43.833,5.926,63.009,18.155c24.715,15.762,40.153,38.088,45.92,66.853
			c3.741,18.658,3.02,37.261-2.624,55.483c-7.785,25.132-23.164,44.44-45.69,57.988c-14.661,8.817-30.533,14.228-47.573,15.974
			c-5.557,0.57-11.161,0.929-16.745,0.949c-26.878,0.096-53.756,0.043-80.634,0.043
			C1259.996,391.972,1259.056,391.972,1257.929,391.972z M1305.57,219.332c-0.528,3.296-0.39,127.992,0.137,129.844
			c0.823,0,1.693,0,2.562,0c11.036,0,22.073-0.008,33.109,0.003c5.291,0.005,10.545-0.414,15.73-1.466
			c20.07-4.074,34.965-15.044,43.437-33.805c8.452-18.717,8.328-37.869,0.866-56.879c-5.048-12.861-13.729-22.784-25.886-29.508
			c-10.005-5.535-20.81-8.083-32.191-8.168c-11.755-0.089-23.512-0.02-35.268-0.02
			C1307.271,219.332,1306.476,219.332,1305.57,219.332z"/>
		<path d="M634.783,176.547c17.668,0,34.926,0,52.462,0c9.315,25.096,18.652,50.249,27.988,75.403
			c9.337,25.157,18.674,50.314,28.456,75.475c18.644-50.23,37.287-100.46,55.975-150.81c16.985,0,33.913,0,50.837,0
			c-0.201,1.733-84.49,212.377-86.78,216.799c-13.804,0-27.691,0-41.907,0C692.869,321.287,663.87,249.027,634.783,176.547z"/>
		<path d="M1616.236,364.958c-2.616,2.781-4.951,5.511-7.541,7.973c-12.347,11.738-26.88,19.14-43.802,21.588
			c-18.658,2.7-36.919,1.316-54.254-6.519c-25.439-11.498-40.785-31.349-46.343-58.515c-4.114-20.106-2.155-39.809,6.507-58.592
			c9.078-19.686,23.598-33.773,43.816-41.801c8.788-3.49,17.98-5.026,27.415-5.196c9.653-0.175,19.196,0.678,28.407,3.702
			c20.673,6.788,35.347,20.369,44.558,39.952c4.881,10.377,7.437,21.397,8.663,32.757c0.8,7.409,0.948,14.827,0.394,22.258
			c-0.053,0.717-0.119,1.434-0.205,2.148c-0.037,0.305-0.14,0.602-0.28,1.179c-38.046,0-76.076,0-114.209,0
			c0,0.677-0.075,1.076,0.011,1.436c2.356,9.812,6.964,18.168,15.546,23.94c5.352,3.599,11.296,5.66,17.655,6.358
			c9.855,1.081,19.47,0.122,28.596-4.085c5.712-2.633,10.786-6.229,15.561-10.28c0.789-0.67,1.579-1.337,2.55-2.16
			C1598.203,348.997,1607.09,356.863,1616.236,364.958z M1508.453,296.207c3.641,0.522,68.411,0.341,70.184-0.212
			c-1.463-9.679-4.82-18.479-11.824-25.611c-4.273-4.351-9.462-6.973-15.432-8.141c-4.199-0.821-8.422-0.892-12.637-0.357
			c-7.564,0.961-14.001,4.162-19.149,9.882C1513.35,278.708,1510.163,287.013,1508.453,296.207z"/>
		<path d="M1975.825,325.859c0.846,4.642,2.272,8.607,4.241,12.372c4.958,9.48,12.732,15.572,23.026,18.12
			c14.093,3.488,27.653,1.951,40.172-5.739c3.799-2.333,7.241-5.247,10.836-7.909c0.573-0.424,1.092-0.922,1.891-1.604
			c8.905,7.878,17.793,15.741,26.881,23.781c-1.698,1.916-3.208,3.764-4.866,5.47c-13.465,13.856-29.682,22.207-48.954,24.516
			c-15.386,1.843-30.525,0.949-45.18-4.309c-28.134-10.093-45.636-30.016-52.397-58.916c-4.67-19.961-3.089-39.776,5.154-58.735
			c9.664-22.226,25.842-37.598,48.974-45.298c10.699-3.562,21.757-4.266,32.941-3.458c8.181,0.591,16.174,2.112,23.775,5.272
			c18.453,7.67,31.558,20.848,39.79,38.962c4.371,9.619,6.811,19.769,8.086,30.222c1.02,8.359,1.279,16.735,0.45,25.129
			c-0.062,0.624-0.139,1.246-0.238,2.124C2052.288,325.859,2014.245,325.859,1975.825,325.859z M2045.372,296.317
			c-1.252-8.946-4.179-17.008-9.959-23.888c-3.911-4.655-8.74-7.927-14.614-9.552c-5.55-1.535-11.178-1.669-16.853-0.737
			c-8.043,1.321-14.428,5.367-19.409,11.729c-4.364,5.574-7.029,11.941-8.622,18.788c-0.277,1.191-0.437,2.409-0.658,3.66
			C1998.796,296.317,2022.021,296.317,2045.372,296.317z"/>
		<path d="M952.917,297.658c0.205-5.901-0.4-11.583-2.924-16.911c-3.165-6.683-8.581-10.794-15.447-13.158
			c-4.577-1.576-9.323-2.235-14.134-2.4c-13.646-0.469-26.937,1.526-39.867,5.913c-2.27,0.77-4.529,1.572-6.798,2.346
			c-0.51,0.174-1.039,0.292-1.772,0.495c-3.889-11.854-7.741-23.6-11.633-35.462c0.567-0.311,1.019-0.615,1.511-0.82
			c11.545-4.802,23.369-8.738,35.749-10.669c5.594-0.873,11.274-1.291,16.932-1.642c8.067-0.5,16.142-0.412,24.193,0.453
			c9.525,1.023,18.757,3.149,27.378,7.459c12.313,6.155,20.516,16.057,25.762,28.581c3.558,8.496,5.266,17.421,5.78,26.578
			c0.224,3.988,0.253,7.991,0.255,11.988c0.02,29.438,0.011,58.876,0.011,88.314c0,1.018,0,2.037,0,3.121
			c-15.23,0-30.156,0-45.364,0c0-5.656,0-11.191,0-17.281c-1.039,0.978-1.665,1.548-2.269,2.141
			c-11.304,11.097-24.815,17.159-40.664,18.178c-9.837,0.632-19.502-0.031-28.91-3.032c-15.041-4.797-25.929-14.216-31.62-29.156
			c-2.572-6.75-3.232-13.835-2.956-20.998c0.213-5.528,0.951-10.998,2.846-16.238c4.169-11.529,11.917-19.901,22.708-25.546
			c8.623-4.511,17.896-6.789,27.5-7.86c9.573-1.068,19.159-0.99,28.723,0.061c7.57,0.832,14.931,2.686,22.182,4.986
			c0.685,0.217,1.368,0.439,2.058,0.635C952.289,297.773,952.458,297.708,952.917,297.658z M953.507,325.549
			c-1.138-0.485-2.006-0.884-2.895-1.228c-10.147-3.932-20.676-5.47-31.508-4.794c-5.365,0.335-10.612,1.35-15.521,3.723
			c-8.177,3.953-12.193,10.401-12.095,19.524c0.085,7.96,3.773,13.51,10.817,16.948c1.286,0.628,2.656,1.104,4.023,1.538
			c4.964,1.576,10.076,1.642,15.198,1.285c6.367-0.443,12.479-1.881,18.045-5.153c6.778-3.984,11.555-9.537,13.316-17.355
			C953.953,335.307,953.407,330.501,953.507,325.549z"/>
		<path d="M1061.992,391.874c-15.75,0-31.167,0-46.568,0c-0.475-1.723-0.659-160.8-0.186-164.687c15.456,0,30.933,0,46.635,0
			c0,7.369,0,14.686,0,22.132c1.193-0.056,1.461-0.913,1.913-1.464c5.312-6.466,11.183-12.309,18.445-16.603
			c8.09-4.783,16.836-7.213,26.238-7.367c7.729-0.127,15.346,0.6,22.704,3.056c14.688,4.902,24.469,14.965,30.151,29.172
			c3.705,9.263,4.902,18.989,4.904,28.895c0.008,34.793,0.004,69.585-0.001,104.377c0,0.78-0.064,1.561-0.104,2.457
			c-15.552,0-30.956,0-46.653,0c-0.04-1.004-0.114-2.004-0.114-3.003c-0.006-29.274,0.006-58.547-0.015-87.821
			c-0.004-5.124-0.324-10.23-1.757-15.194c-2.764-9.579-8.62-16.125-18.537-18.47c-5.441-1.286-10.949-1.233-16.395,0.123
			c-8.603,2.141-14.562,7.374-17.876,15.579c-2.033,5.034-2.779,10.322-2.781,15.722c-0.008,29.993-0.004,59.987-0.004,89.98
			C1061.992,389.705,1061.992,390.653,1061.992,391.874z"/>
		<path d="M1868.348,393.176c-14.27,0-28.338,0-42.585,0c-21.585-55.22-43.168-110.434-64.727-165.588
			c0.104-0.158,0.139-0.227,0.19-0.283c0.052-0.057,0.119-0.142,0.179-0.142c15.592-0.053,31.184-0.101,46.776-0.142
			c0.71-0.002,1.421,0.059,2.36,0.101c12.184,36.43,24.363,72.845,36.543,109.26c0.169,0.019,0.338,0.039,0.507,0.058
			c4.164-12.068,8.179-24.188,12.266-36.282c4.092-12.112,8.182-24.224,12.268-36.338c4.109-12.183,8.212-24.368,12.351-36.651
			c16.215,0,32.325,0,48.764,0C1911.542,282.675,1889.94,337.938,1868.348,393.176z"/>
		<path d="M1684.912,167.41c0,74.927,0,149.596,0,224.413c-15.59,0-31.06,0-46.683,0c0-74.805,0-149.532,0-224.413
			C1653.792,167.41,1669.257,167.41,1684.912,167.41z"/>
		<path d="M1754.774,391.871c-15.643,0-31.054,0-46.622,0c0-54.925,0-109.749,0-164.713c15.467,0,30.88,0,46.29,0
			c0.06,0.06,0.12,0.114,0.172,0.175c0.051,0.059,0.134,0.124,0.134,0.187c0.046,54.145,0.086,108.29,0.123,162.435
			C1754.871,390.505,1754.817,391.056,1754.774,391.871z"/>
		<path d="M1706.87,167.379c16.477,0,32.687,0,49.049,0c0,13.831,0,27.538,0,41.4c-16.36,0-32.627,0-49.049,0
			C1706.87,194.975,1706.87,181.268,1706.87,167.379z"/>
	</g>
</g>
</svg>
